AnekTamil-SemiExpandedExtraBold.ufo
<glyph name="exclam" format="2">
  <advance width="584.0"/>
  <unicode hex="0021"/>
  <outline>
    <contour>
      <point x="453.5" y="433.0" type="line"/>
      <point x="495.0" y="1278.0" type="line"/>
      <point x="89.0" y="1278.0" type="line"/>
      <point x="131.5" y="433.0" type="line"/>
    </contour>
    <contour>
      <point x="293.0" y="-31.5" type="curve" smooth="yes"/>
      <point x="429.0" y="-31.5"/>
      <point x="492.0" y="38.5"/>
      <point x="492.0" y="152.5" type="curve" smooth="yes"/>
      <point x="492.0" y="160.5" type="line" smooth="yes"/>
      <point x="492.0" y="274.5"/>
      <point x="429.0" y="345.5"/>
      <point x="293.0" y="345.5" type="curve" smooth="yes"/>
      <point x="156.5" y="345.5"/>
      <point x="95.0" y="274.5"/>
      <point x="95.0" y="160.5" type="curve" smooth="yes"/>
      <point x="95.0" y="152.5" type="line" smooth="yes"/>
      <point x="95.0" y="38.5"/>
      <point x="156.5" y="-31.5"/>
    </contour>
  </outline>
</glyph>
<glyph name="numbersign" format="2">
  <advance width="1322.0"/>
  <unicode hex="0023"/>
  <outline>
    <contour>
      <point x="169.0" y="0.0" type="line"/>
      <point x="458.0" y="0.0" type="line"/>
      <point x="649.5" y="1278.0" type="line"/>
      <point x="360.5" y="1278.0" type="line"/>
    </contour>
    <contour>
      <point x="47.0" y="249.0" type="line"/>
      <point x="1208.0" y="249.0" type="line"/>
      <point x="1208.0" y="505.0" type="line"/>
      <point x="47.0" y="505.0" type="line"/>
    </contour>
    <contour>
      <point x="684.0" y="0.0" type="line"/>
      <point x="975.0" y="0.0" type="line"/>
      <point x="1158.5" y="1278.0" type="line"/>
      <point x="868.0" y="1278.0" type="line"/>
    </contour>
    <contour>
      <point x="115.0" y="766.5" type="line"/>
      <point x="1275.0" y="766.5" type="line"/>
      <point x="1275.0" y="1022.5" type="line"/>
      <point x="115.0" y="1022.5" type="line"/>
    </contour>
  </outline>
</glyph>
<glyph name="dollar" format="2">
  <advance width="1280.0"/>
  <unicode hex="0024"/>
  <anchor x="633.5" y="0.0" name="bottom"/>
  <anchor x="633.5" y="1278.0" name="top"/>
  <outline>
    <contour>
      <point x="787.5" y="1117.5" type="line"/>
      <point x="787.5" y="1494.0" type="line"/>
      <point x="475.0" y="1494.0" type="line"/>
      <point x="475.0" y="1117.5" type="line"/>
    </contour>
    <contour>
      <point x="787.5" y="-217.5" type="line"/>
      <point x="787.5" y="151.5" type="line"/>
      <point x="475.0" y="151.5" type="line"/>
      <point x="475.0" y="-217.5" type="line"/>
    </contour>
    <component base="S"/>
  </outline>
</glyph>
<glyph name="percent" format="2">
  <advance width="1793.0"/>
  <unicode hex="0025"/>
  <outline>
    <contour>
      <point x="280.5" y="0.0" type="line"/>
      <point x="603.0" y="0.0" type="line"/>
      <point x="1511.5" y="1278.0" type="line"/>
      <point x="1194.5" y="1278.0" type="line"/>
    </contour>
    <contour>
      <point x="1379.5" y="-40.0" type="curve" smooth="yes"/>
      <point x="1605.0" y="-40.0"/>
      <point x="1731.5" y="79.0"/>
      <point x="1731.5" y="292.5" type="curve" smooth="yes"/>
      <point x="1731.5" y="328.0" type="line" smooth="yes"/>
      <point x="1731.5" y="541.5"/>
      <point x="1604.0" y="659.0"/>
      <point x="1379.5" y="659.0" type="curve" smooth="yes"/>
      <point x="1154.0" y="659.0"/>
      <point x="1029.5" y="539.5"/>
      <point x="1029.5" y="328.0" type="curve" smooth="yes"/>
      <point x="1029.5" y="292.5" type="line" smooth="yes"/>
      <point x="1029.5" y="78.0"/>
      <point x="1154.0" y="-40.0"/>
    </contour>
    <contour>
      <point x="1379.5" y="168.0" type="curve" smooth="yes"/>
      <point x="1313.0" y="168.0"/>
      <point x="1278.5" y="208.0"/>
      <point x="1278.5" y="285.0" type="curve" smooth="yes"/>
      <point x="1278.5" y="334.0" type="line" smooth="yes"/>
      <point x="1278.5" y="410.0"/>
      <point x="1312.5" y="451.5"/>
      <point x="1379.5" y="451.5" type="curve" smooth="yes"/>
      <point x="1447.5" y="451.5"/>
      <point x="1480.5" y="410.0"/>
      <point x="1480.5" y="334.0" type="curve" smooth="yes"/>
      <point x="1480.5" y="285.0" type="line" smooth="yes"/>
      <point x="1480.5" y="208.0"/>
      <point x="1447.5" y="168.0"/>
    </contour>
    <contour>
      <point x="411.5" y="619.0" type="curve" smooth="yes"/>
      <point x="637.0" y="619.0"/>
      <point x="763.5" y="739.5"/>
      <point x="763.5" y="951.0" type="curve" smooth="yes"/>
      <point x="763.5" y="986.5" type="line" smooth="yes"/>
      <point x="763.5" y="1200.0"/>
      <point x="637.0" y="1317.5"/>
      <point x="411.5" y="1317.5" type="curve" smooth="yes"/>
      <point x="186.5" y="1317.5"/>
      <point x="61.5" y="1200.0"/>
      <point x="61.5" y="986.5" type="curve" smooth="yes"/>
      <point x="61.5" y="951.0" type="line" smooth="yes"/>
      <point x="61.5" y="736.5"/>
      <point x="186.5" y="619.0"/>
    </contour>
    <contour>
      <point x="411.5" y="826.5" type="curve" smooth="yes"/>
      <point x="345.5" y="826.5"/>
      <point x="310.5" y="867.0"/>
      <point x="310.5" y="943.5" type="curve" smooth="yes"/>
      <point x="310.5" y="993.0" type="line" smooth="yes"/>
      <point x="310.5" y="1069.0"/>
      <point x="344.5" y="1110.0"/>
      <point x="411.5" y="1110.0" type="curve" smooth="yes"/>
      <point x="479.5" y="1110.0"/>
      <point x="512.5" y="1069.0"/>
      <point x="512.5" y="993.0" type="curve" smooth="yes"/>
      <point x="512.5" y="943.5" type="line" smooth="yes"/>
      <point x="512.5" y="867.0"/>
      <point x="479.5" y="826.5"/>
    </contour>
  </outline>
</glyph>
<glyph name="ampersand" format="2">
  <advance width="1540.5"/>
  <unicode hex="0026"/>
  <outline>
    <contour>
      <point x="1163.5" y="0.5" type="curve"/>
      <point x="1572.5" y="0.5" type="line"/>
      <point x="1572.5" y="33.0" type="line"/>
      <point x="1491.5" y="122.0"/>
      <point x="1299.5" y="294.5"/>
      <point x="1211.0" y="383.5" type="curve"/>
      <point x="1091.0" y="493.5" type="line"/>
      <point x="687.0" y="834.0" type="line" smooth="yes"/>
      <point x="633.0" y="880.0"/>
      <point x="607.0" y="910.0"/>
      <point x="607.0" y="944.5" type="curve" smooth="yes"/>
      <point x="607.0" y="947.5" type="line" smooth="yes"/>
      <point x="607.0" y="990.0"/>
      <point x="637.0" y="1017.5"/>
      <point x="737.5" y="1017.5" type="curve" smooth="yes"/>
      <point x="859.0" y="1017.5"/>
      <point x="1004.5" y="991.0"/>
      <point x="1121.0" y="952.5" type="curve"/>
      <point x="1080.5" y="1244.0" type="line"/>
      <point x="976.5" y="1281.5"/>
      <point x="844.5" y="1310.5"/>
      <point x="658.0" y="1310.5" type="curve" smooth="yes"/>
      <point x="359.0" y="1310.5"/>
      <point x="204.5" y="1189.0"/>
      <point x="204.5" y="991.0" type="curve" smooth="yes"/>
      <point x="204.5" y="982.0" type="line" smooth="yes"/>
      <point x="204.5" y="880.0"/>
      <point x="246.5" y="804.5"/>
      <point x="338.0" y="724.5" type="curve"/>
      <point x="411.5" y="650.0" type="line"/>
      <point x="881.5" y="266.0" type="line"/>
      <point x="951.5" y="198.5" type="line"/>
      <point x="991.0" y="159.5"/>
      <point x="1112.5" y="47.0"/>
    </contour>
    <contour>
      <point x="606.5" y="-35.0" type="curve" smooth="yes"/>
      <point x="842.5" y="-35.0"/>
      <point x="988.5" y="34.5"/>
      <point x="1117.5" y="151.5" type="curve"/>
      <point x="1225.5" y="249.5" type="line"/>
      <point x="1368.0" y="405.5"/>
      <point x="1443.5" y="576.0"/>
      <point x="1484.0" y="799.5" type="curve"/>
      <point x="1115.0" y="799.5" type="line"/>
      <point x="1097.0" y="665.0"/>
      <point x="1060.0" y="545.0"/>
      <point x="988.5" y="438.0" type="curve"/>
      <point x="897.5" y="341.5" type="line"/>
      <point x="835.0" y="291.5"/>
      <point x="755.5" y="259.0"/>
      <point x="652.5" y="259.0" type="curve" smooth="yes"/>
      <point x="505.5" y="259.0"/>
      <point x="433.5" y="322.0"/>
      <point x="433.5" y="425.0" type="curve" smooth="yes"/>
      <point x="433.5" y="434.5" type="line" smooth="yes"/>
      <point x="433.5" y="520.0"/>
      <point x="471.5" y="565.5"/>
      <point x="546.0" y="597.0" type="curve"/>
      <point x="336.5" y="802.5" type="line"/>
      <point x="146.0" y="712.0"/>
      <point x="65.0" y="584.0"/>
      <point x="65.0" y="401.0" type="curve" smooth="yes"/>
      <point x="65.0" y="388.5" type="line" smooth="yes"/>
      <point x="65.0" y="129.0"/>
      <point x="240.0" y="-35.0"/>
    </contour>
  </outline>
</glyph>
<glyph name="quotesingle" format="2">
  <advance width="482.5"/>
  <unicode hex="0027"/>
  <outline>
    <contour>
      <point x="381.5" y="774.5" type="line"/>
      <point x="422.0" y="1316.5" type="line"/>
      <point x="60.5" y="1316.5" type="line"/>
      <point x="97.5" y="774.5" type="line"/>
    </contour>
  </outline>
</glyph>
<glyph name="parenleft" format="2">
  <advance width="753.0"/>
  <unicode hex="0028"/>
  <outline>
    <contour>
      <point x="463.5" y="560.5" type="line" smooth="yes"/>
      <point x="463.5" y="862.5"/>
      <point x="554.5" y="1110.0"/>
      <point x="746.0" y="1350.0" type="curve"/>
      <point x="375.5" y="1350.0" type="line"/>
      <point x="198.0" y="1135.5"/>
      <point x="105.5" y="892.0"/>
      <point x="105.5" y="567.5" type="curve" smooth="yes"/>
      <point x="105.5" y="525.0" type="line" smooth="yes"/>
      <point x="105.5" y="199.5"/>
      <point x="193.0" y="-40.5"/>
      <point x="371.0" y="-258.5" type="curve"/>
      <point x="746.0" y="-258.5" type="line"/>
      <point x="554.0" y="-17.5"/>
      <point x="463.5" y="233.5"/>
      <point x="463.5" y="532.0" type="curve" smooth="yes"/>
    </contour>
  </outline>
</glyph>
<glyph name="parenright" format="2">
  <advance width="753.0"/>
  <unicode hex="0029"/>
  <outline>
    <contour>
      <point x="289.5" y="560.5" type="curve" smooth="yes"/>
      <point x="289.5" y="532.0" type="line" smooth="yes"/>
      <point x="289.5" y="233.5"/>
      <point x="199.0" y="-17.5"/>
      <point x="7.0" y="-258.5" type="curve"/>
      <point x="382.0" y="-258.5" type="line"/>
      <point x="560.0" y="-40.5"/>
      <point x="647.5" y="199.5"/>
      <point x="647.5" y="525.0" type="curve" smooth="yes"/>
      <point x="647.5" y="567.5" type="line" smooth="yes"/>
      <point x="647.5" y="892.0"/>
      <point x="555.0" y="1135.5"/>
      <point x="377.5" y="1350.0" type="curve"/>
      <point x="7.0" y="1350.0" type="line"/>
      <point x="198.5" y="1110.0"/>
      <point x="289.5" y="862.5"/>
    </contour>
  </outline>
</glyph>
<glyph name="asterisk" format="2">
  <advance width="877.0"/>
  <unicode hex="002A"/>
  <outline>
    <contour>
      <point x="308.0" y="533.5" type="line"/>
      <point x="435.0" y="736.5" type="line"/>
      <point x="442.0" y="736.5" type="line"/>
      <point x="570.5" y="533.5" type="line"/>
      <point x="796.5" y="694.0" type="line"/>
      <point x="623.0" y="850.5" type="line"/>
      <point x="624.5" y="857.5" type="line"/>
      <point x="847.0" y="886.0" type="line"/>
      <point x="778.0" y="1151.5" type="line"/>
      <point x="556.0" y="1051.5" type="line"/>
      <point x="551.5" y="1055.5" type="line"/>
      <point x="587.0" y="1278.0" type="line"/>
      <point x="290.0" y="1278.0" type="line"/>
      <point x="325.5" y="1055.5" type="line"/>
      <point x="320.5" y="1051.5" type="line"/>
      <point x="99.0" y="1151.5" type="line"/>
      <point x="30.0" y="886.0" type="line"/>
      <point x="253.0" y="857.5" type="line"/>
      <point x="254.5" y="850.5" type="line"/>
      <point x="80.5" y="694.0" type="line"/>
    </contour>
  </outline>
</glyph>
<glyph name="plus" format="2">
  <advance width="1175.0"/>
  <unicode hex="002B"/>
  <outline>
    <contour>
      <point x="744.0" y="126.5" type="line"/>
      <point x="744.0" y="1090.5" type="line"/>
      <point x="431.5" y="1090.5" type="line"/>
      <point x="431.5" y="126.5" type="line"/>
    </contour>
    <contour>
      <point x="99.5" y="463.0" type="line"/>
      <point x="1075.5" y="463.0" type="line"/>
      <point x="1075.5" y="754.0" type="line"/>
      <point x="99.5" y="754.0" type="line"/>
    </contour>
  </outline>
</glyph>
<glyph name="comma" format="2">
  <advance width="535.5"/>
  <unicode hex="002C"/>
  <outline>
    <contour>
      <point x="438.0" y="343.5" type="curve"/>
      <point x="95.0" y="343.5" type="line"/>
      <point x="99.0" y="295.0"/>
      <point x="101.0" y="256.0"/>
      <point x="101.0" y="208.5" type="curve" smooth="yes"/>
      <point x="101.0" y="49.0"/>
      <point x="69.5" y="-78.0"/>
      <point x="10.5" y="-194.0" type="curve"/>
      <point x="270.0" y="-248.5" type="line"/>
      <point x="396.5" y="-109.5"/>
      <point x="448.5" y="41.5"/>
      <point x="448.5" y="221.5" type="curve" smooth="yes"/>
      <point x="448.5" y="265.5"/>
      <point x="443.5" y="308.5"/>
    </contour>
  </outline>
</glyph>
<glyph name="hyphen" format="2">
  <advance width="818.5"/>
  <unicode hex="002D"/>
  <outline>
    <contour>
      <point x="86.5" y="367.5" type="line"/>
      <point x="732.0" y="367.5" type="line"/>
      <point x="732.0" y="658.5" type="line"/>
      <point x="86.5" y="658.5" type="line"/>
    </contour>
  </outline>
</glyph>
<glyph name="period" format="2">
  <advance width="560.5"/>
  <unicode hex="002E"/>
  <outline>
    <contour>
      <point x="280.5" y="-32.0" type="curve" smooth="yes"/>
      <point x="418.5" y="-32.0"/>
      <point x="483.0" y="39.5"/>
      <point x="483.0" y="157.0" type="curve" smooth="yes"/>
      <point x="483.0" y="165.0" type="line" smooth="yes"/>
      <point x="483.0" y="282.5"/>
      <point x="418.5" y="356.0"/>
      <point x="280.5" y="356.0" type="curve" smooth="yes"/>
      <point x="140.5" y="356.0"/>
      <point x="77.5" y="282.5"/>
      <point x="77.5" y="165.0" type="curve" smooth="yes"/>
      <point x="77.5" y="157.0" type="line" smooth="yes"/>
      <point x="77.5" y="39.5"/>
      <point x="140.5" y="-32.0"/>
    </contour>
  </outline>
</glyph>
<glyph name="slash" format="2">
  <advance width="1111.0"/>
  <unicode hex="002F"/>
  <outline>
    <contour>
      <point x="-36.0" y="-258.5" type="line"/>
      <point x="305.0" y="-258.5" type="line"/>
      <point x="1147.0" y="1350.0" type="line"/>
      <point x="807.0" y="1350.0" type="line"/>
    </contour>
  </outline>
</glyph>
<glyph name="zero" format="2">
  <advance width="1420.5"/>
  <unicode hex="0030"/>
  <outline>
    <contour>
      <point x="710.0" y="-37.0" type="curve" smooth="yes"/>
      <point x="1122.0" y="-37.0"/>
      <point x="1337.5" y="176.0"/>
      <point x="1337.5" y="580.5" type="curve"/>
      <point x="1337.5" y="698.0" type="line"/>
      <point x="1337.5" y="1099.5"/>
      <point x="1122.0" y="1313.5"/>
      <point x="710.0" y="1313.5" type="curve" smooth="yes"/>
      <point x="298.0" y="1313.5"/>
      <point x="83.0" y="1099.5"/>
      <point x="83.0" y="698.0" type="curve"/>
      <point x="83.0" y="580.5" type="line"/>
      <point x="83.0" y="176.0"/>
      <point x="299.5" y="-37.0"/>
    </contour>
    <contour>
      <point x="710.0" y="277.0" type="curve" smooth="yes"/>
      <point x="549.0" y="277.0"/>
      <point x="475.5" y="380.0"/>
      <point x="475.5" y="571.5" type="curve" smooth="yes"/>
      <point x="475.5" y="705.0" type="line" smooth="yes"/>
      <point x="475.5" y="895.5"/>
      <point x="546.5" y="999.5"/>
      <point x="710.0" y="999.5" type="curve" smooth="yes"/>
      <point x="873.5" y="999.5"/>
      <point x="945.0" y="897.0"/>
      <point x="945.0" y="705.0" type="curve" smooth="yes"/>
      <point x="945.0" y="571.5" type="line" smooth="yes"/>
      <point x="945.0" y="380.0"/>
      <point x="873.5" y="277.0"/>
    </contour>
  </outline>
</glyph>
<glyph name="one" format="2">
  <advance width="837.5"/>
  <unicode hex="0031"/>
  <outline>
    <contour>
      <point x="338.5" y="0.0" type="line"/>
      <point x="719.5" y="0.0" type="line"/>
      <point x="719.5" y="1278.0" type="line"/>
      <point x="381.5" y="1278.0" type="line"/>
      <point x="45.5" y="1152.5" type="line"/>
      <point x="36.0" y="809.5" type="line"/>
      <point x="324.5" y="914.5" type="line"/>
      <point x="338.5" y="914.5" type="line"/>
    </contour>
  </outline>
</glyph>
<glyph name="two" format="2">
  <advance width="1164.0"/>
  <unicode hex="0032"/>
  <outline>
    <contour>
      <point x="58.0" y="0.0" type="line"/>
      <point x="1101.5" y="0.0" type="line"/>
      <point x="1101.5" y="313.0" type="line"/>
      <point x="438.0" y="313.0" type="line"/>
      <point x="605.0" y="254.0" type="line"/>
      <point x="605.0" y="325.5" type="line"/>
      <point x="780.5" y="439.0" type="line" smooth="yes"/>
      <point x="1005.5" y="580.0"/>
      <point x="1087.0" y="697.5"/>
      <point x="1087.0" y="886.5" type="curve" smooth="yes"/>
      <point x="1087.0" y="900.5" type="line" smooth="yes"/>
      <point x="1087.0" y="1160.0"/>
      <point x="905.5" y="1309.0"/>
      <point x="560.0" y="1309.0" type="curve" smooth="yes"/>
      <point x="362.5" y="1309.0"/>
      <point x="210.5" y="1266.5"/>
      <point x="106.5" y="1217.0" type="curve"/>
      <point x="69.0" y="892.0" type="line"/>
      <point x="173.5" y="938.0"/>
      <point x="318.0" y="985.5"/>
      <point x="469.0" y="985.5" type="curve" smooth="yes"/>
      <point x="646.5" y="985.5"/>
      <point x="694.0" y="926.0"/>
      <point x="694.0" y="847.0" type="curve" smooth="yes"/>
      <point x="694.0" y="839.0" type="line" smooth="yes"/>
      <point x="694.0" y="744.5"/>
      <point x="614.0" y="680.0"/>
      <point x="415.0" y="558.0" type="curve" smooth="yes"/>
      <point x="58.0" y="332.5" type="line"/>
    </contour>
  </outline>
</glyph>
<glyph name="three" format="2">
  <advance width="1204.0"/>
  <unicode hex="0033"/>
  <outline>
    <contour>
      <point x="538.0" y="-31.5" type="curve" smooth="yes"/>
      <point x="947.0" y="-31.5"/>
      <point x="1142.5" y="110.5"/>
      <point x="1142.5" y="346.0" type="curve" smooth="yes"/>
      <point x="1142.5" y="365.0" type="line" smooth="yes"/>
      <point x="1142.5" y="539.5"/>
      <point x="1059.0" y="641.5"/>
      <point x="819.0" y="665.0" type="curve"/>
      <point x="844.5" y="626.5" type="line"/>
      <point x="844.5" y="675.5" type="line"/>
      <point x="1050.5" y="692.5"/>
      <point x="1133.5" y="780.5"/>
      <point x="1133.5" y="947.5" type="curve" smooth="yes"/>
      <point x="1133.5" y="963.0" type="line" smooth="yes"/>
      <point x="1133.5" y="1190.5"/>
      <point x="945.5" y="1309.5"/>
      <point x="570.0" y="1309.5" type="curve" smooth="yes"/>
      <point x="367.0" y="1309.5"/>
      <point x="215.5" y="1275.0"/>
      <point x="98.5" y="1231.0" type="curve"/>
      <point x="66.5" y="929.0" type="line"/>
      <point x="177.0" y="961.5"/>
      <point x="340.5" y="1001.5"/>
      <point x="509.0" y="1001.5" type="curve" smooth="yes"/>
      <point x="691.5" y="1001.5"/>
      <point x="742.5" y="972.5"/>
      <point x="742.5" y="903.0" type="curve" smooth="yes"/>
      <point x="742.5" y="898.5" type="line" smooth="yes"/>
      <point x="742.5" y="830.0"/>
      <point x="695.0" y="803.0"/>
      <point x="558.0" y="799.0" type="curve" smooth="yes"/>
      <point x="234.5" y="790.5" type="line"/>
      <point x="234.5" y="505.5" type="line"/>
      <point x="559.5" y="497.5" type="line" smooth="yes"/>
      <point x="698.0" y="494.0"/>
      <point x="745.0" y="467.5"/>
      <point x="745.0" y="398.0" type="curve" smooth="yes"/>
      <point x="745.0" y="391.0" type="line" smooth="yes"/>
      <point x="745.0" y="319.5"/>
      <point x="697.5" y="281.0"/>
      <point x="494.0" y="281.0" type="curve" smooth="yes"/>
      <point x="325.5" y="281.0"/>
      <point x="176.5" y="314.5"/>
      <point x="57.0" y="354.5" type="curve"/>
      <point x="89.0" y="36.5" type="line"/>
      <point x="187.5" y="4.0"/>
      <point x="346.5" y="-31.5"/>
    </contour>
  </outline>
</glyph>
<glyph name="four" format="2">
  <advance width="1338.0"/>
  <unicode hex="0034"/>
  <outline>
    <contour>
      <point x="783.5" y="0.0" type="line"/>
      <point x="1144.0" y="0.0" type="line"/>
      <point x="1144.0" y="1278.0" type="line"/>
      <point x="567.0" y="1278.0" type="line"/>
      <point x="57.0" y="556.0" type="line"/>
      <point x="57.0" y="208.5" type="line"/>
      <point x="1298.5" y="208.5" type="line"/>
      <point x="1298.5" y="509.0" type="line"/>
      <point x="296.0" y="509.0" type="line"/>
      <point x="432.5" y="368.0" type="line"/>
      <point x="432.5" y="528.0" type="line"/>
      <point x="764.5" y="1015.5" type="line"/>
      <point x="793.0" y="1015.5" type="line"/>
      <point x="783.5" y="710.0" type="line"/>
    </contour>
  </outline>
</glyph>
<glyph name="five" format="2">
  <advance width="1281.5"/>
  <unicode hex="0035"/>
  <outline>
    <contour>
      <point x="601.0" y="-32.5" type="curve" smooth="yes"/>
      <point x="1069.0" y="-32.5"/>
      <point x="1215.5" y="155.0"/>
      <point x="1215.5" y="423.0" type="curve" smooth="yes"/>
      <point x="1215.5" y="447.5" type="line" smooth="yes"/>
      <point x="1215.5" y="700.0"/>
      <point x="1091.0" y="846.0"/>
      <point x="827.5" y="846.0" type="curve" smooth="yes"/>
      <point x="616.0" y="846.0"/>
      <point x="509.0" y="764.0"/>
      <point x="463.0" y="645.5" type="curve"/>
      <point x="452.5" y="645.5" type="line"/>
      <point x="455.5" y="802.5" type="line"/>
      <point x="454.5" y="972.5" type="line"/>
      <point x="1163.0" y="972.5" type="line"/>
      <point x="1163.0" y="1278.0" type="line"/>
      <point x="103.5" y="1278.0" type="line"/>
      <point x="103.5" y="525.0" type="line"/>
      <point x="425.0" y="467.5" type="line"/>
      <point x="474.5" y="522.0"/>
      <point x="551.5" y="565.5"/>
      <point x="669.0" y="565.5" type="curve" smooth="yes"/>
      <point x="790.0" y="565.5"/>
      <point x="839.0" y="520.5"/>
      <point x="839.0" y="440.0" type="curve" smooth="yes"/>
      <point x="839.0" y="428.0" type="line" smooth="yes"/>
      <point x="839.0" y="345.0"/>
      <point x="791.0" y="282.0"/>
      <point x="571.5" y="282.0" type="curve" smooth="yes"/>
      <point x="388.5" y="282.0"/>
      <point x="207.5" y="332.0"/>
      <point x="97.0" y="376.0" type="curve"/>
      <point x="132.5" y="47.5" type="line"/>
      <point x="221.5" y="11.5"/>
      <point x="396.5" y="-32.5"/>
    </contour>
  </outline>
</glyph>
<glyph name="six" format="2">
  <advance width="1356.5"/>
  <unicode hex="0036"/>
  <outline>
    <contour>
      <point x="706.5" y="-36.0" type="curve" smooth="yes"/>
      <point x="1086.5" y="-36.0"/>
      <point x="1286.0" y="120.0"/>
      <point x="1286.0" y="408.5" type="curve" smooth="yes"/>
      <point x="1286.0" y="429.5" type="line" smooth="yes"/>
      <point x="1286.0" y="686.0"/>
      <point x="1139.5" y="830.5"/>
      <point x="861.5" y="830.5" type="curve" smooth="yes"/>
      <point x="628.5" y="830.5"/>
      <point x="508.5" y="738.5"/>
      <point x="468.0" y="606.0" type="curve"/>
      <point x="409.5" y="606.0" type="line"/>
      <point x="457.0" y="453.0" type="line"/>
      <point x="506.5" y="516.5"/>
      <point x="603.5" y="559.5"/>
      <point x="717.5" y="559.5" type="curve" smooth="yes"/>
      <point x="875.0" y="559.5"/>
      <point x="910.0" y="499.0"/>
      <point x="910.0" y="422.0" type="curve" smooth="yes"/>
      <point x="910.0" y="412.5" type="line" smooth="yes"/>
      <point x="910.0" y="325.5"/>
      <point x="851.5" y="274.0"/>
      <point x="716.0" y="274.0" type="curve" smooth="yes"/>
      <point x="539.0" y="274.0"/>
      <point x="458.0" y="361.0"/>
      <point x="458.0" y="550.0" type="curve"/>
      <point x="458.0" y="656.5" type="line" smooth="yes"/>
      <point x="458.0" y="896.0"/>
      <point x="574.5" y="999.5"/>
      <point x="834.0" y="999.5" type="curve" smooth="yes"/>
      <point x="989.0" y="999.5"/>
      <point x="1116.0" y="967.0"/>
      <point x="1226.5" y="923.5" type="curve"/>
      <point x="1187.0" y="1233.5" type="line"/>
      <point x="1079.5" y="1276.0"/>
      <point x="931.0" y="1308.5"/>
      <point x="750.5" y="1308.5" type="curve" smooth="yes"/>
      <point x="311.0" y="1308.5"/>
      <point x="76.0" y="1072.5"/>
      <point x="76.0" y="660.5" type="curve" smooth="yes"/>
      <point x="76.0" y="551.0" type="line" smooth="yes"/>
      <point x="76.0" y="174.5"/>
      <point x="303.0" y="-36.0"/>
    </contour>
  </outline>
</glyph>
<glyph name="seven" format="2">
  <advance width="1160.5"/>
  <unicode hex="0037"/>
  <outline>
    <contour>
      <point x="183.5" y="0.0" type="line"/>
      <point x="604.0" y="0.0" type="line"/>
      <point x="1100.0" y="960.5" type="line"/>
      <point x="1100.0" y="1278.0" type="line"/>
      <point x="52.0" y="1278.0" type="line"/>
      <point x="52.0" y="966.0" type="line"/>
      <point x="692.0" y="966.0" type="line"/>
    </contour>
  </outline>
</glyph>
<glyph name="eight" format="2">
  <advance width="1361.5"/>
  <unicode hex="0038"/>
  <outline>
    <contour>
      <point x="678.0" y="-43.5" type="curve" smooth="yes"/>
      <point x="1181.0" y="-43.5"/>
      <point x="1298.0" y="130.0"/>
      <point x="1298.0" y="334.0" type="curve" smooth="yes"/>
      <point x="1298.0" y="353.0" type="line" smooth="yes"/>
      <point x="1298.0" y="530.5"/>
      <point x="1195.5" y="633.5"/>
      <point x="986.5" y="666.5" type="curve"/>
      <point x="986.5" y="679.0" type="line"/>
      <point x="1177.0" y="701.5"/>
      <point x="1282.0" y="789.5"/>
      <point x="1282.0" y="950.5" type="curve" smooth="yes"/>
      <point x="1282.0" y="969.0" type="line" smooth="yes"/>
      <point x="1282.0" y="1180.0"/>
      <point x="1102.5" y="1313.0"/>
      <point x="678.0" y="1313.0" type="curve" smooth="yes"/>
      <point x="260.0" y="1313.0"/>
      <point x="79.5" y="1180.0"/>
      <point x="79.5" y="969.0" type="curve" smooth="yes"/>
      <point x="79.5" y="950.5" type="line" smooth="yes"/>
      <point x="79.5" y="791.5"/>
      <point x="184.0" y="701.0"/>
      <point x="373.0" y="679.0" type="curve"/>
      <point x="373.0" y="666.5" type="line"/>
      <point x="168.5" y="635.0"/>
      <point x="63.5" y="529.5"/>
      <point x="63.5" y="353.0" type="curve" smooth="yes"/>
      <point x="63.5" y="334.0" type="line" smooth="yes"/>
      <point x="63.5" y="113.0"/>
      <point x="205.5" y="-43.5"/>
    </contour>
    <contour>
      <point x="685.5" y="252.0" type="curve" smooth="yes"/>
      <point x="502.5" y="252.0"/>
      <point x="446.5" y="298.0"/>
      <point x="446.5" y="373.0" type="curve" smooth="yes"/>
      <point x="446.5" y="378.0" type="line" smooth="yes"/>
      <point x="446.5" y="444.5"/>
      <point x="495.5" y="491.5"/>
      <point x="665.5" y="517.5" type="curve"/>
      <point x="852.5" y="491.0"/>
      <point x="915.0" y="452.5"/>
      <point x="915.0" y="378.0" type="curve" smooth="yes"/>
      <point x="915.0" y="373.0" type="line" smooth="yes"/>
      <point x="915.0" y="301.5"/>
      <point x="863.5" y="252.0"/>
    </contour>
    <contour>
      <point x="694.0" y="781.0" type="curve"/>
      <point x="504.5" y="800.5"/>
      <point x="453.5" y="851.0"/>
      <point x="453.5" y="916.0" type="curve" smooth="yes"/>
      <point x="453.5" y="922.0" type="line" smooth="yes"/>
      <point x="453.5" y="989.5"/>
      <point x="515.5" y="1031.5"/>
      <point x="678.0" y="1031.5" type="curve" smooth="yes"/>
      <point x="847.5" y="1031.5"/>
      <point x="908.5" y="989.0"/>
      <point x="908.5" y="919.0" type="curve" smooth="yes"/>
      <point x="908.5" y="913.5" type="line" smooth="yes"/>
      <point x="908.5" y="847.5"/>
      <point x="843.0" y="799.0"/>
    </contour>
  </outline>
</glyph>
<glyph name="nine" format="2">
  <advance width="1356.5"/>
  <unicode hex="0039"/>
  <outline>
    <contour>
      <point x="658.0" y="1307.5" type="curve" smooth="yes"/>
      <point x="277.5" y="1307.5"/>
      <point x="70.5" y="1148.0"/>
      <point x="70.5" y="860.5" type="curve" smooth="yes"/>
      <point x="70.5" y="828.0" type="line" smooth="yes"/>
      <point x="70.5" y="585.5"/>
      <point x="226.5" y="440.5"/>
      <point x="499.5" y="440.5" type="curve" smooth="yes"/>
      <point x="728.0" y="440.5"/>
      <point x="849.5" y="523.0"/>
      <point x="891.5" y="661.5" type="curve"/>
      <point x="979.0" y="661.5" type="line"/>
      <point x="902.0" y="812.0" type="line"/>
      <point x="847.5" y="747.5"/>
      <point x="751.5" y="711.5"/>
      <point x="651.0" y="711.5" type="curve" smooth="yes"/>
      <point x="511.5" y="711.5"/>
      <point x="449.0" y="759.0"/>
      <point x="449.0" y="849.5" type="curve" smooth="yes"/>
      <point x="449.0" y="857.5" type="line" smooth="yes"/>
      <point x="449.0" y="943.0"/>
      <point x="513.5" y="997.5"/>
      <point x="652.5" y="997.5" type="curve" smooth="yes"/>
      <point x="825.5" y="997.5"/>
      <point x="901.0" y="915.0"/>
      <point x="901.0" y="714.5" type="curve"/>
      <point x="901.0" y="594.5" type="line" smooth="yes"/>
      <point x="901.0" y="368.5"/>
      <point x="780.0" y="274.5"/>
      <point x="494.5" y="274.5" type="curve" smooth="yes"/>
      <point x="357.0" y="274.5"/>
      <point x="234.0" y="306.5"/>
      <point x="137.5" y="347.5" type="curve"/>
      <point x="177.0" y="25.0" type="line"/>
      <point x="266.5" y="-10.0"/>
      <point x="401.5" y="-36.5"/>
      <point x="569.0" y="-36.5" type="curve" smooth="yes"/>
      <point x="1033.0" y="-36.5"/>
      <point x="1280.5" y="187.5"/>
      <point x="1280.5" y="580.0" type="curve" smooth="yes"/>
      <point x="1280.5" y="693.0" type="line" smooth="yes"/>
      <point x="1280.5" y="1092.0"/>
      <point x="1071.0" y="1307.5"/>
    </contour>
  </outline>
</glyph>
<glyph name="less" format="2">
  <advance width="1175.0"/>
  <unicode hex="003C"/>
  <outline>
    <contour>
      <point x="343.0" y="614.5" type="line"/>
      <point x="1075.0" y="724.5" type="line"/>
      <point x="1075.0" y="1037.5" type="line"/>
      <point x="99.5" y="841.0" type="line"/>
      <point x="99.5" y="364.5" type="line"/>
      <point x="1075.0" y="166.0" type="line"/>
      <point x="1075.0" y="480.0" type="line"/>
      <point x="343.0" y="593.0" type="line"/>
    </contour>
  </outline>
</glyph>
<glyph name="equal" format="2">
  <advance width="1190.5"/>
  <unicode hex="003D"/>
  <outline>
    <contour>
      <point x="107.5" y="246.5" type="line"/>
      <point x="1083.0" y="246.5" type="line"/>
      <point x="1083.0" y="534.5" type="line"/>
      <point x="107.5" y="534.5" type="line"/>
    </contour>
    <contour>
      <point x="107.5" y="684.0" type="line"/>
      <point x="1083.0" y="684.0" type="line"/>
      <point x="1083.0" y="972.0" type="line"/>
      <point x="107.5" y="972.0" type="line"/>
    </contour>
  </outline>
</glyph>
<glyph name="greater" format="2">
  <advance width="1175.0"/>
  <unicode hex="003E"/>
  <outline>
    <contour>
      <point x="832.0" y="614.5" type="line"/>
      <point x="832.0" y="593.0" type="line"/>
      <point x="100.0" y="480.0" type="line"/>
      <point x="100.0" y="166.0" type="line"/>
      <point x="1075.5" y="364.5" type="line"/>
      <point x="1075.5" y="841.0" type="line"/>
      <point x="100.0" y="1037.5" type="line"/>
      <point x="100.0" y="724.5" type="line"/>
    </contour>
  </outline>
</glyph>
<glyph name="question" format="2">
  <advance width="1102.0"/>
  <unicode hex="003F"/>
  <outline>
    <contour>
      <point x="278.0" y="420.5" type="line"/>
      <point x="447.0" y="435.5" type="line" smooth="yes"/>
      <point x="829.0" y="469.0"/>
      <point x="1043.0" y="587.0"/>
      <point x="1043.0" y="886.0" type="curve" smooth="yes"/>
      <point x="1043.0" y="905.0" type="line" smooth="yes"/>
      <point x="1043.0" y="1173.0"/>
      <point x="860.0" y="1309.0"/>
      <point x="505.0" y="1309.0" type="curve" smooth="yes"/>
      <point x="322.0" y="1309.0"/>
      <point x="161.0" y="1268.5"/>
      <point x="70.5" y="1233.0" type="curve"/>
      <point x="28.5" y="923.5" type="line"/>
      <point x="168.0" y="968.0"/>
      <point x="309.0" y="997.0"/>
      <point x="442.5" y="997.0" type="curve" smooth="yes"/>
      <point x="606.5" y="997.0"/>
      <point x="655.0" y="961.0"/>
      <point x="655.0" y="883.0" type="curve" smooth="yes"/>
      <point x="655.0" y="876.5" type="line" smooth="yes"/>
      <point x="655.0" y="801.5"/>
      <point x="602.0" y="756.5"/>
      <point x="410.5" y="737.0" type="curve" smooth="yes"/>
      <point x="278.0" y="724.0" type="line"/>
    </contour>
    <contour>
      <point x="433.0" y="-32.5" type="curve" smooth="yes"/>
      <point x="570.5" y="-32.5"/>
      <point x="634.5" y="37.0"/>
      <point x="634.5" y="151.0" type="curve" smooth="yes"/>
      <point x="634.5" y="159.0" type="line" smooth="yes"/>
      <point x="634.5" y="273.0"/>
      <point x="570.5" y="344.0"/>
      <point x="433.0" y="344.0" type="curve" smooth="yes"/>
      <point x="294.5" y="344.0"/>
      <point x="232.0" y="273.0"/>
      <point x="232.0" y="159.0" type="curve" smooth="yes"/>
      <point x="232.0" y="151.0" type="line" smooth="yes"/>
      <point x="232.0" y="37.0"/>
      <point x="294.5" y="-32.5"/>
    </contour>
  </outline>
</glyph>
<glyph name="at" format="2">
  <advance width="1902.5"/>
  <unicode hex="0040"/>
  <outline>
    <contour>
      <point x="784.0" y="58.5" type="curve" smooth="yes"/>
      <point x="946.0" y="58.5"/>
      <point x="1013.0" y="147.5"/>
      <point x="1045.5" y="266.5" type="curve"/>
      <point x="1133.5" y="266.5" type="line"/>
      <point x="1067.5" y="411.5" type="line"/>
      <point x="1041.5" y="354.5"/>
      <point x="995.0" y="327.5"/>
      <point x="942.0" y="327.5" type="curve" smooth="yes"/>
      <point x="888.0" y="327.5"/>
      <point x="857.5" y="360.0"/>
      <point x="857.5" y="419.5" type="curve" smooth="yes"/>
      <point x="857.5" y="434.0"/>
      <point x="858.0" y="450.0"/>
      <point x="864.0" y="500.0" type="curve" smooth="yes"/>
      <point x="869.0" y="586.5"/>
      <point x="899.0" y="649.0"/>
      <point x="977.0" y="649.0" type="curve" smooth="yes"/>
      <point x="1053.5" y="649.0"/>
      <point x="1077.0" y="606.5"/>
      <point x="1076.0" y="545.5" type="curve" smooth="yes"/>
      <point x="1076.0" y="538.0"/>
      <point x="1076.0" y="528.5"/>
      <point x="1075.0" y="519.0" type="curve"/>
      <point x="1174.0" y="702.5" type="line"/>
      <point x="1083.5" y="702.5" type="line"/>
      <point x="1069.0" y="828.5"/>
      <point x="1017.5" y="908.5"/>
      <point x="865.0" y="908.5" type="curve" smooth="yes"/>
      <point x="640.0" y="908.5"/>
      <point x="541.5" y="715.0"/>
      <point x="528.0" y="458.0" type="curve" smooth="yes"/>
      <point x="522.5" y="408.0"/>
      <point x="521.0" y="383.0"/>
      <point x="521.0" y="367.0" type="curve" smooth="yes"/>
      <point x="521.0" y="164.0"/>
      <point x="621.0" y="58.5"/>
    </contour>
    <contour>
      <point x="1037.0" y="68.0" type="line"/>
      <point x="1353.5" y="131.0" type="line"/>
      <point x="1426.5" y="885.0" type="line"/>
      <point x="1109.0" y="885.0" type="line"/>
      <point x="1108.5" y="877.5" type="line"/>
      <point x="1091.0" y="677.5" type="line"/>
      <point x="1087.5" y="637.0" type="line"/>
      <point x="1055.0" y="349.5" type="line"/>
      <point x="1059.5" y="303.5" type="line"/>
    </contour>
    <contour>
      <point x="1282.0" y="317.0" type="curve"/>
      <point x="1037.0" y="68.0" type="line"/>
      <point x="1096.5" y="61.0"/>
      <point x="1153.0" y="61.0"/>
      <point x="1204.5" y="62.0" type="curve" smooth="yes"/>
      <point x="1624.0" y="64.5"/>
      <point x="1822.5" y="209.0"/>
      <point x="1840.0" y="556.5" type="curve" smooth="yes"/>
      <point x="1846.0" y="611.0"/>
      <point x="1848.5" y="654.0"/>
      <point x="1849.5" y="684.0" type="curve" smooth="yes"/>
      <point x="1856.0" y="1110.5"/>
      <point x="1554.0" y="1352.5"/>
      <point x="1026.5" y="1352.5" type="curve" smooth="yes"/>
      <point x="446.5" y="1352.5"/>
      <point x="107.5" y="1052.5"/>
      <point x="78.5" y="536.5" type="curve" smooth="yes"/>
      <point x="70.5" y="473.0"/>
      <point x="65.0" y="400.5"/>
      <point x="63.5" y="367.5" type="curve" smooth="yes"/>
      <point x="51.5" y="-126.0"/>
      <point x="363.5" y="-361.5"/>
      <point x="930.5" y="-361.5" type="curve" smooth="yes"/>
      <point x="1217.0" y="-361.5"/>
      <point x="1393.5" y="-317.0"/>
      <point x="1576.0" y="-258.5" type="curve"/>
      <point x="1632.5" y="-5.0" type="line"/>
      <point x="1441.0" y="-75.5"/>
      <point x="1247.5" y="-127.0"/>
      <point x="948.5" y="-127.0" type="curve" smooth="yes"/>
      <point x="549.5" y="-127.0"/>
      <point x="342.5" y="31.5"/>
      <point x="352.5" y="378.0" type="curve" smooth="yes"/>
      <point x="354.0" y="405.5"/>
      <point x="357.5" y="469.5"/>
      <point x="370.5" y="539.5" type="curve" smooth="yes"/>
      <point x="394.0" y="882.5"/>
      <point x="594.0" y="1119.0"/>
      <point x="1011.0" y="1119.0" type="curve" smooth="yes"/>
      <point x="1389.5" y="1119.0"/>
      <point x="1566.5" y="958.0"/>
      <point x="1562.0" y="684.5" type="curve" smooth="yes"/>
      <point x="1561.0" y="659.0"/>
      <point x="1558.0" y="622.5"/>
      <point x="1551.0" y="564.0" type="curve" smooth="yes"/>
      <point x="1542.5" y="397.0"/>
      <point x="1473.0" y="310.0"/>
      <point x="1361.0" y="310.0" type="curve" smooth="yes"/>
      <point x="1323.0" y="310.0"/>
      <point x="1307.5" y="311.0"/>
    </contour>
  </outline>
</glyph>
<glyph name="A" format="2">
  <advance width="1480.5"/>
  <unicode hex="0041"/>
  <anchor x="740.5" y="0.0" name="bottom"/>
  <anchor x="1494.0" y="5.0" name="ogonek"/>
  <anchor x="740.5" y="1278.0" name="top"/>
  <outline>
    <contour>
      <point x="13.5" y="0.0" type="line"/>
      <point x="406.0" y="0.0" type="line"/>
      <point x="730.0" y="1035.0" type="line"/>
      <point x="756.0" y="1035.0" type="line"/>
      <point x="1074.5" y="0.0" type="line"/>
      <point x="1467.0" y="0.0" type="line"/>
      <point x="1024.5" y="1278.0" type="line"/>
      <point x="461.5" y="1278.0" type="line"/>
    </contour>
    <contour>
      <point x="400.5" y="275.5" type="line"/>
      <point x="1078.5" y="275.5" type="line"/>
      <point x="1078.5" y="566.5" type="line"/>
      <point x="400.5" y="566.5" type="line"/>
    </contour>
  </outline>
</glyph>
<glyph name="B" format="2">
  <advance width="1426.0"/>
  <unicode hex="0042"/>
  <anchor x="713.0" y="0.0" name="bottom"/>
  <anchor x="713.0" y="1278.0" name="top"/>
  <outline>
    <contour>
      <point x="396.0" y="0.0" type="line"/>
      <point x="872.0" y="0.0" type="line" smooth="yes"/>
      <point x="1211.0" y="0.0"/>
      <point x="1362.0" y="126.0"/>
      <point x="1362.0" y="373.5" type="curve" smooth="yes"/>
      <point x="1362.0" y="391.5" type="line" smooth="yes"/>
      <point x="1362.0" y="584.0"/>
      <point x="1257.0" y="692.5"/>
      <point x="1053.0" y="711.0" type="curve"/>
      <point x="1053.0" y="723.0" type="line"/>
      <point x="1241.5" y="728.0"/>
      <point x="1330.0" y="812.0"/>
      <point x="1330.0" y="962.5" type="curve" smooth="yes"/>
      <point x="1330.0" y="974.5" type="line" smooth="yes"/>
      <point x="1330.0" y="1178.5"/>
      <point x="1193.5" y="1278.0"/>
      <point x="848.5" y="1278.0" type="curve" smooth="yes"/>
      <point x="392.5" y="1278.0" type="line"/>
      <point x="392.5" y="996.0" type="line"/>
      <point x="813.0" y="996.0" type="line" smooth="yes"/>
      <point x="910.5" y="996.0"/>
      <point x="948.0" y="961.5"/>
      <point x="948.0" y="893.0" type="curve" smooth="yes"/>
      <point x="948.0" y="885.5" type="line" smooth="yes"/>
      <point x="948.0" y="817.5"/>
      <point x="910.5" y="781.5"/>
      <point x="813.0" y="781.5" type="curve" smooth="yes"/>
      <point x="392.5" y="781.5" type="line"/>
      <point x="392.5" y="519.0" type="line"/>
      <point x="827.5" y="519.0" type="line" smooth="yes"/>
      <point x="928.5" y="519.0"/>
      <point x="970.5" y="484.0"/>
      <point x="970.5" y="410.5" type="curve" smooth="yes"/>
      <point x="970.5" y="401.0" type="line" smooth="yes"/>
      <point x="970.5" y="327.5"/>
      <point x="928.5" y="292.5"/>
      <point x="827.5" y="292.5" type="curve" smooth="yes"/>
      <point x="396.0" y="292.5" type="line"/>
    </contour>
    <contour>
      <point x="119.0" y="0.0" type="line"/>
      <point x="486.5" y="0.0" type="line"/>
      <point x="486.5" y="1278.0" type="line"/>
      <point x="119.0" y="1278.0" type="line"/>
    </contour>
  </outline>
</glyph>
<glyph name="C" format="2">
  <advance width="1256.0"/>
  <unicode hex="0043"/>
  <anchor x="683.0" y="0.0" name="bottom"/>
  <anchor x="683.0" y="1278.0" name="top"/>
  <outline>
    <contour>
      <point x="746.0" y="-37.0" type="curve" smooth="yes"/>
      <point x="919.5" y="-37.0"/>
      <point x="1058.0" y="2.0"/>
      <point x="1156.5" y="54.5" type="curve"/>
      <point x="1186.5" y="379.0" type="line"/>
      <point x="1084.5" y="333.5"/>
      <point x="970.0" y="294.5"/>
      <point x="827.5" y="294.5" type="curve" smooth="yes"/>
      <point x="575.5" y="294.5"/>
      <point x="474.0" y="409.0"/>
      <point x="474.0" y="597.0" type="curve" smooth="yes"/>
      <point x="474.0" y="690.5" type="line" smooth="yes"/>
      <point x="474.0" y="876.5"/>
      <point x="577.5" y="990.5"/>
      <point x="809.5" y="990.5" type="curve" smooth="yes"/>
      <point x="959.5" y="990.5"/>
      <point x="1073.5" y="952.0"/>
      <point x="1175.5" y="907.0" type="curve"/>
      <point x="1145.5" y="1225.0" type="line"/>
      <point x="1044.0" y="1278.5"/>
      <point x="910.0" y="1314.5"/>
      <point x="739.5" y="1314.5" type="curve" smooth="yes"/>
      <point x="295.5" y="1314.5"/>
      <point x="75.0" y="1086.5"/>
      <point x="75.0" y="697.5" type="curve" smooth="yes"/>
      <point x="75.0" y="588.5" type="line" smooth="yes"/>
      <point x="75.0" y="191.0"/>
      <point x="296.0" y="-37.0"/>
    </contour>
  </outline>
</glyph>
<glyph name="D" format="2">
  <advance width="1459.5"/>
  <unicode hex="0044"/>
  <anchor x="707.0" y="0.0" name="bottom"/>
  <anchor x="730.0" y="639.0" name="center"/>
  <anchor x="707.0" y="1278.0" name="top"/>
  <outline>
    <contour>
      <point x="396.5" y="0.0" type="line"/>
      <point x="745.5" y="0.0" type="line" smooth="yes"/>
      <point x="1172.0" y="0.0"/>
      <point x="1387.5" y="204.5"/>
      <point x="1387.5" y="575.0" type="curve" smooth="yes"/>
      <point x="1387.5" y="707.5" type="line" smooth="yes"/>
      <point x="1387.5" y="1075.0"/>
      <point x="1171.0" y="1278.0"/>
      <point x="745.5" y="1278.0" type="curve" smooth="yes"/>
      <point x="396.5" y="1278.0" type="line"/>
      <point x="396.5" y="964.5" type="line"/>
      <point x="734.5" y="964.5" type="line" smooth="yes"/>
      <point x="909.0" y="964.5"/>
      <point x="996.0" y="869.0"/>
      <point x="996.0" y="706.5" type="curve" smooth="yes"/>
      <point x="996.0" y="575.0" type="line" smooth="yes"/>
      <point x="996.0" y="412.0"/>
      <point x="909.0" y="315.0"/>
      <point x="734.5" y="315.0" type="curve" smooth="yes"/>
      <point x="396.5" y="315.0" type="line"/>
    </contour>
    <contour>
      <point x="119.0" y="0.0" type="line"/>
      <point x="499.0" y="0.0" type="line"/>
      <point x="499.0" y="1278.0" type="line"/>
      <point x="119.0" y="1278.0" type="line"/>
    </contour>
  </outline>
</glyph>
<glyph name="E" format="2">
  <advance width="1296.0"/>
  <unicode hex="0045"/>
  <anchor x="668.0" y="0.0" name="bottom"/>
  <anchor x="1199.5" y="5.0" name="ogonek"/>
  <anchor x="668.0" y="1278.0" name="top"/>
  <anchor x="20.0" y="1278.0" name="topleft"/>
  <outline>
    <contour>
      <point x="119.0" y="0.0" type="line"/>
      <point x="494.0" y="0.0" type="line"/>
      <point x="494.0" y="1278.0" type="line"/>
      <point x="119.0" y="1278.0" type="line"/>
    </contour>
    <contour>
      <point x="171.5" y="0.0" type="line"/>
      <point x="1208.0" y="0.0" type="line"/>
      <point x="1208.0" y="305.5" type="line"/>
      <point x="171.5" y="305.5" type="line"/>
    </contour>
    <contour>
      <point x="326.0" y="501.5" type="line"/>
      <point x="1176.0" y="501.5" type="line"/>
      <point x="1176.0" y="791.5" type="line"/>
      <point x="326.0" y="791.5" type="line"/>
    </contour>
    <contour>
      <point x="171.5" y="974.0" type="line"/>
      <point x="1194.5" y="974.0" type="line"/>
      <point x="1194.5" y="1278.0" type="line"/>
      <point x="171.5" y="1278.0" type="line"/>
    </contour>
  </outline>
</glyph>
<glyph name="F" format="2">
  <advance width="1238.5"/>
  <unicode hex="0046"/>
  <anchor x="620.0" y="0.0" name="bottom"/>
  <anchor x="620.0" y="1278.0" name="top"/>
  <outline>
    <contour>
      <point x="119.0" y="0.0" type="line"/>
      <point x="497.5" y="0.0" type="line"/>
      <point x="497.5" y="1278.0" type="line"/>
      <point x="119.0" y="1278.0" type="line"/>
    </contour>
    <contour>
      <point x="326.0" y="404.0" type="line"/>
      <point x="1144.5" y="404.0" type="line"/>
      <point x="1144.5" y="717.0" type="line"/>
      <point x="326.0" y="717.0" type="line"/>
    </contour>
    <contour>
      <point x="171.5" y="964.5" type="line"/>
      <point x="1163.5" y="964.5" type="line"/>
      <point x="1163.5" y="1278.0" type="line"/>
      <point x="171.5" y="1278.0" type="line"/>
    </contour>
  </outline>
</glyph>
<glyph name="G" format="2">
  <advance width="1485.0"/>
  <unicode hex="0047"/>
  <anchor x="743.5" y="0.0" name="bottom"/>
  <anchor x="743.5" y="1278.0" name="top"/>
  <outline>
    <contour>
      <point x="626.5" y="-37.0" type="curve" smooth="yes"/>
      <point x="889.5" y="-37.0"/>
      <point x="982.0" y="68.0"/>
      <point x="1017.5" y="224.5" type="curve"/>
      <point x="1374.0" y="224.5" type="line"/>
      <point x="1374.0" y="759.5" type="line"/>
      <point x="763.0" y="759.5" type="line"/>
      <point x="763.0" y="480.0" type="line"/>
      <point x="1068.0" y="483.0" type="line"/>
      <point x="1023.5" y="575.5" type="line"/>
      <point x="1023.5" y="382.5" type="line"/>
      <point x="979.0" y="327.5"/>
      <point x="903.0" y="281.5"/>
      <point x="772.5" y="281.5" type="curve" smooth="yes"/>
      <point x="564.5" y="281.5"/>
      <point x="470.5" y="391.5"/>
      <point x="470.5" y="571.0" type="curve" smooth="yes"/>
      <point x="470.5" y="668.0" type="line" smooth="yes"/>
      <point x="470.5" y="890.5"/>
      <point x="592.0" y="996.5"/>
      <point x="868.0" y="996.5" type="curve" smooth="yes"/>
      <point x="1060.5" y="996.5"/>
      <point x="1204.0" y="956.0"/>
      <point x="1335.0" y="910.0" type="curve"/>
      <point x="1301.5" y="1221.5" type="line"/>
      <point x="1177.5" y="1276.5"/>
      <point x="1009.0" y="1314.5"/>
      <point x="801.0" y="1314.5" type="curve" smooth="yes"/>
      <point x="323.0" y="1314.5"/>
      <point x="75.0" y="1086.0"/>
      <point x="75.0" y="677.5" type="curve" smooth="yes"/>
      <point x="75.0" y="570.5" type="line" smooth="yes"/>
      <point x="75.0" y="186.0"/>
      <point x="279.5" y="-37.0"/>
    </contour>
    <contour>
      <point x="1031.0" y="286.0" type="line"/>
      <point x="1020.0" y="0.0" type="line"/>
      <point x="1374.0" y="0.0" type="line"/>
      <point x="1374.0" y="286.0" type="line"/>
    </contour>
  </outline>
</glyph>
<glyph name="H" format="2">
  <advance width="1523.5"/>
  <unicode hex="0048"/>
  <anchor x="762.0" y="0.0" name="bottom"/>
  <anchor x="762.0" y="639.0" name="center"/>
  <anchor x="762.0" y="1278.0" name="top"/>
  <anchor x="20.0" y="1278.0" name="topleft"/>
  <outline>
    <contour>
      <point x="503.5" y="0.0" type="line"/>
      <point x="503.5" y="1278.0" type="line"/>
      <point x="119.0" y="1278.0" type="line"/>
      <point x="119.0" y="0.0" type="line"/>
    </contour>
    <contour>
      <point x="1404.5" y="0.0" type="line"/>
      <point x="1404.5" y="1278.0" type="line"/>
      <point x="1020.0" y="1278.0" type="line"/>
      <point x="1020.0" y="0.0" type="line"/>
    </contour>
    <contour>
      <point x="327.0" y="810.5" type="line"/>
      <point x="327.0" y="495.5" type="line"/>
      <point x="1174.5" y="495.5" type="line"/>
      <point x="1174.5" y="810.5" type="line"/>
    </contour>
  </outline>
</glyph>
<glyph name="I" format="2">
  <advance width="622.5"/>
  <unicode hex="0049"/>
  <anchor x="311.5" y="0.0" name="bottom"/>
  <anchor x="534.5" y="5.0" name="ogonek"/>
  <anchor x="312.0" y="1278.0" name="top"/>
  <anchor x="20.0" y="1278.0" name="topleft"/>
  <outline>
    <contour>
      <point x="503.5" y="0.0" type="line"/>
      <point x="503.5" y="1278.0" type="line"/>
      <point x="119.0" y="1278.0" type="line"/>
      <point x="119.0" y="0.0" type="line"/>
    </contour>
  </outline>
</glyph>
<glyph name="J" format="2">
  <advance width="959.5"/>
  <unicode hex="004A"/>
  <anchor x="483.0" y="0.0" name="bottom"/>
  <anchor x="654.0" y="1278.0" name="top"/>
  <outline>
    <contour>
      <point x="344.5" y="-22.0" type="curve" smooth="yes"/>
      <point x="703.5" y="-22.0"/>
      <point x="849.5" y="145.5"/>
      <point x="849.5" y="481.5" type="curve" smooth="yes"/>
      <point x="849.5" y="1278.0" type="line"/>
      <point x="465.0" y="1278.0" type="line"/>
      <point x="465.0" y="513.0" type="line" smooth="yes"/>
      <point x="465.0" y="367.5"/>
      <point x="422.5" y="304.0"/>
      <point x="259.5" y="304.0" type="curve" smooth="yes"/>
      <point x="184.0" y="304.0"/>
      <point x="113.5" y="318.5"/>
      <point x="40.0" y="340.5" type="curve"/>
      <point x="70.0" y="20.5" type="line"/>
      <point x="149.5" y="-7.5"/>
      <point x="251.0" y="-22.0"/>
    </contour>
  </outline>
</glyph>
<glyph name="K" format="2">
  <advance width="1403.0"/>
  <unicode hex="004B"/>
  <anchor x="707.5" y="0.0" name="bottom"/>
  <anchor x="707.5" y="1278.0" name="top"/>
  <outline>
    <contour>
      <point x="947.0" y="0.0" type="line"/>
      <point x="1409.5" y="0.0" type="line"/>
      <point x="849.0" y="709.0" type="line"/>
      <point x="849.0" y="628.0" type="line"/>
      <point x="1395.0" y="1278.0" type="line"/>
      <point x="945.5" y="1278.0" type="line"/>
      <point x="516.0" y="753.0" type="line"/>
      <point x="467.0" y="753.0" type="line"/>
      <point x="467.0" y="555.0" type="line"/>
      <point x="516.0" y="555.0" type="line"/>
    </contour>
    <contour>
      <point x="119.0" y="0.0" type="line"/>
      <point x="501.5" y="0.0" type="line"/>
      <point x="501.5" y="1278.0" type="line"/>
      <point x="119.0" y="1278.0" type="line"/>
    </contour>
  </outline>
</glyph>
<glyph name="L" format="2">
  <advance width="1190.5"/>
  <unicode hex="004C"/>
  <anchor x="621.5" y="0.0" name="bottom"/>
  <anchor x="566.0" y="639.0" name="center"/>
  <anchor x="311.5" y="1278.0" name="top"/>
  <anchor x="742.5" y="1278.0" name="topright"/>
  <outline>
    <contour>
      <point x="503.5" y="0.0" type="line"/>
      <point x="503.5" y="1278.0" type="line"/>
      <point x="119.0" y="1278.0" type="line"/>
      <point x="119.0" y="0.0" type="line"/>
    </contour>
    <contour>
      <point x="326.0" y="313.0" type="line"/>
      <point x="326.0" y="0.0" type="line"/>
      <point x="1133.5" y="0.0" type="line"/>
      <point x="1133.5" y="313.0" type="line"/>
    </contour>
  </outline>
</glyph>
<glyph name="M" format="2">
  <advance width="1822.0"/>
  <unicode hex="004D"/>
  <anchor x="911.0" y="0.0" name="bottom"/>
  <anchor x="911.0" y="1278.0" name="top"/>
  <outline>
    <contour>
      <point x="103.5" y="0.0" type="line"/>
      <point x="477.0" y="0.0" type="line"/>
      <point x="487.5" y="423.0" type="line"/>
      <point x="497.5" y="866.0" type="line"/>
      <point x="516.5" y="866.0" type="line"/>
      <point x="737.0" y="152.5" type="line"/>
      <point x="1085.5" y="152.5" type="line"/>
      <point x="1304.0" y="866.0" type="line"/>
      <point x="1322.0" y="866.0" type="line"/>
      <point x="1333.0" y="423.5" type="line"/>
      <point x="1345.0" y="0.0" type="line"/>
      <point x="1718.5" y="0.0" type="line"/>
      <point x="1666.0" y="1278.0" type="line"/>
      <point x="1138.0" y="1278.0" type="line"/>
      <point x="919.5" y="555.0" type="line"/>
      <point x="902.0" y="555.0" type="line"/>
      <point x="685.0" y="1278.0" type="line"/>
      <point x="156.0" y="1278.0" type="line"/>
    </contour>
  </outline>
</glyph>
<glyph name="N" format="2">
  <advance width="1523.5"/>
  <unicode hex="004E"/>
  <anchor x="764.5" y="0.0" name="bottom"/>
  <anchor x="764.5" y="1278.0" name="top"/>
  <outline>
    <contour>
      <point x="643.0" y="1278.5" type="line"/>
      <point x="119.0" y="1278.5" type="line"/>
      <point x="119.0" y="0.0" type="line"/>
      <point x="490.0" y="0.0" type="line"/>
      <point x="490.0" y="409.0" type="line"/>
      <point x="476.5" y="901.5" type="line"/>
      <point x="492.5" y="901.5" type="line"/>
      <point x="900.5" y="0.0" type="line"/>
      <point x="1404.5" y="0.0" type="line"/>
      <point x="1404.5" y="1278.5" type="line"/>
      <point x="1034.0" y="1278.5" type="line"/>
      <point x="1034.0" y="896.0" type="line"/>
      <point x="1047.5" y="407.5" type="line"/>
      <point x="1031.5" y="407.5" type="line"/>
    </contour>
  </outline>
</glyph>
<glyph name="O" format="2">
  <advance width="1514.0"/>
  <unicode hex="004F"/>
  <anchor x="757.0" y="0.0" name="bottom"/>
  <anchor x="757.0" y="639.0" name="center"/>
  <anchor x="1166.5" y="7.5" name="ogonek"/>
  <anchor x="757.0" y="1278.0" name="top"/>
  <anchor x="12.5" y="1278.0" name="topleft"/>
  <anchor x="1412.0" y="1278.0" name="topright"/>
  <outline>
    <contour>
      <point x="757.0" y="-39.0" type="curve" smooth="yes"/>
      <point x="1208.5" y="-39.0"/>
      <point x="1439.0" y="182.0"/>
      <point x="1439.0" y="575.0" type="curve" smooth="yes"/>
      <point x="1439.0" y="695.0" type="line" smooth="yes"/>
      <point x="1439.0" y="1089.0"/>
      <point x="1207.0" y="1315.0"/>
      <point x="757.0" y="1315.0" type="curve" smooth="yes"/>
      <point x="307.0" y="1315.0"/>
      <point x="75.0" y="1089.0"/>
      <point x="75.0" y="695.0" type="curve" smooth="yes"/>
      <point x="75.0" y="575.0" type="line" smooth="yes"/>
      <point x="75.0" y="182.0"/>
      <point x="305.5" y="-39.0"/>
    </contour>
    <contour>
      <point x="757.0" y="274.0" type="curve" smooth="yes"/>
      <point x="566.0" y="274.0"/>
      <point x="470.5" y="382.0"/>
      <point x="470.5" y="565.5" type="curve" smooth="yes"/>
      <point x="470.5" y="705.0" type="line" smooth="yes"/>
      <point x="470.5" y="893.5"/>
      <point x="566.0" y="1003.0"/>
      <point x="757.0" y="1003.0" type="curve" smooth="yes"/>
      <point x="946.5" y="1003.0"/>
      <point x="1043.5" y="893.5"/>
      <point x="1043.5" y="705.0" type="curve" smooth="yes"/>
      <point x="1043.5" y="565.5" type="line" smooth="yes"/>
      <point x="1043.5" y="382.0"/>
      <point x="946.5" y="274.0"/>
    </contour>
  </outline>
</glyph>
<glyph name="P" format="2">
  <advance width="1371.5"/>
  <unicode hex="0050"/>
  <anchor x="686.0" y="0.0" name="bottom"/>
  <anchor x="686.0" y="1278.0" name="top"/>
  <outline>
    <contour>
      <point x="387.5" y="344.0" type="line"/>
      <point x="777.5" y="344.0" type="line" smooth="yes"/>
      <point x="1147.0" y="344.0"/>
      <point x="1317.0" y="502.5"/>
      <point x="1317.0" y="788.5" type="curve" smooth="yes"/>
      <point x="1317.0" y="832.0" type="line" smooth="yes"/>
      <point x="1317.0" y="1120.0"/>
      <point x="1147.0" y="1278.0"/>
      <point x="776.5" y="1278.0" type="curve" smooth="yes"/>
      <point x="387.5" y="1278.0" type="line"/>
      <point x="387.5" y="979.0" type="line"/>
      <point x="750.5" y="979.0" type="line" smooth="yes"/>
      <point x="879.0" y="979.0"/>
      <point x="935.0" y="931.5"/>
      <point x="935.0" y="827.0" type="curve" smooth="yes"/>
      <point x="935.0" y="795.0" type="line" smooth="yes"/>
      <point x="935.0" y="690.5"/>
      <point x="879.0" y="643.5"/>
      <point x="750.5" y="643.5" type="curve" smooth="yes"/>
      <point x="387.5" y="643.5" type="line"/>
    </contour>
    <contour>
      <point x="119.0" y="0.0" type="line"/>
      <point x="495.0" y="0.0" type="line"/>
      <point x="495.0" y="393.0" type="line"/>
      <point x="493.5" y="560.0" type="line"/>
      <point x="493.5" y="1278.0" type="line"/>
      <point x="119.0" y="1278.0" type="line"/>
    </contour>
  </outline>
</glyph>
<glyph name="Q" format="2">
  <advance width="1514.0"/>
  <unicode hex="0051"/>
  <anchor x="757.5" y="0.0" name="bottom"/>
  <anchor x="757.5" y="1278.0" name="top"/>
  <outline>
    <contour>
      <point x="1494.0" y="-69.5" type="line"/>
      <point x="1494.0" y="258.0" type="line"/>
      <point x="1096.0" y="243.5" type="line"/>
      <point x="1096.0" y="257.0" type="line"/>
      <point x="1287.5" y="280.0"/>
      <point x="1437.5" y="385.5"/>
      <point x="1437.5" y="640.0" type="curve" smooth="yes"/>
      <point x="1437.5" y="714.5" type="line" smooth="yes"/>
      <point x="1437.5" y="1084.5"/>
      <point x="1204.5" y="1315.0"/>
      <point x="757.0" y="1315.0" type="curve" smooth="yes"/>
      <point x="307.5" y="1315.0"/>
      <point x="75.0" y="1090.5"/>
      <point x="75.0" y="696.5" type="curve" smooth="yes"/>
      <point x="75.0" y="584.5" type="line" smooth="yes"/>
      <point x="75.0" y="186.5"/>
      <point x="301.0" y="-17.5"/>
      <point x="846.5" y="-41.5" type="curve" smooth="yes"/>
    </contour>
    <contour>
      <point x="789.5" y="276.5" type="line" smooth="yes"/>
      <point x="593.0" y="282.0"/>
      <point x="470.5" y="387.5"/>
      <point x="470.5" y="577.0" type="curve" smooth="yes"/>
      <point x="470.5" y="704.5" type="line" smooth="yes"/>
      <point x="470.5" y="892.0"/>
      <point x="565.5" y="1002.0"/>
      <point x="756.5" y="1002.0" type="curve" smooth="yes"/>
      <point x="946.0" y="1002.0"/>
      <point x="1042.5" y="892.0"/>
      <point x="1042.5" y="704.5" type="curve" smooth="yes"/>
      <point x="1042.5" y="583.5" type="line" smooth="yes"/>
      <point x="1042.5" y="412.0"/>
      <point x="954.5" y="315.0"/>
      <point x="842.5" y="275.0" type="curve"/>
    </contour>
  </outline>
</glyph>
<glyph name="R" format="2">
  <advance width="1406.5"/>
  <unicode hex="0052"/>
  <anchor x="713.5" y="0.0" name="bottom"/>
  <anchor x="704.0" y="1278.0" name="top"/>
  <outline>
    <contour>
      <point x="957.0" y="0.0" type="line"/>
      <point x="1356.5" y="0.0" type="line"/>
      <point x="1317.0" y="258.0" type="line" smooth="yes"/>
      <point x="1280.5" y="489.0"/>
      <point x="1214.0" y="592.5"/>
      <point x="966.0" y="611.5" type="curve"/>
      <point x="1018.0" y="560.0" type="line"/>
      <point x="1018.0" y="617.5" type="line"/>
      <point x="1218.0" y="626.0"/>
      <point x="1322.0" y="719.5"/>
      <point x="1322.0" y="901.5" type="curve" smooth="yes"/>
      <point x="1322.0" y="917.5" type="line" smooth="yes"/>
      <point x="1322.0" y="1154.0"/>
      <point x="1164.5" y="1278.0"/>
      <point x="808.0" y="1278.0" type="curve" smooth="yes"/>
      <point x="385.0" y="1278.0" type="line"/>
      <point x="385.0" y="980.5" type="line"/>
      <point x="760.0" y="980.5" type="line" smooth="yes"/>
      <point x="888.0" y="980.5"/>
      <point x="939.5" y="931.0"/>
      <point x="939.5" y="833.0" type="curve" smooth="yes"/>
      <point x="939.5" y="820.0" type="line" smooth="yes"/>
      <point x="939.5" y="722.0"/>
      <point x="887.0" y="672.0"/>
      <point x="760.0" y="671.5" type="curve" smooth="yes"/>
      <point x="385.5" y="670.0" type="line"/>
      <point x="385.5" y="388.0" type="line"/>
      <point x="730.5" y="386.5" type="line" smooth="yes"/>
      <point x="868.0" y="386.0"/>
      <point x="916.0" y="341.0"/>
      <point x="934.0" y="199.0" type="curve" smooth="yes"/>
    </contour>
    <contour>
      <point x="119.0" y="0.0" type="line"/>
      <point x="493.5" y="0.0" type="line"/>
      <point x="493.5" y="425.0" type="line"/>
      <point x="492.0" y="560.5" type="line"/>
      <point x="492.0" y="1278.0" type="line"/>
      <point x="119.0" y="1278.0" type="line"/>
    </contour>
  </outline>
</glyph>
<glyph name="S" format="2">
  <advance width="1280.0"/>
  <unicode hex="0053"/>
  <anchor x="633.5" y="0.0" name="bottom"/>
  <anchor x="633.5" y="1278.0" name="top"/>
  <outline>
    <contour>
      <point x="616.5" y="-32.5" type="curve" smooth="yes"/>
      <point x="1025.0" y="-32.5"/>
      <point x="1217.5" y="99.5"/>
      <point x="1217.5" y="381.5" type="curve" smooth="yes"/>
      <point x="1217.5" y="394.0" type="line" smooth="yes"/>
      <point x="1217.5" y="657.0"/>
      <point x="1042.0" y="728.0"/>
      <point x="717.0" y="789.0" type="curve" smooth="yes"/>
      <point x="494.0" y="831.5"/>
      <point x="450.0" y="858.5"/>
      <point x="450.0" y="915.5" type="curve" smooth="yes"/>
      <point x="450.0" y="917.5" type="line" smooth="yes"/>
      <point x="450.0" y="969.5"/>
      <point x="488.0" y="1000.0"/>
      <point x="666.0" y="1000.0" type="curve" smooth="yes"/>
      <point x="843.0" y="1000.0"/>
      <point x="1012.5" y="962.0"/>
      <point x="1150.5" y="904.0" type="curve"/>
      <point x="1112.5" y="1222.0" type="line"/>
      <point x="992.0" y="1271.5"/>
      <point x="835.5" y="1310.5"/>
      <point x="614.0" y="1310.5" type="curve" smooth="yes"/>
      <point x="250.0" y="1310.5"/>
      <point x="60.0" y="1181.0"/>
      <point x="60.0" y="928.0" type="curve" smooth="yes"/>
      <point x="60.0" y="917.0" type="line" smooth="yes"/>
      <point x="60.0" y="658.5"/>
      <point x="228.0" y="572.0"/>
      <point x="559.0" y="507.5" type="curve" smooth="yes"/>
      <point x="762.0" y="468.0"/>
      <point x="825.0" y="449.0"/>
      <point x="825.0" y="382.0" type="curve" smooth="yes"/>
      <point x="825.0" y="378.0" type="line" smooth="yes"/>
      <point x="825.0" y="312.0"/>
      <point x="768.5" y="287.0"/>
      <point x="596.5" y="287.0" type="curve" smooth="yes"/>
      <point x="398.5" y="287.0"/>
      <point x="205.5" y="345.0"/>
      <point x="73.0" y="400.0" type="curve"/>
      <point x="110.0" y="55.5" type="line"/>
      <point x="231.0" y="12.0"/>
      <point x="409.0" y="-32.5"/>
    </contour>
  </outline>
</glyph>
<glyph name="T" format="2">
  <advance width="1330.0"/>
  <unicode hex="0054"/>
  <anchor x="665.0" y="0.0" name="bottom"/>
  <anchor x="665.0" y="639.0" name="center"/>
  <anchor x="665.0" y="1278.0" name="top"/>
  <outline>
    <contour>
      <point x="473.0" y="0.0" type="line"/>
      <point x="857.5" y="0.0" type="line"/>
      <point x="857.5" y="1171.5" type="line"/>
      <point x="473.0" y="1171.5" type="line"/>
    </contour>
    <contour>
      <point x="55.5" y="969.0" type="line"/>
      <point x="1274.5" y="969.0" type="line"/>
      <point x="1274.5" y="1278.0" type="line"/>
      <point x="55.5" y="1278.0" type="line"/>
    </contour>
  </outline>
</glyph>
<glyph name="U" format="2">
  <advance width="1500.5"/>
  <unicode hex="0055"/>
  <anchor x="750.5" y="0.0" name="bottom"/>
  <anchor x="1129.0" y="7.5" name="ogonek"/>
  <anchor x="750.5" y="1278.0" name="top"/>
  <anchor x="1487.5" y="1278.0" name="topright"/>
  <outline>
    <contour>
      <point x="750.5" y="-39.0" type="curve" smooth="yes"/>
      <point x="1183.5" y="-39.0"/>
      <point x="1392.0" y="163.0"/>
      <point x="1392.0" y="553.5" type="curve" smooth="yes"/>
      <point x="1392.0" y="1278.0" type="line"/>
      <point x="1007.5" y="1278.0" type="line"/>
      <point x="1007.5" y="551.5" type="line" smooth="yes"/>
      <point x="1007.5" y="373.5"/>
      <point x="923.0" y="280.0"/>
      <point x="750.5" y="280.0" type="curve" smooth="yes"/>
      <point x="577.5" y="280.0"/>
      <point x="493.0" y="373.5"/>
      <point x="493.0" y="551.5" type="curve" smooth="yes"/>
      <point x="493.0" y="1278.0" type="line"/>
      <point x="108.5" y="1278.0" type="line"/>
      <point x="108.5" y="553.5" type="line" smooth="yes"/>
      <point x="108.5" y="163.0"/>
      <point x="318.5" y="-39.0"/>
    </contour>
  </outline>
</glyph>
<glyph name="V" format="2">
  <advance width="1430.0"/>
  <unicode hex="0056"/>
  <anchor x="715.0" y="0.0" name="bottom"/>
  <anchor x="715.0" y="1278.0" name="top"/>
  <outline>
    <contour>
      <point x="433.5" y="0.0" type="line"/>
      <point x="997.0" y="0.0" type="line"/>
      <point x="1416.5" y="1278.0" type="line"/>
      <point x="1016.5" y="1278.0" type="line"/>
      <point x="728.0" y="289.0" type="line"/>
      <point x="702.0" y="289.0" type="line"/>
      <point x="414.0" y="1278.0" type="line"/>
      <point x="13.5" y="1278.0" type="line"/>
    </contour>
  </outline>
</glyph>
<glyph name="W" format="2">
  <advance width="1974.5"/>
  <unicode hex="0057"/>
  <anchor x="987.5" y="0.0" name="bottom"/>
  <anchor x="987.5" y="1278.0" name="top"/>
  <outline>
    <contour>
      <point x="292.5" y="0.0" type="line"/>
      <point x="824.5" y="0.0" type="line"/>
      <point x="947.5" y="756.0" type="line"/>
      <point x="978.0" y="932.0" type="line"/>
      <point x="996.5" y="932.0" type="line"/>
      <point x="1026.0" y="756.0" type="line"/>
      <point x="1150.5" y="0.0" type="line"/>
      <point x="1683.0" y="0.0" type="line"/>
      <point x="1942.5" y="1278.0" type="line"/>
      <point x="1554.0" y="1278.0" type="line"/>
      <point x="1420.5" y="430.0" type="line"/>
      <point x="1402.5" y="320.5" type="line"/>
      <point x="1382.5" y="320.5" type="line"/>
      <point x="1362.5" y="431.5" type="line"/>
      <point x="1219.0" y="1246.5" type="line"/>
      <point x="755.5" y="1246.5" type="line"/>
      <point x="611.5" y="431.0" type="line"/>
      <point x="591.5" y="320.5" type="line"/>
      <point x="571.5" y="320.5" type="line"/>
      <point x="554.0" y="431.0" type="line"/>
      <point x="422.0" y="1278.0" type="line"/>
      <point x="32.0" y="1278.0" type="line"/>
    </contour>
  </outline>
</glyph>
<glyph name="X" format="2">
  <advance width="1419.5"/>
  <unicode hex="0058"/>
  <anchor x="710.0" y="0.0" name="bottom"/>
  <anchor x="710.0" y="1278.0" name="top"/>
  <outline>
    <contour>
      <point x="13.0" y="0.0" type="line"/>
      <point x="447.5" y="0.0" type="line"/>
      <point x="699.5" y="448.0" type="line"/>
      <point x="719.0" y="448.0" type="line"/>
      <point x="972.0" y="0.0" type="line"/>
      <point x="1406.5" y="0.0" type="line"/>
      <point x="983.5" y="699.5" type="line"/>
      <point x="983.5" y="628.0" type="line"/>
      <point x="1389.5" y="1278.0" type="line"/>
      <point x="967.0" y="1278.0" type="line"/>
      <point x="719.0" y="857.0" type="line"/>
      <point x="699.5" y="857.0" type="line"/>
      <point x="452.0" y="1278.0" type="line"/>
      <point x="30.0" y="1278.0" type="line"/>
      <point x="435.5" y="628.0" type="line"/>
      <point x="435.5" y="699.5" type="line"/>
    </contour>
  </outline>
</glyph>
<glyph name="Y" format="2">
  <advance width="1379.5"/>
  <unicode hex="0059"/>
  <anchor x="689.5" y="0.0" name="bottom"/>
  <anchor x="689.5" y="1278.0" name="top"/>
  <anchor x="20.0" y="1278.0" name="topleft"/>
  <outline>
    <contour>
      <point x="526.0" y="321.0" type="line"/>
      <point x="854.5" y="321.0" type="line"/>
      <point x="1379.0" y="1278.0" type="line"/>
      <point x="972.5" y="1278.0" type="line"/>
      <point x="793.5" y="921.5" type="line"/>
      <point x="698.5" y="724.0" type="line"/>
      <point x="681.0" y="724.0" type="line"/>
      <point x="585.0" y="923.0" type="line"/>
      <point x="406.5" y="1278.0" type="line"/>
      <point x="0.0" y="1278.0" type="line"/>
    </contour>
    <contour>
      <point x="499.5" y="0.0" type="line"/>
      <point x="880.5" y="0.0" type="line"/>
      <point x="880.5" y="654.0" type="line"/>
      <point x="499.5" y="654.0" type="line"/>
    </contour>
  </outline>
</glyph>
<glyph name="Z" format="2">
  <advance width="1267.0"/>
  <unicode hex="005A"/>
  <anchor x="634.0" y="0.0" name="bottom"/>
  <anchor x="634.0" y="639.0" name="center"/>
  <anchor x="634.0" y="1278.0" name="top"/>
  <outline>
    <contour>
      <point x="1205.5" y="309.5" type="line"/>
      <point x="530.5" y="309.5" type="line"/>
      <point x="1193.0" y="983.0" type="line"/>
      <point x="1193.0" y="1278.0" type="line"/>
      <point x="73.0" y="1278.0" type="line"/>
      <point x="73.0" y="969.0" type="line"/>
      <point x="721.0" y="969.0" type="line"/>
      <point x="61.0" y="296.0" type="line"/>
      <point x="61.0" y="0.0" type="line"/>
      <point x="1205.5" y="0.0" type="line"/>
    </contour>
  </outline>
</glyph>
<glyph name="bracketleft" format="2">
  <advance width="710.5"/>
  <unicode hex="005B"/>
  <outline>
    <contour>
      <point x="120.0" y="-258.5" type="line"/>
      <point x="654.5" y="-258.5" type="line"/>
      <point x="654.5" y="1.5" type="line"/>
      <point x="461.0" y="1.5" type="line"/>
      <point x="461.0" y="1090.0" type="line"/>
      <point x="654.5" y="1090.0" type="line"/>
      <point x="654.5" y="1350.0" type="line"/>
      <point x="120.0" y="1350.0" type="line"/>
    </contour>
  </outline>
</glyph>
<glyph name="backslash" format="2">
  <advance width="1111.0"/>
  <unicode hex="005C"/>
  <outline>
    <contour>
      <point x="1147.0" y="-258.5" type="line"/>
      <point x="304.0" y="1350.0" type="line"/>
      <point x="-36.0" y="1350.0" type="line"/>
      <point x="806.0" y="-258.5" type="line"/>
    </contour>
  </outline>
</glyph>
<glyph name="bracketright" format="2">
  <advance width="710.5"/>
  <unicode hex="005D"/>
  <outline>
    <contour>
      <point x="590.5" y="-258.5" type="line"/>
      <point x="590.5" y="1350.0" type="line"/>
      <point x="56.0" y="1350.0" type="line"/>
      <point x="56.0" y="1090.0" type="line"/>
      <point x="249.5" y="1090.0" type="line"/>
      <point x="249.5" y="1.5" type="line"/>
      <point x="56.0" y="1.5" type="line"/>
      <point x="56.0" y="-258.5" type="line"/>
    </contour>
  </outline>
</glyph>
<glyph name="asciicircum" format="2">
  <advance width="1061.0"/>
  <unicode hex="005E"/>
  <outline>
    <contour>
      <point x="290.5" y="1278.0" type="line"/>
      <point x="20.5" y="601.5" type="line"/>
      <point x="343.5" y="601.5" type="line"/>
      <point x="523.0" y="1084.0" type="line"/>
      <point x="540.0" y="1084.0" type="line"/>
      <point x="718.0" y="601.5" type="line"/>
      <point x="1040.5" y="601.5" type="line"/>
      <point x="770.5" y="1278.0" type="line"/>
    </contour>
  </outline>
</glyph>
<glyph name="grave" format="2">
  <advance width="787.5"/>
  <unicode hex="0060"/>
  <anchor x="531.0" y="974.0" name="_top"/>
  <anchor x="531.0" y="1372.0" name="top"/>
  <outline>
    <contour>
      <point x="506.5" y="1380.5" type="line"/>
      <point x="112.5" y="1380.5" type="line"/>
      <point x="112.5" y="1375.0" type="line"/>
      <point x="387.5" y="1074.0" type="line"/>
      <point x="703.0" y="1074.0" type="line"/>
      <point x="703.0" y="1078.5" type="line"/>
    </contour>
  </outline>
</glyph>
<glyph name="a" format="2">
  <advance width="1210.0"/>
  <unicode hex="0061"/>
  <anchor x="604.5" y="0.0" name="bottom"/>
  <anchor x="1155.0" y="5.0" name="ogonek"/>
  <anchor x="604.5" y="974.0" name="top"/>
  <outline>
    <contour>
      <point x="750.0" y="0.0" type="line"/>
      <point x="1120.5" y="0.0" type="line"/>
      <point x="1120.5" y="554.5" type="line" smooth="yes"/>
      <point x="1120.5" y="803.5"/>
      <point x="1014.0" y="1005.5"/>
      <point x="593.0" y="1005.5" type="curve" smooth="yes"/>
      <point x="411.0" y="1005.5"/>
      <point x="257.0" y="967.5"/>
      <point x="141.5" y="920.0" type="curve"/>
      <point x="107.5" y="645.5" type="line"/>
      <point x="237.0" y="689.5"/>
      <point x="374.0" y="728.0"/>
      <point x="525.0" y="728.0" type="curve" smooth="yes"/>
      <point x="688.5" y="728.0"/>
      <point x="754.0" y="684.0"/>
      <point x="754.0" y="592.5" type="curve"/>
      <point x="757.5" y="547.0" type="line"/>
      <point x="757.5" y="285.5" type="line"/>
      <point x="762.0" y="258.5" type="line"/>
    </contour>
    <contour>
      <point x="394.5" y="-28.0" type="curve" smooth="yes"/>
      <point x="627.0" y="-28.0"/>
      <point x="716.5" y="79.0"/>
      <point x="749.5" y="222.0" type="curve"/>
      <point x="820.0" y="222.0" type="line"/>
      <point x="760.5" y="347.0" type="line"/>
      <point x="725.0" y="288.0"/>
      <point x="651.5" y="237.0"/>
      <point x="527.0" y="237.0" type="curve" smooth="yes"/>
      <point x="442.5" y="237.0"/>
      <point x="412.0" y="267.0"/>
      <point x="412.0" y="311.5" type="curve" smooth="yes"/>
      <point x="412.0" y="315.0" type="line" smooth="yes"/>
      <point x="412.0" y="362.5"/>
      <point x="442.5" y="385.5"/>
      <point x="523.5" y="395.0" type="curve" smooth="yes"/>
      <point x="795.0" y="426.0" type="line"/>
      <point x="780.5" y="625.0" type="line"/>
      <point x="480.5" y="596.0" type="line" smooth="yes"/>
      <point x="194.5" y="567.5"/>
      <point x="52.0" y="489.5"/>
      <point x="52.0" y="278.5" type="curve" smooth="yes"/>
      <point x="52.0" y="260.5" type="line" smooth="yes"/>
      <point x="52.0" y="79.5"/>
      <point x="169.5" y="-28.0"/>
    </contour>
  </outline>
</glyph>
<glyph name="b" format="2">
  <advance width="1319.0"/>
  <unicode hex="0062"/>
  <anchor x="665.5" y="0.0" name="bottom"/>
  <anchor x="665.5" y="1316.5" name="top"/>
  <outline>
    <contour>
      <point x="829.0" y="-28.0" type="curve" smooth="yes"/>
      <point x="1101.0" y="-28.0"/>
      <point x="1252.0" y="138.5"/>
      <point x="1252.0" y="459.5" type="curve" smooth="yes"/>
      <point x="1252.0" y="521.5" type="line" smooth="yes"/>
      <point x="1252.0" y="840.5"/>
      <point x="1101.5" y="1003.0"/>
      <point x="838.5" y="1003.0" type="curve" smooth="yes"/>
      <point x="613.0" y="1003.0"/>
      <point x="515.5" y="890.5"/>
      <point x="484.5" y="739.5" type="curve"/>
      <point x="408.5" y="739.5" type="line"/>
      <point x="466.5" y="581.0" type="line"/>
      <point x="501.0" y="650.0"/>
      <point x="579.5" y="705.5"/>
      <point x="685.0" y="705.5" type="curve" smooth="yes"/>
      <point x="809.5" y="705.5"/>
      <point x="873.0" y="644.0"/>
      <point x="873.0" y="526.5" type="curve" smooth="yes"/>
      <point x="873.0" y="456.5" type="line" smooth="yes"/>
      <point x="873.0" y="340.5"/>
      <point x="802.0" y="280.0"/>
      <point x="679.5" y="280.0" type="curve" smooth="yes"/>
      <point x="542.5" y="280.0"/>
      <point x="477.5" y="348.5"/>
      <point x="474.0" y="457.5" type="curve"/>
      <point x="391.5" y="234.5" type="line"/>
      <point x="480.0" y="234.5" type="line"/>
      <point x="512.5" y="73.5"/>
      <point x="616.0" y="-28.0"/>
    </contour>
    <contour>
      <point x="105.0" y="0.0" type="line"/>
      <point x="479.5" y="0.0" type="line"/>
      <point x="467.5" y="270.0" type="line"/>
      <point x="474.0" y="313.0" type="line"/>
      <point x="474.0" y="632.0" type="line"/>
      <point x="472.5" y="653.5" type="line"/>
      <point x="478.0" y="997.5" type="line"/>
      <point x="478.0" y="1316.5" type="line"/>
      <point x="105.0" y="1316.5" type="line"/>
    </contour>
  </outline>
</glyph>
<glyph name="c" format="2">
  <advance width="1057.5"/>
  <unicode hex="0063"/>
  <anchor x="570.0" y="0.0" name="bottom"/>
  <anchor x="570.0" y="974.0" name="top"/>
  <outline>
    <contour>
      <point x="616.0" y="-33.0" type="curve" smooth="yes"/>
      <point x="755.5" y="-33.0"/>
      <point x="884.0" y="-3.5"/>
      <point x="971.0" y="40.0" type="curve"/>
      <point x="1002.0" y="339.0" type="line"/>
      <point x="907.0" y="299.5"/>
      <point x="817.0" y="274.0"/>
      <point x="701.0" y="274.0" type="curve" smooth="yes"/>
      <point x="523.5" y="274.0"/>
      <point x="442.0" y="347.0"/>
      <point x="442.0" y="476.0" type="curve" smooth="yes"/>
      <point x="442.0" y="515.5" type="line" smooth="yes"/>
      <point x="442.0" y="639.5"/>
      <point x="513.5" y="708.5"/>
      <point x="690.0" y="708.5" type="curve" smooth="yes"/>
      <point x="810.0" y="708.5"/>
      <point x="908.5" y="678.5"/>
      <point x="992.0" y="639.5" type="curve"/>
      <point x="959.0" y="939.0" type="line"/>
      <point x="875.5" y="980.0"/>
      <point x="751.0" y="1010.0"/>
      <point x="613.5" y="1010.0" type="curve" smooth="yes"/>
      <point x="241.0" y="1010.0"/>
      <point x="63.0" y="825.5"/>
      <point x="63.0" y="518.0" type="curve" smooth="yes"/>
      <point x="63.0" y="469.0" type="line" smooth="yes"/>
      <point x="63.0" y="150.5"/>
      <point x="240.5" y="-33.0"/>
    </contour>
  </outline>
</glyph>
<glyph name="d" format="2">
  <advance width="1319.0"/>
  <unicode hex="0064"/>
  <anchor x="653.5" y="0.0" name="bottom"/>
  <anchor x="653.5" y="487.5" name="center"/>
  <anchor x="653.5" y="1316.5" name="top"/>
  <anchor x="1305.5" y="1316.5" name="topright"/>
  <outline>
    <contour>
      <point x="479.5" y="-28.0" type="curve" smooth="yes"/>
      <point x="704.0" y="-28.0"/>
      <point x="809.5" y="86.5"/>
      <point x="839.0" y="234.5" type="curve"/>
      <point x="953.0" y="234.5" type="line"/>
      <point x="852.5" y="402.0" type="line"/>
      <point x="817.0" y="330.0"/>
      <point x="740.5" y="280.0"/>
      <point x="637.5" y="280.0" type="curve" smooth="yes"/>
      <point x="513.0" y="280.0"/>
      <point x="446.0" y="340.0"/>
      <point x="446.0" y="457.5" type="curve" smooth="yes"/>
      <point x="446.0" y="528.0" type="line" smooth="yes"/>
      <point x="446.0" y="645.5"/>
      <point x="516.0" y="705.5"/>
      <point x="638.0" y="705.5" type="curve" smooth="yes"/>
      <point x="775.0" y="705.5"/>
      <point x="841.5" y="636.0"/>
      <point x="845.0" y="525.5" type="curve"/>
      <point x="937.5" y="739.5" type="line"/>
      <point x="834.0" y="739.5" type="line"/>
      <point x="802.0" y="902.5"/>
      <point x="701.0" y="1003.0"/>
      <point x="489.0" y="1003.0" type="curve" smooth="yes"/>
      <point x="217.0" y="1003.0"/>
      <point x="67.0" y="837.0"/>
      <point x="67.0" y="515.0" type="curve" smooth="yes"/>
      <point x="67.0" y="453.0" type="line" smooth="yes"/>
      <point x="67.0" y="133.5"/>
      <point x="218.5" y="-28.0"/>
    </contour>
    <contour>
      <point x="839.5" y="0.0" type="line"/>
      <point x="1214.0" y="0.0" type="line"/>
      <point x="1214.0" y="1316.5" type="line"/>
      <point x="841.0" y="1316.5" type="line"/>
      <point x="841.0" y="997.5" type="line"/>
      <point x="845.0" y="716.0" type="line"/>
      <point x="845.0" y="669.5" type="line"/>
      <point x="845.0" y="327.5" type="line"/>
      <point x="851.5" y="272.5" type="line"/>
    </contour>
  </outline>
</glyph>
<glyph name="e" format="2">
  <advance width="1218.0"/>
  <unicode hex="0065"/>
  <anchor x="623.5" y="0.0" name="bottom"/>
  <anchor x="1085.0" y="10.0" name="ogonek"/>
  <anchor x="623.5" y="974.0" name="top"/>
  <outline>
    <contour>
      <point x="671.0" y="-32.5" type="curve" smooth="yes"/>
      <point x="850.5" y="-32.5"/>
      <point x="999.5" y="-3.5"/>
      <point x="1106.0" y="46.5" type="curve"/>
      <point x="1138.5" y="309.5" type="line"/>
      <point x="1010.0" y="269.0"/>
      <point x="875.5" y="247.0"/>
      <point x="738.0" y="247.0" type="curve" smooth="yes"/>
      <point x="454.0" y="247.0"/>
      <point x="417.0" y="341.0"/>
      <point x="417.0" y="416.0" type="curve" smooth="yes"/>
      <point x="417.0" y="475.0" type="line"/>
      <point x="414.5" y="507.0" type="line"/>
      <point x="414.5" y="573.0" type="line" smooth="yes"/>
      <point x="414.5" y="682.0"/>
      <point x="477.5" y="748.0"/>
      <point x="612.5" y="748.0" type="curve" smooth="yes"/>
      <point x="750.0" y="748.0"/>
      <point x="812.0" y="685.5"/>
      <point x="812.0" y="574.5" type="curve" smooth="yes"/>
      <point x="812.0" y="525.0"/>
      <point x="808.5" y="452.0"/>
      <point x="801.5" y="384.0" type="curve"/>
      <point x="1141.5" y="384.0" type="line"/>
      <point x="1149.5" y="424.5"/>
      <point x="1155.0" y="482.0"/>
      <point x="1155.0" y="532.5" type="curve" smooth="yes"/>
      <point x="1155.0" y="555.0" type="line" smooth="yes"/>
      <point x="1155.0" y="837.0"/>
      <point x="972.5" y="1011.0"/>
      <point x="612.5" y="1011.0" type="curve" smooth="yes"/>
      <point x="258.0" y="1011.0"/>
      <point x="63.0" y="833.0"/>
      <point x="63.0" y="512.5" type="curve" smooth="yes"/>
      <point x="63.0" y="464.5" type="line" smooth="yes"/>
      <point x="63.0" y="142.5"/>
      <point x="256.5" y="-32.5"/>
    </contour>
    <contour>
      <point x="246.5" y="384.0" type="line"/>
      <point x="1068.0" y="384.0" type="line"/>
      <point x="1068.0" y="593.5" type="line"/>
      <point x="246.5" y="593.5" type="line"/>
    </contour>
  </outline>
</glyph>
<glyph name="f" format="2">
  <advance width="872.0"/>
  <unicode hex="0066"/>
  <anchor x="436.5" y="0.0" name="bottom"/>
  <anchor x="436.5" y="1302.0" name="top"/>
  <outline>
    <contour>
      <point x="513.0" y="1351.5" type="curve" smooth="yes"/>
      <point x="236.0" y="1351.5"/>
      <point x="113.0" y="1268.5"/>
      <point x="113.0" y="1116.0" type="curve" smooth="yes"/>
      <point x="113.0" y="1111.0" type="line" smooth="yes"/>
      <point x="113.0" y="1006.5"/>
      <point x="181.5" y="949.0"/>
      <point x="265.0" y="925.5" type="curve"/>
      <point x="265.0" y="890.5" type="line"/>
      <point x="504.5" y="902.5" type="line"/>
      <point x="489.5" y="920.0"/>
      <point x="480.0" y="939.0"/>
      <point x="480.0" y="965.5" type="curve" smooth="yes"/>
      <point x="480.0" y="968.0" type="line" smooth="yes"/>
      <point x="480.0" y="1023.0"/>
      <point x="503.5" y="1063.0"/>
      <point x="653.0" y="1063.0" type="curve" smooth="yes"/>
      <point x="734.0" y="1063.0"/>
      <point x="804.5" y="1051.0"/>
      <point x="869.0" y="1036.0" type="curve"/>
      <point x="834.5" y="1306.5" type="line"/>
      <point x="751.5" y="1332.0"/>
      <point x="634.5" y="1351.5"/>
    </contour>
    <contour>
      <point x="151.0" y="0.0" type="line"/>
      <point x="524.5" y="0.0" type="line"/>
      <point x="524.5" y="812.5" type="line"/>
      <point x="151.0" y="812.5" type="line"/>
    </contour>
    <contour>
      <point x="9.5" y="628.5" type="line"/>
      <point x="833.5" y="628.5" type="line"/>
      <point x="867.5" y="918.5" type="line"/>
      <point x="452.0" y="918.5" type="line"/>
      <point x="315.5" y="915.0" type="line"/>
      <point x="9.5" y="918.5" type="line"/>
    </contour>
  </outline>
</glyph>
<glyph name="g" format="2">
  <advance width="1206.0"/>
  <unicode hex="0067"/>
  <anchor x="603.0" y="-341.0" name="bottom"/>
  <anchor x="603.0" y="974.0" name="top"/>
  <outline>
    <contour>
      <point x="618.0" y="319.5" type="curve"/>
      <point x="968.0" y="319.5"/>
      <point x="1126.0" y="402.0"/>
      <point x="1126.0" y="574.0" type="curve" smooth="yes"/>
      <point x="1126.0" y="581.5" type="line" smooth="yes"/>
      <point x="1126.0" y="695.0"/>
      <point x="1060.5" y="754.0"/>
      <point x="915.0" y="772.0" type="curve"/>
      <point x="915.0" y="784.0" type="line"/>
      <point x="1189.5" y="780.5" type="line"/>
      <point x="1189.5" y="1029.0" type="line"/>
      <point x="542.5" y="995.5" type="line" smooth="yes"/>
      <point x="217.0" y="978.5"/>
      <point x="55.5" y="881.0"/>
      <point x="55.5" y="659.0" type="curve" smooth="yes"/>
      <point x="55.5" y="650.5" type="line" smooth="yes"/>
      <point x="55.5" y="443.0"/>
      <point x="226.5" y="319.5"/>
    </contour>
    <contour>
      <point x="597.0" y="-131.0" type="line" smooth="yes"/>
      <point x="437.5" y="-131.0"/>
      <point x="378.5" y="-100.0"/>
      <point x="378.5" y="-46.0" type="curve" smooth="yes"/>
      <point x="378.5" y="-44.0" type="line" smooth="yes"/>
      <point x="378.5" y="-2.0"/>
      <point x="409.0" y="21.5"/>
      <point x="452.5" y="30.5" type="curve"/>
      <point x="363.0" y="21.5" type="line"/>
      <point x="719.5" y="-6.5" type="line" smooth="yes"/>
      <point x="790.5" y="-12.0"/>
      <point x="832.0" y="-20.5"/>
      <point x="832.0" y="-58.5" type="curve" smooth="yes"/>
      <point x="832.0" y="-61.0" type="line" smooth="yes"/>
      <point x="832.0" y="-107.5"/>
      <point x="779.0" y="-131.0"/>
      <point x="621.5" y="-131.0" type="curve" smooth="yes"/>
    </contour>
    <contour>
      <point x="572.5" y="-390.0" type="curve" smooth="yes"/>
      <point x="615.5" y="-390.0" type="line" smooth="yes"/>
      <point x="976.0" y="-390.0"/>
      <point x="1176.5" y="-290.0"/>
      <point x="1176.5" y="-62.5" type="curve" smooth="yes"/>
      <point x="1176.5" y="-57.0" type="line" smooth="yes"/>
      <point x="1176.5" y="132.5"/>
      <point x="1044.5" y="211.0"/>
      <point x="783.0" y="235.0" type="curve" smooth="yes"/>
      <point x="515.5" y="259.5" type="line" smooth="yes"/>
      <point x="450.5" y="265.5"/>
      <point x="422.0" y="272.0"/>
      <point x="422.0" y="300.0" type="curve" smooth="yes"/>
      <point x="422.0" y="301.5" type="line" smooth="yes"/>
      <point x="422.0" y="321.0"/>
      <point x="437.5" y="332.5"/>
      <point x="474.5" y="332.5" type="curve"/>
      <point x="559.5" y="332.0" type="line"/>
      <point x="288.5" y="394.5" type="line"/>
      <point x="288.5" y="353.5" type="line"/>
      <point x="161.0" y="350.5"/>
      <point x="88.5" y="302.0"/>
      <point x="88.5" y="204.0" type="curve" smooth="yes"/>
      <point x="88.5" y="202.0" type="line" smooth="yes"/>
      <point x="88.5" y="109.0"/>
      <point x="158.0" y="67.0"/>
      <point x="267.5" y="49.0" type="curve"/>
      <point x="267.5" y="39.0" type="line"/>
      <point x="117.0" y="29.0"/>
      <point x="39.5" y="-34.0"/>
      <point x="39.5" y="-146.5" type="curve" smooth="yes"/>
      <point x="39.5" y="-150.5" type="line" smooth="yes"/>
      <point x="39.5" y="-328.5"/>
      <point x="225.5" y="-390.0"/>
    </contour>
    <contour>
      <point x="598.0" y="554.5" type="curve" smooth="yes"/>
      <point x="447.0" y="554.5"/>
      <point x="405.0" y="591.5"/>
      <point x="405.0" y="650.5" type="curve" smooth="yes"/>
      <point x="405.0" y="656.5" type="line" smooth="yes"/>
      <point x="405.0" y="716.0"/>
      <point x="447.0" y="754.5"/>
      <point x="596.5" y="754.5" type="curve" smooth="yes"/>
      <point x="600.0" y="754.5" type="line" smooth="yes"/>
      <point x="749.0" y="754.5"/>
      <point x="790.0" y="715.5"/>
      <point x="790.0" y="656.5" type="curve" smooth="yes"/>
      <point x="790.0" y="650.5" type="line" smooth="yes"/>
      <point x="790.0" y="591.5"/>
      <point x="749.0" y="554.5"/>
    </contour>
  </outline>
</glyph>
<glyph name="h" format="2">
  <advance width="1297.5"/>
  <unicode hex="0068"/>
  <anchor x="649.5" y="0.0" name="bottom"/>
  <anchor x="649.5" y="651.5" name="center"/>
  <anchor x="291.5" y="1316.5" name="top"/>
  <outline>
    <contour>
      <point x="825.5" y="0.0" type="line"/>
      <point x="1201.0" y="0.0" type="line"/>
      <point x="1201.0" y="596.5" type="line" smooth="yes"/>
      <point x="1201.0" y="866.5"/>
      <point x="1081.0" y="1003.0"/>
      <point x="838.0" y="1003.0" type="curve" smooth="yes"/>
      <point x="619.0" y="1003.0"/>
      <point x="517.0" y="890.0"/>
      <point x="485.0" y="739.5" type="curve"/>
      <point x="406.5" y="739.5" type="line"/>
      <point x="476.5" y="581.0" type="line"/>
      <point x="509.0" y="642.5"/>
      <point x="565.0" y="694.0"/>
      <point x="664.0" y="694.0" type="curve" smooth="yes"/>
      <point x="794.5" y="694.0"/>
      <point x="825.5" y="615.0"/>
      <point x="825.5" y="517.0" type="curve" smooth="yes"/>
    </contour>
    <contour>
      <point x="105.0" y="0.0" type="line"/>
      <point x="480.5" y="0.0" type="line"/>
      <point x="480.5" y="631.5" type="line"/>
      <point x="472.5" y="645.5" type="line"/>
      <point x="478.0" y="996.0" type="line"/>
      <point x="478.0" y="1316.5" type="line"/>
      <point x="105.0" y="1316.5" type="line"/>
    </contour>
  </outline>
</glyph>
<glyph name="i" format="2">
  <advance width="584.5"/>
  <unicode hex="0069"/>
  <anchor x="292.5" y="0.0" name="bottom"/>
  <anchor x="517.5" y="5.0" name="ogonek"/>
  <outline>
    <contour>
      <point x="105.0" y="0.0" type="line"/>
      <point x="480.0" y="0.0" type="line"/>
      <point x="480.0" y="974.0" type="line"/>
      <point x="105.0" y="974.0" type="line"/>
    </contour>
    <contour>
      <point x="292.5" y="1053.0" type="curve" smooth="yes"/>
      <point x="428.5" y="1053.0"/>
      <point x="489.0" y="1115.0"/>
      <point x="489.0" y="1218.5" type="curve" smooth="yes"/>
      <point x="489.0" y="1225.0" type="line" smooth="yes"/>
      <point x="489.0" y="1326.0"/>
      <point x="428.5" y="1390.5"/>
      <point x="292.5" y="1390.5" type="curve" smooth="yes"/>
      <point x="154.5" y="1390.5"/>
      <point x="96.0" y="1325.5"/>
      <point x="96.0" y="1225.0" type="curve" smooth="yes"/>
      <point x="96.0" y="1218.5" type="line" smooth="yes"/>
      <point x="96.0" y="1117.0"/>
      <point x="154.5" y="1053.0"/>
    </contour>
  </outline>
</glyph>
<glyph name="j" format="2">
  <advance width="602.0"/>
  <unicode hex="006A"/>
  <outline>
    <contour>
      <point x="122.0" y="167.0" type="line"/>
      <point x="497.5" y="167.0" type="line"/>
      <point x="497.5" y="974.0" type="line"/>
      <point x="122.0" y="974.0" type="line"/>
    </contour>
    <contour>
      <point x="310.0" y="1053.0" type="curve" smooth="yes"/>
      <point x="446.0" y="1053.0"/>
      <point x="506.5" y="1115.0"/>
      <point x="506.5" y="1218.5" type="curve" smooth="yes"/>
      <point x="506.5" y="1225.0" type="line" smooth="yes"/>
      <point x="506.5" y="1326.0"/>
      <point x="446.0" y="1390.5"/>
      <point x="310.0" y="1390.5" type="curve" smooth="yes"/>
      <point x="172.0" y="1390.5"/>
      <point x="113.5" y="1325.5"/>
      <point x="113.5" y="1225.0" type="curve" smooth="yes"/>
      <point x="113.5" y="1218.5" type="line" smooth="yes"/>
      <point x="113.5" y="1117.0"/>
      <point x="172.0" y="1053.0"/>
    </contour>
    <component base="jbottom"/>
  </outline>
</glyph>
<glyph name="k" format="2">
  <advance width="1257.5"/>
  <unicode hex="006B"/>
  <anchor x="629.5" y="0.0" name="bottom"/>
  <anchor x="629.5" y="1316.5" name="top"/>
  <outline>
    <contour>
      <point x="812.5" y="0.0" type="line"/>
      <point x="1270.0" y="0.0" type="line"/>
      <point x="821.5" y="553.0" type="line"/>
      <point x="821.5" y="488.5" type="line"/>
      <point x="1254.0" y="974.0" type="line"/>
      <point x="804.5" y="974.0" type="line"/>
      <point x="490.5" y="605.5" type="line"/>
      <point x="434.0" y="605.5" type="line"/>
      <point x="434.0" y="414.0" type="line"/>
      <point x="490.5" y="414.0" type="line"/>
    </contour>
    <contour>
      <point x="105.0" y="0.0" type="line"/>
      <point x="479.5" y="0.0" type="line"/>
      <point x="479.5" y="1316.5" type="line"/>
      <point x="105.0" y="1316.5" type="line"/>
    </contour>
  </outline>
</glyph>
<glyph name="l" format="2">
  <advance width="585.5"/>
  <unicode hex="006C"/>
  <anchor x="293.5" y="0.0" name="bottom"/>
  <anchor x="293.5" y="651.5" name="center"/>
  <anchor x="293.5" y="1316.5" name="top"/>
  <anchor x="572.0" y="1316.5" name="topright"/>
  <outline>
    <contour>
      <point x="105.0" y="0.0" type="line"/>
      <point x="480.5" y="0.0" type="line"/>
      <point x="480.5" y="1316.5" type="line"/>
      <point x="105.0" y="1316.5" type="line"/>
    </contour>
  </outline>
</glyph>
<glyph name="m" format="2">
  <advance width="1951.5"/>
  <unicode hex="006D"/>
  <anchor x="974.5" y="0.0" name="bottom"/>
  <anchor x="974.5" y="974.0" name="top"/>
  <outline>
    <contour>
      <point x="1479.5" y="0.0" type="line"/>
      <point x="1855.0" y="0.0" type="line"/>
      <point x="1855.0" y="606.0" type="line" smooth="yes"/>
      <point x="1855.0" y="868.0"/>
      <point x="1740.5" y="1003.0"/>
      <point x="1507.5" y="1003.0" type="curve" smooth="yes"/>
      <point x="1286.5" y="1003.0"/>
      <point x="1193.0" y="884.5"/>
      <point x="1160.0" y="738.5" type="curve"/>
      <point x="1127.0" y="738.5" type="line"/>
      <point x="1160.5" y="581.0" type="line"/>
      <point x="1190.0" y="642.5"/>
      <point x="1241.0" y="694.0"/>
      <point x="1334.0" y="694.0" type="curve" smooth="yes"/>
      <point x="1455.0" y="694.0"/>
      <point x="1479.5" y="613.0"/>
      <point x="1479.5" y="522.0" type="curve" smooth="yes"/>
    </contour>
    <contour>
      <point x="105.0" y="0.0" type="line"/>
      <point x="480.5" y="0.0" type="line"/>
      <point x="480.5" y="649.5" type="line"/>
      <point x="467.0" y="689.0" type="line"/>
      <point x="479.5" y="974.0" type="line"/>
      <point x="105.0" y="974.0" type="line"/>
    </contour>
    <contour>
      <point x="792.5" y="0.0" type="line"/>
      <point x="1168.0" y="0.0" type="line"/>
      <point x="1168.0" y="594.5" type="line" smooth="yes"/>
      <point x="1168.0" y="625.0"/>
      <point x="1159.0" y="676.0"/>
      <point x="1156.0" y="704.5" type="curve"/>
      <point x="1131.5" y="895.0"/>
      <point x="1027.5" y="1003.0"/>
      <point x="822.0" y="1003.0" type="curve" smooth="yes"/>
      <point x="606.0" y="1003.0"/>
      <point x="509.0" y="888.0"/>
      <point x="479.5" y="739.5" type="curve"/>
      <point x="422.5" y="739.5" type="line"/>
      <point x="473.5" y="581.0" type="line"/>
      <point x="503.0" y="642.5"/>
      <point x="554.0" y="694.0"/>
      <point x="647.5" y="694.0" type="curve" smooth="yes"/>
      <point x="762.5" y="694.0"/>
      <point x="792.5" y="620.5"/>
      <point x="792.5" y="522.0" type="curve" smooth="yes"/>
    </contour>
  </outline>
</glyph>
<glyph name="n" format="2">
  <advance width="1297.5"/>
  <unicode hex="006E"/>
  <anchor x="649.5" y="0.0" name="bottom"/>
  <anchor x="649.5" y="974.0" name="top"/>
  <outline>
    <contour>
      <point x="825.5" y="0.0" type="line"/>
      <point x="1201.0" y="0.0" type="line"/>
      <point x="1201.0" y="601.0" type="line" smooth="yes"/>
      <point x="1201.0" y="865.5"/>
      <point x="1081.0" y="1003.0"/>
      <point x="838.0" y="1003.0" type="curve" smooth="yes"/>
      <point x="613.0" y="1003.0"/>
      <point x="511.0" y="888.0"/>
      <point x="479.5" y="739.5" type="curve"/>
      <point x="426.0" y="739.5" type="line"/>
      <point x="473.5" y="581.0" type="line"/>
      <point x="506.5" y="642.5"/>
      <point x="563.0" y="694.0"/>
      <point x="664.0" y="694.0" type="curve" smooth="yes"/>
      <point x="794.0" y="694.0"/>
      <point x="825.5" y="615.0"/>
      <point x="825.5" y="517.0" type="curve" smooth="yes"/>
    </contour>
    <contour>
      <point x="105.0" y="0.0" type="line"/>
      <point x="480.5" y="0.0" type="line"/>
      <point x="480.5" y="652.5" type="line"/>
      <point x="466.0" y="688.0" type="line"/>
      <point x="479.5" y="974.0" type="line"/>
      <point x="105.0" y="974.0" type="line"/>
    </contour>
  </outline>
</glyph>
<glyph name="o" format="2">
  <advance width="1268.5"/>
  <unicode hex="006F"/>
  <anchor x="635.0" y="0.0" name="bottom"/>
  <anchor x="635.0" y="487.5" name="center"/>
  <anchor x="969.0" y="10.0" name="ogonek"/>
  <anchor x="635.0" y="974.0" name="top"/>
  <anchor x="1236.5" y="974.0" name="topright"/>
  <outline>
    <contour>
      <point x="633.5" y="-34.5" type="curve" smooth="yes"/>
      <point x="1008.0" y="-34.5"/>
      <point x="1205.5" y="141.5"/>
      <point x="1205.5" y="448.5" type="curve"/>
      <point x="1205.5" y="522.5" type="line"/>
      <point x="1205.5" y="832.0"/>
      <point x="1007.0" y="1011.0"/>
      <point x="633.5" y="1011.0" type="curve" smooth="yes"/>
      <point x="262.0" y="1011.0"/>
      <point x="63.0" y="832.0"/>
      <point x="63.0" y="522.5" type="curve"/>
      <point x="63.0" y="448.5" type="line"/>
      <point x="63.0" y="141.5"/>
      <point x="261.0" y="-34.5"/>
    </contour>
    <contour>
      <point x="633.5" y="256.5" type="curve" smooth="yes"/>
      <point x="510.5" y="256.5"/>
      <point x="439.5" y="322.5"/>
      <point x="439.5" y="442.0" type="curve" smooth="yes"/>
      <point x="439.5" y="529.5" type="line" smooth="yes"/>
      <point x="439.5" y="652.5"/>
      <point x="510.5" y="720.0"/>
      <point x="633.5" y="720.0" type="curve" smooth="yes"/>
      <point x="758.5" y="720.0"/>
      <point x="829.0" y="652.5"/>
      <point x="829.0" y="529.5" type="curve" smooth="yes"/>
      <point x="829.0" y="442.0" type="line" smooth="yes"/>
      <point x="829.0" y="322.5"/>
      <point x="758.5" y="256.5"/>
    </contour>
  </outline>
</glyph>
<glyph name="p" format="2">
  <advance width="1319.0"/>
  <unicode hex="0070"/>
  <anchor x="665.5" y="0.0" name="bottom"/>
  <anchor x="665.5" y="974.0" name="top"/>
  <outline>
    <contour>
      <point x="829.5" y="-28.0" type="curve" smooth="yes"/>
      <point x="1101.0" y="-28.0"/>
      <point x="1252.0" y="139.0"/>
      <point x="1252.0" y="459.0" type="curve" smooth="yes"/>
      <point x="1252.0" y="521.0" type="line" smooth="yes"/>
      <point x="1252.0" y="840.5"/>
      <point x="1102.5" y="1003.0"/>
      <point x="838.5" y="1003.0" type="curve" smooth="yes"/>
      <point x="610.5" y="1003.0"/>
      <point x="511.0" y="890.5"/>
      <point x="479.5" y="739.5" type="curve"/>
      <point x="393.0" y="739.5" type="line"/>
      <point x="466.5" y="581.0" type="line"/>
      <point x="501.0" y="650.0"/>
      <point x="578.0" y="705.5"/>
      <point x="685.0" y="705.5" type="curve" smooth="yes"/>
      <point x="809.0" y="705.5"/>
      <point x="873.0" y="644.0"/>
      <point x="873.0" y="526.5" type="curve" smooth="yes"/>
      <point x="873.0" y="456.5" type="line" smooth="yes"/>
      <point x="873.0" y="340.5"/>
      <point x="802.0" y="280.0"/>
      <point x="680.5" y="280.0" type="curve" smooth="yes"/>
      <point x="542.5" y="280.0"/>
      <point x="477.5" y="348.5"/>
      <point x="474.0" y="457.5" type="curve"/>
      <point x="379.0" y="229.0" type="line"/>
      <point x="483.0" y="229.0" type="line"/>
      <point x="515.0" y="71.5"/>
      <point x="618.5" y="-28.0"/>
    </contour>
    <contour>
      <point x="105.0" y="-341.0" type="line"/>
      <point x="478.0" y="-341.0" type="line"/>
      <point x="478.0" y="2.0" type="line"/>
      <point x="470.0" y="297.5" type="line"/>
      <point x="474.0" y="333.5" type="line"/>
      <point x="474.0" y="626.5" type="line"/>
      <point x="466.5" y="690.0" type="line"/>
      <point x="479.5" y="974.0" type="line"/>
      <point x="105.0" y="974.0" type="line"/>
    </contour>
  </outline>
</glyph>
<glyph name="q" format="2">
  <advance width="1319.0"/>
  <unicode hex="0071"/>
  <anchor x="653.5" y="0.0" name="bottom"/>
  <anchor x="653.5" y="974.0" name="top"/>
  <outline>
    <contour>
      <point x="479.0" y="-28.0" type="curve" smooth="yes"/>
      <point x="702.0" y="-28.0"/>
      <point x="806.0" y="82.5"/>
      <point x="836.0" y="229.0" type="curve"/>
      <point x="937.0" y="229.0" type="line"/>
      <point x="852.5" y="402.0" type="line"/>
      <point x="816.5" y="330.0"/>
      <point x="739.5" y="280.0"/>
      <point x="637.5" y="280.0" type="curve" smooth="yes"/>
      <point x="513.0" y="280.0"/>
      <point x="446.0" y="339.0"/>
      <point x="446.0" y="457.5" type="curve" smooth="yes"/>
      <point x="446.0" y="528.0" type="line" smooth="yes"/>
      <point x="446.0" y="645.0"/>
      <point x="514.0" y="705.5"/>
      <point x="638.0" y="705.5" type="curve" smooth="yes"/>
      <point x="775.0" y="705.5"/>
      <point x="841.5" y="636.0"/>
      <point x="845.0" y="525.5" type="curve"/>
      <point x="940.5" y="739.5" type="line"/>
      <point x="839.0" y="739.5" type="line"/>
      <point x="806.5" y="902.5"/>
      <point x="704.0" y="1003.0"/>
      <point x="489.0" y="1003.0" type="curve" smooth="yes"/>
      <point x="216.5" y="1003.0"/>
      <point x="67.0" y="837.0"/>
      <point x="67.0" y="515.0" type="curve" smooth="yes"/>
      <point x="67.0" y="453.0" type="line" smooth="yes"/>
      <point x="67.0" y="132.5"/>
      <point x="219.5" y="-28.0"/>
    </contour>
    <contour>
      <point x="841.0" y="-341.0" type="line"/>
      <point x="1214.0" y="-341.0" type="line"/>
      <point x="1214.0" y="974.0" type="line"/>
      <point x="839.5" y="974.0" type="line"/>
      <point x="851.5" y="710.0" type="line"/>
      <point x="845.0" y="669.5" type="line"/>
      <point x="845.0" y="336.5" type="line"/>
      <point x="849.0" y="300.5" type="line"/>
      <point x="841.0" y="2.0" type="line"/>
    </contour>
  </outline>
</glyph>
<glyph name="r" format="2">
  <advance width="909.0"/>
  <unicode hex="0072"/>
  <anchor x="293.0" y="0.0" name="bottom"/>
  <anchor x="471.0" y="974.0" name="top"/>
  <outline>
    <contour>
      <point x="473.5" y="515.0" type="line"/>
      <point x="518.0" y="587.0"/>
      <point x="612.5" y="634.5"/>
      <point x="758.0" y="634.5" type="curve" smooth="yes"/>
      <point x="800.5" y="634.5"/>
      <point x="848.5" y="630.0"/>
      <point x="884.0" y="623.0" type="curve"/>
      <point x="861.5" y="984.0" type="line"/>
      <point x="836.5" y="990.0"/>
      <point x="806.0" y="994.5"/>
      <point x="771.5" y="994.5" type="curve" smooth="yes"/>
      <point x="589.0" y="994.5"/>
      <point x="490.0" y="886.0"/>
      <point x="460.0" y="714.5" type="curve"/>
      <point x="379.0" y="714.5" type="line"/>
    </contour>
    <contour>
      <point x="105.0" y="0.0" type="line"/>
      <point x="480.5" y="0.0" type="line"/>
      <point x="480.5" y="638.5" type="line"/>
      <point x="444.5" y="638.5" type="line"/>
      <point x="460.0" y="974.0" type="line"/>
      <point x="105.0" y="974.0" type="line"/>
    </contour>
  </outline>
</glyph>
<glyph name="s" format="2">
  <advance width="1094.5"/>
  <unicode hex="0073"/>
  <anchor x="546.0" y="0.0" name="bottom"/>
  <anchor x="545.0" y="974.0" name="top"/>
  <outline>
    <contour>
      <point x="537.5" y="-32.0" type="curve" smooth="yes"/>
      <point x="884.0" y="-32.0"/>
      <point x="1047.0" y="70.5"/>
      <point x="1047.0" y="306.5" type="curve" smooth="yes"/>
      <point x="1047.0" y="309.5" type="line" smooth="yes"/>
      <point x="1047.0" y="510.5"/>
      <point x="917.0" y="565.0"/>
      <point x="615.5" y="608.0" type="curve" smooth="yes"/>
      <point x="431.0" y="634.0"/>
      <point x="408.0" y="646.0"/>
      <point x="408.0" y="684.5" type="curve" smooth="yes"/>
      <point x="408.0" y="685.5" type="line" smooth="yes"/>
      <point x="408.0" y="720.0"/>
      <point x="434.0" y="738.0"/>
      <point x="569.5" y="738.0" type="curve" smooth="yes"/>
      <point x="718.0" y="738.0"/>
      <point x="870.5" y="707.5"/>
      <point x="991.5" y="664.0" type="curve"/>
      <point x="957.5" y="937.5" type="line"/>
      <point x="852.0" y="978.0"/>
      <point x="704.0" y="1009.0"/>
      <point x="527.0" y="1009.0" type="curve" smooth="yes"/>
      <point x="213.0" y="1009.0"/>
      <point x="49.5" y="911.5"/>
      <point x="49.5" y="699.5" type="curve" smooth="yes"/>
      <point x="49.5" y="693.0" type="line" smooth="yes"/>
      <point x="49.5" y="515.0"/>
      <point x="148.5" y="429.0"/>
      <point x="457.5" y="386.0" type="curve" smooth="yes"/>
      <point x="627.0" y="361.5"/>
      <point x="678.5" y="358.0"/>
      <point x="678.5" y="307.0" type="curve" smooth="yes"/>
      <point x="678.5" y="306.0" type="line" smooth="yes"/>
      <point x="678.5" y="260.0"/>
      <point x="635.5" y="246.0"/>
      <point x="509.5" y="246.0" type="curve" smooth="yes"/>
      <point x="340.0" y="246.0"/>
      <point x="180.5" y="289.5"/>
      <point x="57.5" y="334.5" type="curve"/>
      <point x="92.0" y="40.0" type="line"/>
      <point x="203.0" y="0.0"/>
      <point x="356.0" y="-32.0"/>
    </contour>
  </outline>
</glyph>
<glyph name="t" format="2">
  <advance width="936.0"/>
  <unicode hex="0074"/>
  <anchor x="503.5" y="0.0" name="bottom"/>
  <anchor x="468.5" y="487.5" name="center"/>
  <anchor x="340.5" y="1208.0" name="top"/>
  <anchor x="648.5" y="1431.5" name="topright"/>
  <outline>
    <contour>
      <point x="562.0" y="-25.5" type="curve" smooth="yes"/>
      <point x="687.0" y="-25.5"/>
      <point x="793.0" y="-4.0"/>
      <point x="873.5" y="31.5" type="curve"/>
      <point x="908.0" y="331.5" type="line"/>
      <point x="848.0" y="308.5"/>
      <point x="766.0" y="289.0"/>
      <point x="693.0" y="289.0" type="curve" smooth="yes"/>
      <point x="553.0" y="289.0"/>
      <point x="520.5" y="333.5"/>
      <point x="520.5" y="432.5" type="curve" smooth="yes"/>
      <point x="520.5" y="824.0" type="line"/>
      <point x="147.5" y="824.0" type="line"/>
      <point x="147.5" y="379.5" type="line" smooth="yes"/>
      <point x="147.5" y="114.0"/>
      <point x="246.0" y="-25.5"/>
    </contour>
    <contour>
      <point x="6.0" y="684.5" type="line"/>
      <point x="865.5" y="684.5" type="line"/>
      <point x="900.5" y="974.0" type="line"/>
      <point x="6.0" y="974.0" type="line"/>
    </contour>
    <contour>
      <point x="154.5" y="947.0" type="line"/>
      <point x="511.0" y="947.0" type="line"/>
      <point x="523.5" y="1234.0" type="line"/>
      <point x="153.0" y="1205.0" type="line"/>
    </contour>
  </outline>
</glyph>
<glyph name="u" format="2">
  <advance width="1297.5"/>
  <unicode hex="0075"/>
  <anchor x="649.5" y="0.0" name="bottom"/>
  <anchor x="1230.0" y="5.0" name="ogonek"/>
  <anchor x="649.5" y="974.0" name="top"/>
  <anchor x="1281.0" y="974.0" name="topright"/>
  <outline>
    <contour>
      <point x="472.0" y="974.0" type="line"/>
      <point x="96.5" y="974.0" type="line"/>
      <point x="96.5" y="373.0" type="line" smooth="yes"/>
      <point x="96.5" y="108.5"/>
      <point x="216.5" y="-29.0"/>
      <point x="459.5" y="-29.0" type="curve" smooth="yes"/>
      <point x="684.5" y="-29.0"/>
      <point x="786.5" y="86.0"/>
      <point x="818.0" y="234.5" type="curve"/>
      <point x="871.5" y="234.5" type="line"/>
      <point x="824.0" y="393.0" type="line"/>
      <point x="791.0" y="331.5"/>
      <point x="734.5" y="280.0"/>
      <point x="633.5" y="280.0" type="curve" smooth="yes"/>
      <point x="503.5" y="280.0"/>
      <point x="472.0" y="359.0"/>
      <point x="472.0" y="457.0" type="curve" smooth="yes"/>
    </contour>
    <contour>
      <point x="1192.5" y="974.0" type="line"/>
      <point x="817.0" y="974.0" type="line"/>
      <point x="817.0" y="321.5" type="line"/>
      <point x="831.5" y="286.0" type="line"/>
      <point x="818.0" y="0.0" type="line"/>
      <point x="1192.5" y="0.0" type="line"/>
    </contour>
  </outline>
</glyph>
<glyph name="v" format="2">
  <advance width="1206.0"/>
  <unicode hex="0076"/>
  <anchor x="603.0" y="0.0" name="bottom"/>
  <anchor x="603.0" y="974.0" name="top"/>
  <outline>
    <contour>
      <point x="620.0" y="241.5" type="line"/>
      <point x="593.5" y="241.5" type="line"/>
      <point x="399.5" y="974.0" type="line"/>
      <point x="7.5" y="974.0" type="line"/>
      <point x="307.0" y="0.0" type="line"/>
      <point x="903.0" y="0.0" type="line"/>
      <point x="1198.5" y="974.0" type="line"/>
      <point x="810.0" y="974.0" type="line"/>
    </contour>
  </outline>
</glyph>
<glyph name="w" format="2">
  <advance width="1771.5"/>
  <unicode hex="0077"/>
  <anchor x="886.0" y="0.0" name="bottom"/>
  <anchor x="886.0" y="974.0" name="top"/>
  <outline>
    <contour>
      <point x="235.5" y="0.0" type="line"/>
      <point x="762.0" y="0.0" type="line"/>
      <point x="860.5" y="574.5" type="line"/>
      <point x="878.5" y="679.5" type="line"/>
      <point x="894.5" y="679.5" type="line"/>
      <point x="912.0" y="574.5" type="line"/>
      <point x="1010.5" y="0.0" type="line"/>
      <point x="1536.0" y="0.0" type="line"/>
      <point x="1757.0" y="974.0" type="line"/>
      <point x="1374.0" y="974.0" type="line"/>
      <point x="1254.0" y="264.0" type="line"/>
      <point x="1235.5" y="264.0" type="line"/>
      <point x="1109.5" y="949.0" type="line"/>
      <point x="661.0" y="949.0" type="line"/>
      <point x="540.5" y="264.0" type="line"/>
      <point x="519.5" y="264.0" type="line"/>
      <point x="399.5" y="974.0" type="line"/>
      <point x="14.5" y="974.0" type="line"/>
    </contour>
  </outline>
</glyph>
<glyph name="x" format="2">
  <advance width="1233.5"/>
  <unicode hex="0078"/>
  <anchor x="617.0" y="0.0" name="bottom"/>
  <anchor x="617.0" y="974.0" name="top"/>
  <outline>
    <contour>
      <point x="8.0" y="0.0" type="line"/>
      <point x="424.5" y="0.0" type="line"/>
      <point x="605.5" y="326.0" type="line"/>
      <point x="628.0" y="326.0" type="line"/>
      <point x="809.0" y="0.0" type="line"/>
      <point x="1225.5" y="0.0" type="line"/>
      <point x="889.5" y="553.0" type="line"/>
      <point x="889.5" y="458.5" type="line"/>
      <point x="1214.5" y="974.0" type="line"/>
      <point x="800.0" y="974.0" type="line"/>
      <point x="628.0" y="663.5" type="line"/>
      <point x="605.5" y="663.5" type="line"/>
      <point x="434.0" y="974.0" type="line"/>
      <point x="19.0" y="974.0" type="line"/>
      <point x="344.5" y="458.5" type="line"/>
      <point x="344.5" y="554.0" type="line"/>
    </contour>
  </outline>
</glyph>
<glyph name="y" format="2">
  <advance width="1207.0"/>
  <unicode hex="0079"/>
  <anchor x="1019.5" y="-25.0" name="bottom"/>
  <anchor x="604.0" y="974.0" name="top"/>
  <outline>
    <contour>
      <point x="770.5" y="289.5" type="line"/>
      <point x="580.5" y="289.5" type="line"/>
      <point x="398.5" y="974.0" type="line"/>
      <point x="7.5" y="974.0" type="line"/>
      <point x="314.5" y="46.5" type="line"/>
      <point x="714.0" y="46.5" type="line"/>
      <point x="543.0" y="201.0" type="line"/>
      <point x="350.5" y="-341.0" type="line"/>
      <point x="731.0" y="-341.0" type="line"/>
      <point x="1199.5" y="974.0" type="line"/>
      <point x="811.5" y="974.0" type="line"/>
      <point x="559.5" y="178.0" type="line"/>
    </contour>
  </outline>
</glyph>
<glyph name="z" format="2">
  <advance width="1106.0"/>
  <unicode hex="007A"/>
  <anchor x="553.0" y="0.0" name="bottom"/>
  <anchor x="553.0" y="487.5" name="center"/>
  <anchor x="553.0" y="974.0" name="top"/>
  <outline>
    <contour>
      <point x="1032.5" y="300.0" type="line"/>
      <point x="552.5" y="300.0" type="line"/>
      <point x="1025.5" y="704.5" type="line"/>
      <point x="1025.5" y="973.0" type="line"/>
      <point x="77.5" y="973.0" type="line"/>
      <point x="77.5" y="673.5" type="line"/>
      <point x="544.5" y="673.5" type="line"/>
      <point x="73.5" y="269.0" type="line"/>
      <point x="73.5" y="0.0" type="line"/>
      <point x="1032.5" y="0.0" type="line"/>
    </contour>
  </outline>
</glyph>
<glyph name="braceleft" format="2">
  <advance width="767.0"/>
  <unicode hex="007B"/>
  <outline>
    <contour>
      <point x="714.0" y="1330.5" type="line"/>
      <point x="662.5" y="1343.5"/>
      <point x="593.0" y="1355.0"/>
      <point x="523.0" y="1355.0" type="curve" smooth="yes"/>
      <point x="289.5" y="1355.0"/>
      <point x="178.5" y="1262.0"/>
      <point x="178.5" y="1030.0" type="curve" smooth="yes"/>
      <point x="178.5" y="971.5"/>
      <point x="191.0" y="850.0"/>
      <point x="191.0" y="796.5" type="curve" smooth="yes"/>
      <point x="191.0" y="725.5"/>
      <point x="156.0" y="690.0"/>
      <point x="59.0" y="687.0" type="curve"/>
      <point x="59.0" y="403.5" type="line"/>
      <point x="156.0" y="400.5"/>
      <point x="191.0" y="366.5"/>
      <point x="191.0" y="295.5" type="curve" smooth="yes"/>
      <point x="191.0" y="242.0"/>
      <point x="178.5" y="120.5"/>
      <point x="178.5" y="61.5" type="curve" smooth="yes"/>
      <point x="178.5" y="-172.5"/>
      <point x="289.5" y="-266.0"/>
      <point x="523.0" y="-266.0" type="curve" smooth="yes"/>
      <point x="593.0" y="-266.0"/>
      <point x="662.0" y="-255.5"/>
      <point x="714.0" y="-242.0" type="curve"/>
      <point x="714.0" y="12.5" type="line"/>
      <point x="692.5" y="8.0"/>
      <point x="666.0" y="3.0"/>
      <point x="635.5" y="3.0" type="curve" smooth="yes"/>
      <point x="554.0" y="3.0"/>
      <point x="521.0" y="33.0"/>
      <point x="521.0" y="107.0" type="curve" smooth="yes"/>
      <point x="521.0" y="158.5"/>
      <point x="533.5" y="268.0"/>
      <point x="533.5" y="326.5" type="curve" smooth="yes"/>
      <point x="533.5" y="444.5"/>
      <point x="488.0" y="522.5"/>
      <point x="340.5" y="541.5" type="curve"/>
      <point x="351.0" y="522.0" type="line"/>
      <point x="351.0" y="552.0" type="line"/>
      <point x="489.0" y="573.0"/>
      <point x="533.5" y="648.5"/>
      <point x="533.5" y="765.0" type="curve" smooth="yes"/>
      <point x="533.5" y="823.5"/>
      <point x="521.0" y="933.0"/>
      <point x="521.0" y="984.5" type="curve" smooth="yes"/>
      <point x="521.0" y="1058.5"/>
      <point x="552.5" y="1088.5"/>
      <point x="630.0" y="1088.5" type="curve" smooth="yes"/>
      <point x="663.0" y="1088.5"/>
      <point x="691.0" y="1083.5"/>
      <point x="714.0" y="1079.0" type="curve"/>
    </contour>
  </outline>
</glyph>
<glyph name="bar" format="2">
  <advance width="582.5"/>
  <unicode hex="007C"/>
  <outline>
    <contour>
      <point x="446.5" y="-419.0" type="line"/>
      <point x="446.5" y="1418.0" type="line"/>
      <point x="136.0" y="1418.0" type="line"/>
      <point x="136.0" y="-419.0" type="line"/>
    </contour>
  </outline>
</glyph>
<glyph name="braceright" format="2">
  <advance width="767.0"/>
  <unicode hex="007D"/>
  <outline>
    <contour>
      <point x="53.0" y="1330.5" type="curve"/>
      <point x="53.0" y="1079.0" type="line"/>
      <point x="76.0" y="1083.5"/>
      <point x="104.0" y="1088.5"/>
      <point x="137.0" y="1088.5" type="curve" smooth="yes"/>
      <point x="214.5" y="1088.5"/>
      <point x="246.0" y="1058.5"/>
      <point x="246.0" y="984.5" type="curve" smooth="yes"/>
      <point x="246.0" y="933.0"/>
      <point x="233.5" y="823.5"/>
      <point x="233.5" y="765.0" type="curve" smooth="yes"/>
      <point x="233.5" y="648.5"/>
      <point x="278.0" y="573.0"/>
      <point x="416.0" y="552.0" type="curve"/>
      <point x="416.0" y="522.0" type="line"/>
      <point x="426.5" y="541.5" type="line"/>
      <point x="279.0" y="522.5"/>
      <point x="233.5" y="444.5"/>
      <point x="233.5" y="326.5" type="curve" smooth="yes"/>
      <point x="233.5" y="268.0"/>
      <point x="246.0" y="158.5"/>
      <point x="246.0" y="107.0" type="curve" smooth="yes"/>
      <point x="246.0" y="33.0"/>
      <point x="213.0" y="3.0"/>
      <point x="131.5" y="3.0" type="curve" smooth="yes"/>
      <point x="101.0" y="3.0"/>
      <point x="74.5" y="8.0"/>
      <point x="53.0" y="12.5" type="curve"/>
      <point x="53.0" y="-242.0" type="line"/>
      <point x="105.0" y="-255.5"/>
      <point x="174.0" y="-266.0"/>
      <point x="244.0" y="-266.0" type="curve" smooth="yes"/>
      <point x="477.5" y="-266.0"/>
      <point x="588.5" y="-172.5"/>
      <point x="588.5" y="61.5" type="curve" smooth="yes"/>
      <point x="588.5" y="120.5"/>
      <point x="576.0" y="242.0"/>
      <point x="576.0" y="295.5" type="curve" smooth="yes"/>
      <point x="576.0" y="366.5"/>
      <point x="611.0" y="400.5"/>
      <point x="708.0" y="403.5" type="curve"/>
      <point x="708.0" y="687.0" type="line"/>
      <point x="611.0" y="690.0"/>
      <point x="576.0" y="725.5"/>
      <point x="576.0" y="796.5" type="curve" smooth="yes"/>
      <point x="576.0" y="850.0"/>
      <point x="588.5" y="971.5"/>
      <point x="588.5" y="1030.0" type="curve" smooth="yes"/>
      <point x="588.5" y="1262.0"/>
      <point x="477.5" y="1355.0"/>
      <point x="244.0" y="1355.0" type="curve" smooth="yes"/>
      <point x="174.0" y="1355.0"/>
      <point x="104.5" y="1343.5"/>
    </contour>
  </outline>
</glyph>
<glyph name="asciitilde" format="2">
  <advance width="1240.0"/>
  <unicode hex="007E"/>
  <outline>
    <contour>
      <point x="839.0" y="441.5" type="curve" smooth="yes"/>
      <point x="1053.0" y="441.5"/>
      <point x="1140.5" y="560.5"/>
      <point x="1140.5" y="783.5" type="curve" smooth="yes"/>
      <point x="1140.5" y="844.5" type="line"/>
      <point x="877.0" y="844.5" type="line"/>
      <point x="877.0" y="840.5" type="line" smooth="yes"/>
      <point x="873.0" y="770.5"/>
      <point x="855.5" y="736.5"/>
      <point x="794.0" y="736.5" type="curve" smooth="yes"/>
      <point x="693.0" y="736.5"/>
      <point x="567.0" y="817.0"/>
      <point x="399.5" y="817.0" type="curve" smooth="yes"/>
      <point x="186.5" y="817.0"/>
      <point x="99.5" y="699.5"/>
      <point x="99.5" y="475.5" type="curve" smooth="yes"/>
      <point x="99.5" y="413.5" type="line"/>
      <point x="362.0" y="413.5" type="line"/>
      <point x="362.0" y="424.5" type="line" smooth="yes"/>
      <point x="366.5" y="490.0"/>
      <point x="383.5" y="521.5"/>
      <point x="445.0" y="521.5" type="curve" smooth="yes"/>
      <point x="546.5" y="521.5"/>
      <point x="679.0" y="441.5"/>
    </contour>
  </outline>
</glyph>
<glyph name="exclamdown" format="2">
  <advance width="584.0"/>
  <unicode hex="00A1"/>
  <outline>
    <contour>
      <point x="453.5" y="541.0" type="line"/>
      <point x="131.5" y="541.0" type="line"/>
      <point x="89.0" y="-304.0" type="line"/>
      <point x="495.0" y="-304.0" type="line"/>
    </contour>
    <contour>
      <point x="293.0" y="1005.5" type="curve" smooth="yes"/>
      <point x="156.5" y="1005.5"/>
      <point x="95.0" y="935.5"/>
      <point x="95.0" y="821.5" type="curve" smooth="yes"/>
      <point x="95.0" y="813.5" type="line" smooth="yes"/>
      <point x="95.0" y="699.5"/>
      <point x="156.5" y="628.5"/>
      <point x="293.0" y="628.5" type="curve" smooth="yes"/>
      <point x="429.0" y="628.5"/>
      <point x="492.0" y="699.5"/>
      <point x="492.0" y="813.5" type="curve" smooth="yes"/>
      <point x="492.0" y="821.5" type="line" smooth="yes"/>
      <point x="492.0" y="935.5"/>
      <point x="429.0" y="1005.5"/>
    </contour>
  </outline>
</glyph>
<glyph name="cent" format="2">
  <advance width="1057.5"/>
  <unicode hex="00A2"/>
  <anchor x="570.0" y="0.0" name="bottom"/>
  <anchor x="570.0" y="974.0" name="top"/>
  <outline>
    <contour>
      <point x="777.5" y="817.5" type="line"/>
      <point x="777.5" y="1194.0" type="line"/>
      <point x="465.5" y="1194.0" type="line"/>
      <point x="465.5" y="817.5" type="line"/>
    </contour>
    <contour>
      <point x="777.5" y="-217.5" type="line"/>
      <point x="777.5" y="151.5" type="line"/>
      <point x="465.5" y="151.5" type="line"/>
      <point x="465.5" y="-217.5" type="line"/>
    </contour>
    <component base="c"/>
  </outline>
</glyph>
<glyph name="sterling" format="2">
  <advance width="1285.5"/>
  <unicode hex="00A3"/>
  <outline>
    <contour>
      <point x="77.5" y="532.0" type="line"/>
      <point x="1103.0" y="532.0" type="line"/>
      <point x="1120.5" y="768.5" type="line"/>
      <point x="95.0" y="768.5" type="line"/>
    </contour>
    <contour>
      <point x="456.5" y="313.0" type="line"/>
      <point x="456.5" y="324.5" type="line"/>
      <point x="621.5" y="356.0"/>
      <point x="670.5" y="415.5"/>
      <point x="670.5" y="530.5" type="curve" smooth="yes"/>
      <point x="670.5" y="622.0"/>
      <point x="606.0" y="738.5"/>
      <point x="606.0" y="846.5" type="curve" smooth="yes"/>
      <point x="606.0" y="940.0"/>
      <point x="643.0" y="992.0"/>
      <point x="845.5" y="992.0" type="curve" smooth="yes"/>
      <point x="956.0" y="992.0"/>
      <point x="1058.0" y="978.0"/>
      <point x="1165.0" y="955.5" type="curve"/>
      <point x="1135.0" y="1268.5" type="line"/>
      <point x="1023.0" y="1296.0"/>
      <point x="880.0" y="1310.5"/>
      <point x="748.0" y="1310.5" type="curve" smooth="yes"/>
      <point x="369.0" y="1310.5"/>
      <point x="199.0" y="1178.0"/>
      <point x="199.0" y="911.0" type="curve" smooth="yes"/>
      <point x="199.0" y="767.0"/>
      <point x="272.0" y="587.5"/>
      <point x="272.0" y="471.0" type="curve" smooth="yes"/>
      <point x="272.0" y="388.5"/>
      <point x="243.5" y="341.5"/>
      <point x="163.0" y="316.0" type="curve" smooth="yes"/>
      <point x="83.5" y="295.5" type="line"/>
      <point x="83.5" y="0.0" type="line"/>
      <point x="1230.5" y="0.0" type="line"/>
      <point x="1230.5" y="313.0" type="line"/>
    </contour>
  </outline>
</glyph>
<glyph name="currency" format="2">
  <advance width="1241.5"/>
  <unicode hex="00A4"/>
  <outline>
    <contour>
      <point x="619.0" y="181.5" type="curve" smooth="yes"/>
      <point x="922.0" y="181.5"/>
      <point x="1084.5" y="331.5"/>
      <point x="1084.5" y="595.0" type="curve" smooth="yes"/>
      <point x="1084.5" y="611.5" type="line" smooth="yes"/>
      <point x="1084.5" y="875.0"/>
      <point x="922.0" y="1025.0"/>
      <point x="619.0" y="1025.0" type="curve" smooth="yes"/>
      <point x="317.0" y="1025.0"/>
      <point x="154.5" y="875.0"/>
      <point x="154.5" y="611.5" type="curve" smooth="yes"/>
      <point x="154.5" y="595.0" type="line" smooth="yes"/>
      <point x="154.5" y="331.5"/>
      <point x="317.0" y="181.5"/>
    </contour>
    <contour>
      <point x="619.0" y="461.0" type="curve" smooth="yes"/>
      <point x="534.5" y="461.0"/>
      <point x="490.0" y="507.5"/>
      <point x="490.0" y="591.5" type="curve" smooth="yes"/>
      <point x="490.0" y="614.5" type="line" smooth="yes"/>
      <point x="490.0" y="699.0"/>
      <point x="534.5" y="745.0"/>
      <point x="619.0" y="745.0" type="curve" smooth="yes"/>
      <point x="704.5" y="745.0"/>
      <point x="748.0" y="698.5"/>
      <point x="748.5" y="614.5" type="curve" smooth="yes"/>
      <point x="749.0" y="591.5" type="line" smooth="yes"/>
      <point x="749.5" y="507.5"/>
      <point x="704.5" y="461.0"/>
    </contour>
    <contour>
      <point x="938.0" y="481.0" type="line"/>
      <point x="736.0" y="301.5" type="line"/>
      <point x="972.5" y="66.5" type="line"/>
      <point x="1171.5" y="248.0" type="line"/>
    </contour>
    <contour>
      <point x="500.0" y="296.0" type="line"/>
      <point x="311.5" y="487.0" type="line"/>
      <point x="70.5" y="248.0" type="line"/>
      <point x="269.0" y="66.5" type="line"/>
    </contour>
    <contour>
      <point x="287.0" y="737.5" type="line"/>
      <point x="497.0" y="909.0" type="line"/>
      <point x="269.0" y="1135.0" type="line"/>
      <point x="70.5" y="953.5" type="line"/>
    </contour>
    <contour>
      <point x="743.5" y="906.5" type="line"/>
      <point x="939.0" y="722.0" type="line"/>
      <point x="1171.0" y="953.5" type="line"/>
      <point x="972.5" y="1135.0" type="line"/>
    </contour>
  </outline>
</glyph>
<glyph name="yen" format="2">
  <advance width="1379.0"/>
  <unicode hex="00A5"/>
  <anchor x="689.5" y="0.0" name="bottom"/>
  <anchor x="689.5" y="1278.0" name="top"/>
  <anchor x="20.0" y="1278.0" name="topleft"/>
  <outline>
    <contour>
      <point x="755.0" y="501.5" type="line"/>
      <point x="1249.5" y="501.5" type="line"/>
      <point x="1266.5" y="693.5" type="line"/>
      <point x="812.5" y="693.5" type="line"/>
    </contour>
    <contour>
      <point x="134.0" y="403.0" type="line"/>
      <point x="115.5" y="211.0" type="line"/>
      <point x="1249.5" y="211.0" type="line"/>
      <point x="1266.5" y="403.0" type="line"/>
    </contour>
    <contour>
      <point x="572.5" y="693.5" type="line"/>
      <point x="134.0" y="693.5" type="line"/>
      <point x="115.5" y="501.5" type="line"/>
      <point x="631.5" y="501.5" type="line"/>
    </contour>
    <component base="Y"/>
  </outline>
</glyph>
<glyph name="brokenbar" format="2">
  <advance width="584.5"/>
  <unicode hex="00A6"/>
  <outline>
    <contour>
      <point x="448.5" y="577.0" type="line"/>
      <point x="448.5" y="1418.0" type="line"/>
      <point x="136.0" y="1418.0" type="line"/>
      <point x="136.0" y="577.0" type="line"/>
    </contour>
    <contour>
      <point x="448.5" y="-419.0" type="line"/>
      <point x="448.5" y="428.0" type="line"/>
      <point x="136.0" y="428.0" type="line"/>
      <point x="136.0" y="-419.0" type="line"/>
    </contour>
  </outline>
</glyph>
<glyph name="section" format="2">
  <advance width="1136.5"/>
  <unicode hex="00A7"/>
  <outline>
    <contour>
      <point x="626.0" y="491.0" type="curve"/>
      <point x="853.0" y="410.5" type="line"/>
      <point x="852.5" y="480.5" type="line"/>
      <point x="983.0" y="488.5"/>
      <point x="1058.0" y="560.0"/>
      <point x="1058.0" y="668.5" type="curve" smooth="yes"/>
      <point x="1058.0" y="673.5" type="line" smooth="yes"/>
      <point x="1058.0" y="834.5"/>
      <point x="929.5" y="877.5"/>
      <point x="652.5" y="915.5" type="curve" smooth="yes"/>
      <point x="452.0" y="946.5"/>
      <point x="434.5" y="957.5"/>
      <point x="434.5" y="992.5" type="curve" smooth="yes"/>
      <point x="434.5" y="993.0" type="line" smooth="yes"/>
      <point x="434.5" y="1022.0"/>
      <point x="458.5" y="1038.0"/>
      <point x="588.5" y="1038.0" type="curve" smooth="yes"/>
      <point x="734.5" y="1038.0"/>
      <point x="884.0" y="1008.0"/>
      <point x="1002.5" y="964.0" type="curve"/>
      <point x="968.5" y="1238.0" type="line"/>
      <point x="864.5" y="1279.0"/>
      <point x="719.5" y="1310.5"/>
      <point x="546.0" y="1310.5" type="curve" smooth="yes"/>
      <point x="236.5" y="1310.5"/>
      <point x="76.0" y="1214.5"/>
      <point x="76.0" y="1003.5" type="curve" smooth="yes"/>
      <point x="76.0" y="997.0" type="line" smooth="yes"/>
      <point x="76.0" y="794.5"/>
      <point x="188.5" y="732.5"/>
      <point x="482.0" y="684.0" type="curve" smooth="yes"/>
      <point x="651.0" y="655.5"/>
      <point x="705.5" y="649.5"/>
      <point x="705.5" y="581.0" type="curve" smooth="yes"/>
      <point x="705.5" y="579.0" type="line" smooth="yes"/>
      <point x="705.5" y="541.5"/>
      <point x="679.5" y="517.5"/>
    </contour>
    <contour>
      <point x="508.5" y="715.5" type="curve"/>
      <point x="262.5" y="778.0" type="line"/>
      <point x="263.0" y="723.5" type="line"/>
      <point x="160.5" y="708.0"/>
      <point x="76.5" y="651.0"/>
      <point x="76.5" y="536.5" type="curve" smooth="yes"/>
      <point x="76.5" y="528.5" type="line" smooth="yes"/>
      <point x="76.5" y="382.0"/>
      <point x="179.5" y="323.0"/>
      <point x="471.5" y="281.5" type="curve" smooth="yes"/>
      <point x="643.0" y="254.0"/>
      <point x="689.5" y="250.5"/>
      <point x="689.5" y="204.5" type="curve" smooth="yes"/>
      <point x="689.5" y="203.5" type="line" smooth="yes"/>
      <point x="689.5" y="163.5"/>
      <point x="647.5" y="151.5"/>
      <point x="526.5" y="151.5" type="curve" smooth="yes"/>
      <point x="361.5" y="151.5"/>
      <point x="204.0" y="195.5"/>
      <point x="83.5" y="241.0" type="curve"/>
      <point x="118.0" y="-54.5" type="line"/>
      <point x="226.0" y="-96.0"/>
      <point x="375.0" y="-129.0"/>
      <point x="553.0" y="-129.0" type="curve" smooth="yes"/>
      <point x="896.5" y="-129.0"/>
      <point x="1058.0" y="-23.5"/>
      <point x="1058.0" y="206.5" type="curve" smooth="yes"/>
      <point x="1058.0" y="209.5" type="line" smooth="yes"/>
      <point x="1058.0" y="415.5"/>
      <point x="931.0" y="472.5"/>
      <point x="636.5" y="513.0" type="curve" smooth="yes"/>
      <point x="450.0" y="540.0"/>
      <point x="419.0" y="568.0"/>
      <point x="419.0" y="621.0" type="curve" smooth="yes"/>
      <point x="419.0" y="623.0" type="line"/>
      <point x="419.0" y="658.5"/>
      <point x="441.5" y="685.0"/>
    </contour>
  </outline>
</glyph>
<glyph name="copyright" format="2">
  <advance width="1572.5"/>
  <unicode hex="00A9"/>
  <outline>
    <contour>
      <point x="786.0" y="-39.0" type="curve" smooth="yes"/>
      <point x="1240.0" y="-39.0"/>
      <point x="1497.5" y="200.0"/>
      <point x="1497.5" y="609.0" type="curve" smooth="yes"/>
      <point x="1497.5" y="679.5" type="line" smooth="yes"/>
      <point x="1497.5" y="1078.0"/>
      <point x="1240.0" y="1311.0"/>
      <point x="786.0" y="1311.0" type="curve" smooth="yes"/>
      <point x="332.0" y="1311.0"/>
      <point x="75.0" y="1078.0"/>
      <point x="75.0" y="679.5" type="curve" smooth="yes"/>
      <point x="75.0" y="609.0" type="line" smooth="yes"/>
      <point x="75.0" y="200.0"/>
      <point x="332.0" y="-39.0"/>
    </contour>
    <contour>
      <point x="828.5" y="306.0" type="curve" smooth="yes"/>
      <point x="916.0" y="306.0"/>
      <point x="996.5" y="324.5"/>
      <point x="1051.0" y="352.0" type="curve"/>
      <point x="1070.5" y="544.5" type="line"/>
      <point x="1012.5" y="519.0"/>
      <point x="955.0" y="503.0"/>
      <point x="883.0" y="503.0" type="curve" smooth="yes"/>
      <point x="771.5" y="503.0"/>
      <point x="719.5" y="549.5"/>
      <point x="719.5" y="630.5" type="curve" smooth="yes"/>
      <point x="719.5" y="649.0" type="line" smooth="yes"/>
      <point x="719.5" y="727.5"/>
      <point x="765.0" y="772.0"/>
      <point x="876.0" y="772.0" type="curve" smooth="yes"/>
      <point x="950.0" y="772.0"/>
      <point x="1011.5" y="753.5"/>
      <point x="1064.5" y="728.5" type="curve"/>
      <point x="1043.5" y="920.5" type="line"/>
      <point x="991.5" y="947.0"/>
      <point x="913.0" y="965.0"/>
      <point x="827.0" y="965.0" type="curve" smooth="yes"/>
      <point x="590.5" y="965.0"/>
      <point x="478.0" y="848.0"/>
      <point x="478.0" y="650.0" type="curve" smooth="yes"/>
      <point x="478.0" y="627.0" type="line" smooth="yes"/>
      <point x="478.0" y="423.5"/>
      <point x="590.0" y="306.0"/>
    </contour>
    <contour>
      <point x="786.0" y="154.0" type="curve" smooth="yes"/>
      <point x="483.0" y="154.0"/>
      <point x="310.5" y="320.0"/>
      <point x="310.5" y="603.5" type="curve" smooth="yes"/>
      <point x="310.5" y="685.5" type="line" smooth="yes"/>
      <point x="310.5" y="959.0"/>
      <point x="483.0" y="1118.0"/>
      <point x="786.0" y="1118.0" type="curve" smooth="yes"/>
      <point x="1089.0" y="1118.0"/>
      <point x="1262.0" y="959.0"/>
      <point x="1262.0" y="685.5" type="curve" smooth="yes"/>
      <point x="1262.0" y="603.5" type="line" smooth="yes"/>
      <point x="1262.0" y="320.0"/>
      <point x="1089.0" y="154.0"/>
    </contour>
  </outline>
</glyph>
<glyph name="ordfeminine" format="2">
  <advance width="760.0"/>
  <unicode hex="00AA"/>
  <outline>
    <contour>
      <point x="448.0" y="639.0" type="line"/>
      <point x="697.5" y="639.0" type="line"/>
      <point x="697.5" y="1003.5" type="line" smooth="yes"/>
      <point x="697.5" y="1154.5"/>
      <point x="640.0" y="1291.5"/>
      <point x="370.5" y="1291.5" type="curve" smooth="yes"/>
      <point x="262.0" y="1291.5"/>
      <point x="168.0" y="1269.5"/>
      <point x="96.0" y="1239.5" type="curve"/>
      <point x="73.0" y="1053.5" type="line"/>
      <point x="152.5" y="1080.5"/>
      <point x="235.5" y="1103.5"/>
      <point x="323.5" y="1103.5" type="curve" smooth="yes"/>
      <point x="422.0" y="1103.5"/>
      <point x="451.5" y="1079.0"/>
      <point x="451.5" y="1029.5" type="curve"/>
      <point x="453.0" y="979.0" type="line"/>
      <point x="453.0" y="808.0" type="line"/>
      <point x="456.0" y="790.5" type="line"/>
    </contour>
    <contour>
      <point x="241.0" y="622.0" type="curve" smooth="yes"/>
      <point x="375.0" y="622.0"/>
      <point x="426.5" y="681.0"/>
      <point x="447.0" y="763.5" type="curve"/>
      <point x="493.5" y="763.5" type="line"/>
      <point x="454.5" y="846.5" type="line"/>
      <point x="436.5" y="821.5"/>
      <point x="397.0" y="798.5"/>
      <point x="347.0" y="798.5" type="curve" smooth="yes"/>
      <point x="303.5" y="798.5"/>
      <point x="287.5" y="817.5"/>
      <point x="287.5" y="845.0" type="curve" smooth="yes"/>
      <point x="287.5" y="847.5" type="line" smooth="yes"/>
      <point x="287.5" y="874.5"/>
      <point x="302.5" y="889.5"/>
      <point x="347.5" y="896.0" type="curve" smooth="yes"/>
      <point x="477.5" y="912.5" type="line"/>
      <point x="467.5" y="1044.5" type="line"/>
      <point x="296.5" y="1026.0" type="line" smooth="yes"/>
      <point x="133.5" y="1007.0"/>
      <point x="38.5" y="959.5"/>
      <point x="38.5" y="822.0" type="curve" smooth="yes"/>
      <point x="38.5" y="810.0" type="line" smooth="yes"/>
      <point x="38.5" y="692.5"/>
      <point x="109.0" y="622.0"/>
    </contour>
  </outline>
</glyph>
<glyph name="registered" format="2">
  <advance width="931.5"/>
  <unicode hex="00AE"/>
  <outline>
    <contour>
      <point x="466.0" y="498.0" type="curve" smooth="yes"/>
      <point x="736.0" y="498.0"/>
      <point x="892.5" y="641.0"/>
      <point x="892.5" y="879.5" type="curve" smooth="yes"/>
      <point x="892.5" y="916.5" type="line" smooth="yes"/>
      <point x="892.5" y="1155.5"/>
      <point x="736.0" y="1299.5"/>
      <point x="466.0" y="1299.5" type="curve" smooth="yes"/>
      <point x="195.0" y="1299.5"/>
      <point x="39.0" y="1155.5"/>
      <point x="39.0" y="916.5" type="curve" smooth="yes"/>
      <point x="39.0" y="879.5" type="line" smooth="yes"/>
      <point x="39.0" y="641.0"/>
      <point x="195.0" y="498.0"/>
    </contour>
    <contour>
      <point x="466.0" y="615.5" type="curve" smooth="yes"/>
      <point x="275.0" y="615.5"/>
      <point x="179.5" y="710.0"/>
      <point x="179.5" y="877.5" type="curve" smooth="yes"/>
      <point x="179.5" y="920.5" type="line" smooth="yes"/>
      <point x="179.5" y="1087.5"/>
      <point x="275.0" y="1181.5"/>
      <point x="466.0" y="1181.5" type="curve" smooth="yes"/>
      <point x="657.0" y="1181.5"/>
      <point x="752.0" y="1087.5"/>
      <point x="752.0" y="920.5" type="curve" smooth="yes"/>
      <point x="752.0" y="877.5" type="line" smooth="yes"/>
      <point x="752.0" y="710.0"/>
      <point x="657.0" y="615.5"/>
    </contour>
    <contour>
      <point x="529.0" y="724.0" type="line"/>
      <point x="663.0" y="724.0" type="line"/>
      <point x="651.0" y="792.0" type="line" smooth="yes"/>
      <point x="638.5" y="860.5"/>
      <point x="618.5" y="888.5"/>
      <point x="545.5" y="895.5" type="curve"/>
      <point x="560.5" y="880.0" type="line"/>
      <point x="560.5" y="898.0" type="line"/>
      <point x="622.0" y="901.0"/>
      <point x="653.0" y="931.0"/>
      <point x="653.0" y="985.5" type="curve" smooth="yes"/>
      <point x="653.0" y="989.5" type="line" smooth="yes"/>
      <point x="653.0" y="1060.0"/>
      <point x="605.5" y="1098.0"/>
      <point x="500.0" y="1098.0" type="curve" smooth="yes"/>
      <point x="378.5" y="1098.0" type="line"/>
      <point x="378.5" y="1002.0" type="line"/>
      <point x="474.5" y="1002.0" type="line" smooth="yes"/>
      <point x="509.5" y="1002.0"/>
      <point x="524.0" y="988.5"/>
      <point x="524.0" y="964.5" type="curve" smooth="yes"/>
      <point x="524.0" y="959.5" type="line" smooth="yes"/>
      <point x="524.0" y="934.5"/>
      <point x="509.5" y="921.0"/>
      <point x="474.5" y="921.0" type="curve" smooth="yes"/>
      <point x="378.5" y="920.5" type="line"/>
      <point x="378.5" y="829.0" type="line"/>
      <point x="461.5" y="828.0" type="line" smooth="yes"/>
      <point x="503.0" y="827.5"/>
      <point x="516.5" y="814.5"/>
      <point x="522.5" y="771.5" type="curve" smooth="yes"/>
    </contour>
    <contour>
      <point x="297.0" y="724.0" type="line"/>
      <point x="424.0" y="724.0" type="line"/>
      <point x="424.0" y="843.5" type="line"/>
      <point x="423.5" y="882.5" type="line"/>
      <point x="423.5" y="1098.0" type="line"/>
      <point x="297.0" y="1098.0" type="line"/>
    </contour>
  </outline>
</glyph>
<glyph name="degree" format="2">
  <advance width="757.0"/>
  <unicode hex="00B0"/>
  <outline>
    <contour>
      <point x="378.5" y="707.5" type="curve" smooth="yes"/>
      <point x="588.5" y="707.5"/>
      <point x="704.0" y="822.0"/>
      <point x="704.0" y="1007.0" type="curve" smooth="yes"/>
      <point x="704.0" y="1018.0" type="line" smooth="yes"/>
      <point x="704.0" y="1203.0"/>
      <point x="588.5" y="1317.5"/>
      <point x="378.5" y="1317.5" type="curve" smooth="yes"/>
      <point x="169.0" y="1317.5"/>
      <point x="53.0" y="1203.0"/>
      <point x="53.0" y="1018.0" type="curve" smooth="yes"/>
      <point x="53.0" y="1007.0" type="line" smooth="yes"/>
      <point x="53.0" y="822.0"/>
      <point x="169.0" y="707.5"/>
    </contour>
    <contour>
      <point x="378.5" y="891.5" type="curve" smooth="yes"/>
      <point x="310.5" y="891.5"/>
      <point x="271.5" y="934.0"/>
      <point x="271.5" y="1006.0" type="curve" smooth="yes"/>
      <point x="271.5" y="1019.5" type="line" smooth="yes"/>
      <point x="271.5" y="1090.5"/>
      <point x="310.5" y="1133.5"/>
      <point x="378.5" y="1133.5" type="curve" smooth="yes"/>
      <point x="447.0" y="1133.5"/>
      <point x="486.0" y="1090.5"/>
      <point x="486.0" y="1019.5" type="curve" smooth="yes"/>
      <point x="486.0" y="1006.0" type="line" smooth="yes"/>
      <point x="486.0" y="934.0"/>
      <point x="447.0" y="891.5"/>
    </contour>
  </outline>
</glyph>
<glyph name="plusminus" format="2">
  <advance width="1190.5"/>
  <unicode hex="00B1"/>
  <outline>
    <contour>
      <point x="107.5" y="27.5" type="line"/>
      <point x="1083.0" y="27.5" type="line"/>
      <point x="1083.0" y="317.5" type="line"/>
      <point x="107.5" y="317.5" type="line"/>
    </contour>
    <contour>
      <point x="751.5" y="401.0" type="line"/>
      <point x="751.5" y="1165.0" type="line"/>
      <point x="439.0" y="1165.0" type="line"/>
      <point x="439.0" y="401.0" type="line"/>
    </contour>
    <contour>
      <point x="107.5" y="637.5" type="line"/>
      <point x="1083.0" y="637.5" type="line"/>
      <point x="1083.0" y="928.5" type="line"/>
      <point x="107.5" y="928.5" type="line"/>
    </contour>
  </outline>
</glyph>
<glyph name="twosuperior" format="2">
  <advance width="700.5"/>
  <unicode hex="00B2"/>
  <outline>
    <contour>
      <point x="30.0" y="738.5" type="line"/>
      <point x="668.5" y="738.5" type="line"/>
      <point x="668.5" y="937.5" type="line"/>
      <point x="275.0" y="937.5" type="line"/>
      <point x="398.5" y="901.5" type="line"/>
      <point x="398.5" y="944.0" type="line"/>
      <point x="479.0" y="984.0" type="line" smooth="yes"/>
      <point x="604.5" y="1040.0"/>
      <point x="659.5" y="1106.0"/>
      <point x="659.5" y="1209.5" type="curve" smooth="yes"/>
      <point x="659.5" y="1217.0" type="line" smooth="yes"/>
      <point x="659.5" y="1355.0"/>
      <point x="548.0" y="1437.5"/>
      <point x="336.0" y="1437.5" type="curve" smooth="yes"/>
      <point x="228.0" y="1437.5"/>
      <point x="119.5" y="1411.5"/>
      <point x="55.5" y="1382.0" type="curve"/>
      <point x="32.0" y="1183.5" type="line"/>
      <point x="102.0" y="1209.0"/>
      <point x="202.0" y="1235.5"/>
      <point x="287.0" y="1235.5" type="curve" smooth="yes"/>
      <point x="375.0" y="1235.5"/>
      <point x="402.0" y="1216.0"/>
      <point x="402.0" y="1179.5" type="curve" smooth="yes"/>
      <point x="402.0" y="1177.5" type="line" smooth="yes"/>
      <point x="402.0" y="1131.5"/>
      <point x="349.5" y="1104.5"/>
      <point x="241.0" y="1051.0" type="curve" smooth="yes"/>
      <point x="30.0" y="940.0" type="line"/>
    </contour>
  </outline>
</glyph>
<glyph name="threesuperior" format="2">
  <advance width="726.0"/>
  <unicode hex="00B3"/>
  <outline>
    <contour>
      <point x="333.0" y="714.5" type="curve" smooth="yes"/>
      <point x="578.0" y="714.5"/>
      <point x="695.0" y="791.5"/>
      <point x="695.0" y="919.0" type="curve" smooth="yes"/>
      <point x="695.0" y="928.0" type="line" smooth="yes"/>
      <point x="695.0" y="1020.0"/>
      <point x="647.5" y="1076.5"/>
      <point x="513.0" y="1089.5" type="curve"/>
      <point x="532.0" y="1067.5" type="line"/>
      <point x="532.0" y="1095.0" type="line"/>
      <point x="645.0" y="1105.5"/>
      <point x="690.5" y="1161.5"/>
      <point x="690.5" y="1243.0" type="curve" smooth="yes"/>
      <point x="690.5" y="1250.5" type="line" smooth="yes"/>
      <point x="690.5" y="1375.0"/>
      <point x="574.5" y="1437.0"/>
      <point x="343.5" y="1437.0" type="curve" smooth="yes"/>
      <point x="228.0" y="1437.0"/>
      <point x="128.0" y="1419.0"/>
      <point x="55.0" y="1395.0" type="curve"/>
      <point x="34.5" y="1209.5" type="line"/>
      <point x="96.0" y="1224.0"/>
      <point x="195.0" y="1244.5"/>
      <point x="303.0" y="1244.5" type="curve" smooth="yes"/>
      <point x="391.0" y="1244.5"/>
      <point x="422.5" y="1233.5"/>
      <point x="422.5" y="1205.0" type="curve" smooth="yes"/>
      <point x="422.5" y="1203.5" type="line" smooth="yes"/>
      <point x="422.5" y="1176.5"/>
      <point x="400.0" y="1164.5"/>
      <point x="337.0" y="1163.0" type="curve" smooth="yes"/>
      <point x="137.0" y="1158.0" type="line"/>
      <point x="137.0" y="997.5" type="line"/>
      <point x="342.0" y="992.5" type="line" smooth="yes"/>
      <point x="404.5" y="991.0"/>
      <point x="423.5" y="979.5"/>
      <point x="423.5" y="954.0" type="curve" smooth="yes"/>
      <point x="423.5" y="951.5" type="line" smooth="yes"/>
      <point x="423.5" y="923.5"/>
      <point x="397.0" y="907.5"/>
      <point x="286.5" y="907.5" type="curve" smooth="yes"/>
      <point x="193.5" y="907.5"/>
      <point x="100.0" y="924.5"/>
      <point x="29.5" y="944.0" type="curve"/>
      <point x="50.0" y="749.5" type="line"/>
      <point x="112.5" y="732.0"/>
      <point x="214.0" y="714.5"/>
    </contour>
  </outline>
</glyph>
<glyph name="micro" format="2">
  <advance width="1301.0"/>
  <unicode hex="00B5"/>
  <outline>
    <contour>
      <point x="1196.0" y="974.0" type="line"/>
      <point x="820.5" y="974.0" type="line"/>
      <point x="820.5" y="321.5" type="line"/>
      <point x="843.0" y="280.5" type="line"/>
      <point x="833.5" y="0.0" type="line"/>
      <point x="1196.0" y="0.0" type="line"/>
    </contour>
    <contour>
      <point x="480.5" y="461.0" type="curve" smooth="yes"/>
      <point x="480.5" y="974.0" type="line"/>
      <point x="105.0" y="974.0" type="line"/>
      <point x="105.0" y="-341.0" type="line"/>
      <point x="474.5" y="-341.0" type="line"/>
      <point x="474.5" y="-287.5" type="line"/>
      <point x="455.5" y="68.5" type="line"/>
      <point x="462.5" y="68.5" type="line"/>
      <point x="489.5" y="12.0"/>
      <point x="539.0" y="-26.5"/>
      <point x="623.0" y="-26.5" type="curve" smooth="yes"/>
      <point x="758.5" y="-26.5"/>
      <point x="808.0" y="67.0"/>
      <point x="829.0" y="231.5" type="curve"/>
      <point x="881.0" y="231.5" type="line"/>
      <point x="826.5" y="394.0" type="line"/>
      <point x="794.5" y="332.0"/>
      <point x="739.5" y="280.0"/>
      <point x="642.0" y="280.0" type="curve" smooth="yes"/>
      <point x="512.5" y="280.0"/>
      <point x="480.5" y="361.0"/>
    </contour>
  </outline>
</glyph>
<glyph name="paragraph" format="2">
  <advance width="949.0"/>
  <unicode hex="00B6"/>
  <outline>
    <contour>
      <point x="436.0" y="633.5" type="curve"/>
      <point x="529.5" y="633.5" type="line"/>
      <point x="529.5" y="1278.0" type="line"/>
      <point x="436.5" y="1278.0" type="line" smooth="yes"/>
      <point x="178.0" y="1278.0"/>
      <point x="63.0" y="1166.5"/>
      <point x="63.0" y="962.5" type="curve" smooth="yes"/>
      <point x="63.0" y="948.0" type="line" smooth="yes"/>
      <point x="63.0" y="746.5"/>
      <point x="178.0" y="633.5"/>
    </contour>
    <contour>
      <point x="830.0" y="0.0" type="line"/>
      <point x="830.0" y="1278.0" type="line"/>
      <point x="457.0" y="1278.0" type="line"/>
      <point x="456.5" y="0.0" type="line"/>
    </contour>
  </outline>
</glyph>
<glyph name="onesuperior" format="2">
  <advance width="498.0"/>
  <unicode hex="00B9"/>
  <outline>
    <contour>
      <point x="194.5" y="738.5" type="line"/>
      <point x="438.5" y="738.5" type="line"/>
      <point x="438.5" y="1415.5" type="line"/>
      <point x="224.5" y="1415.5" type="line"/>
      <point x="27.5" y="1340.5" type="line"/>
      <point x="19.5" y="1121.0" type="line"/>
      <point x="184.5" y="1182.5" type="line"/>
      <point x="194.5" y="1182.5" type="line"/>
    </contour>
  </outline>
</glyph>
<glyph name="ordmasculine" format="2">
  <advance width="796.0"/>
  <unicode hex="00BA"/>
  <outline>
    <contour>
      <point x="397.0" y="621.5" type="curve" smooth="yes"/>
      <point x="631.0" y="621.5"/>
      <point x="756.0" y="735.5"/>
      <point x="756.0" y="940.5" type="curve" smooth="yes"/>
      <point x="756.0" y="975.0" type="line" smooth="yes"/>
      <point x="756.0" y="1178.0"/>
      <point x="632.0" y="1294.0"/>
      <point x="397.0" y="1294.0" type="curve" smooth="yes"/>
      <point x="165.5" y="1294.0"/>
      <point x="40.0" y="1179.0"/>
      <point x="40.0" y="975.0" type="curve" smooth="yes"/>
      <point x="40.0" y="940.5" type="line" smooth="yes"/>
      <point x="40.0" y="735.5"/>
      <point x="165.0" y="621.5"/>
    </contour>
    <contour>
      <point x="397.5" y="822.5" type="curve" smooth="yes"/>
      <point x="331.5" y="822.5"/>
      <point x="297.0" y="860.5"/>
      <point x="297.0" y="934.0" type="curve" smooth="yes"/>
      <point x="297.0" y="982.0" type="line" smooth="yes"/>
      <point x="297.0" y="1054.5"/>
      <point x="331.5" y="1093.0"/>
      <point x="397.5" y="1093.0" type="curve" smooth="yes"/>
      <point x="464.5" y="1093.0"/>
      <point x="499.0" y="1054.5"/>
      <point x="499.0" y="982.0" type="curve" smooth="yes"/>
      <point x="499.0" y="934.0" type="line" smooth="yes"/>
      <point x="499.0" y="860.5"/>
      <point x="464.5" y="822.5"/>
    </contour>
  </outline>
</glyph>
<glyph name="guillemetright" format="2">
  <advance width="1190.0"/>
  <unicode hex="00BB"/>
  <outline>
    <contour>
      <point x="309.5" y="482.0" type="line"/>
      <point x="2.5" y="66.5" type="line"/>
      <point x="354.5" y="66.5" type="line"/>
      <point x="648.0" y="468.0" type="line"/>
      <point x="648.0" y="515.5" type="line"/>
      <point x="354.5" y="899.0" type="line"/>
      <point x="2.5" y="899.0" type="line"/>
    </contour>
    <contour>
      <point x="819.5" y="482.0" type="line"/>
      <point x="512.5" y="66.5" type="line"/>
      <point x="864.5" y="66.5" type="line"/>
      <point x="1158.0" y="468.0" type="line"/>
      <point x="1158.0" y="515.5" type="line"/>
      <point x="864.5" y="899.0" type="line"/>
      <point x="512.5" y="899.0" type="line"/>
    </contour>
  </outline>
</glyph>
<glyph name="questiondown" format="2">
  <advance width="1102.0"/>
  <unicode hex="00BF"/>
  <outline>
    <contour>
      <point x="824.0" y="552.0" type="line"/>
      <point x="655.0" y="537.0" type="line" smooth="yes"/>
      <point x="273.0" y="503.5"/>
      <point x="59.0" y="385.5"/>
      <point x="59.0" y="86.5" type="curve" smooth="yes"/>
      <point x="59.0" y="67.5" type="line" smooth="yes"/>
      <point x="59.0" y="-200.5"/>
      <point x="242.0" y="-336.5"/>
      <point x="597.0" y="-336.5" type="curve" smooth="yes"/>
      <point x="780.0" y="-336.5"/>
      <point x="941.0" y="-296.0"/>
      <point x="1031.5" y="-260.5" type="curve"/>
      <point x="1073.5" y="49.0" type="line"/>
      <point x="934.0" y="4.5"/>
      <point x="793.0" y="-24.5"/>
      <point x="659.5" y="-24.5" type="curve" smooth="yes"/>
      <point x="495.5" y="-24.5"/>
      <point x="447.0" y="11.5"/>
      <point x="447.0" y="89.5" type="curve" smooth="yes"/>
      <point x="447.0" y="96.0" type="line" smooth="yes"/>
      <point x="447.0" y="171.0"/>
      <point x="500.0" y="216.0"/>
      <point x="691.5" y="235.5" type="curve" smooth="yes"/>
      <point x="824.0" y="248.5" type="line"/>
    </contour>
    <contour>
      <point x="669.0" y="1005.0" type="curve" smooth="yes"/>
      <point x="531.5" y="1005.0"/>
      <point x="467.5" y="935.5"/>
      <point x="467.5" y="821.5" type="curve" smooth="yes"/>
      <point x="467.5" y="813.5" type="line" smooth="yes"/>
      <point x="467.5" y="699.5"/>
      <point x="531.5" y="628.5"/>
      <point x="669.0" y="628.5" type="curve" smooth="yes"/>
      <point x="807.5" y="628.5"/>
      <point x="870.0" y="699.5"/>
      <point x="870.0" y="813.5" type="curve" smooth="yes"/>
      <point x="870.0" y="821.5" type="line" smooth="yes"/>
      <point x="870.0" y="935.5"/>
      <point x="807.5" y="1005.0"/>
    </contour>
  </outline>
</glyph>
<glyph name="AE" format="2">
  <advance width="2223.5"/>
  <unicode hex="00C6"/>
  <anchor x="1111.5" y="0.0" name="bottom"/>
  <anchor x="1111.5" y="1278.0" name="top"/>
  <outline>
    <contour>
      <point x="8.0" y="0.0" type="line"/>
      <point x="430.5" y="0.0" type="line"/>
      <point x="1005.0" y="1035.0" type="line"/>
      <point x="1126.5" y="1035.0" type="line"/>
      <point x="1129.5" y="1278.0" type="line"/>
      <point x="747.0" y="1278.0" type="line"/>
    </contour>
    <contour>
      <point x="395.0" y="275.5" type="line"/>
      <point x="1073.0" y="275.5" type="line"/>
      <point x="1073.0" y="566.5" type="line"/>
      <point x="395.0" y="566.5" type="line"/>
    </contour>
    <contour>
      <point x="1097.0" y="0.0" type="line"/>
      <point x="2135.5" y="0.0" type="line"/>
      <point x="2135.5" y="305.5" type="line"/>
      <point x="1097.0" y="305.5" type="line"/>
    </contour>
    <contour>
      <point x="1044.5" y="0.0" type="line"/>
      <point x="1419.5" y="0.0" type="line"/>
      <point x="1419.5" y="1278.0" type="line"/>
      <point x="1044.5" y="1278.0" type="line"/>
    </contour>
    <contour>
      <point x="1251.5" y="501.5" type="line"/>
      <point x="2103.5" y="501.5" type="line"/>
      <point x="2103.5" y="791.5" type="line"/>
      <point x="1251.5" y="791.5" type="line"/>
    </contour>
    <contour>
      <point x="1097.0" y="974.0" type="line"/>
      <point x="2122.0" y="974.0" type="line"/>
      <point x="2122.0" y="1278.0" type="line"/>
      <point x="1097.0" y="1278.0" type="line"/>
    </contour>
  </outline>
</glyph>
<glyph name="Eth" format="2">
  <advance width="1459.5"/>
  <unicode hex="00D0"/>
  <anchor x="707.0" y="0.0" name="bottom"/>
  <anchor x="730.0" y="639.0" name="center"/>
  <anchor x="707.0" y="1278.0" name="top"/>
  <outline>
    <contour>
      <point x="1.5" y="549.5" type="line"/>
      <point x="763.5" y="548.5" type="line"/>
      <point x="763.5" y="738.5" type="line"/>
      <point x="1.5" y="740.0" type="line"/>
    </contour>
    <component base="D"/>
  </outline>
</glyph>
<glyph name="multiply" format="2">
  <advance width="1129.0"/>
  <unicode hex="00D7"/>
  <outline>
    <contour>
      <point x="1061.0" y="325.5" type="line"/>
      <point x="283.5" y="1069.0" type="line"/>
      <point x="73.0" y="874.0" type="line"/>
      <point x="851.0" y="130.5" type="line"/>
    </contour>
    <contour>
      <point x="68.0" y="325.5" type="line"/>
      <point x="278.0" y="130.5" type="line"/>
      <point x="1055.5" y="874.0" type="line"/>
      <point x="845.5" y="1069.0" type="line"/>
    </contour>
  </outline>
</glyph>
<glyph name="Oslash" format="2">
  <advance width="1514.0"/>
  <unicode hex="00D8"/>
  <anchor x="757.0" y="0.0" name="bottom"/>
  <anchor x="757.0" y="640.5" name="center"/>
  <anchor x="1368.5" y="11.5" name="ogonek"/>
  <anchor x="757.0" y="1278.0" name="top"/>
  <anchor x="12.5" y="1279.5" name="topleft"/>
  <anchor x="1501.0" y="1279.5" name="topright"/>
  <outline>
    <contour>
      <point x="759.5" y="-39.0" type="curve" smooth="yes"/>
      <point x="1206.0" y="-39.0"/>
      <point x="1439.0" y="183.0"/>
      <point x="1439.0" y="580.5" type="curve" smooth="yes"/>
      <point x="1439.0" y="697.5" type="line" smooth="yes"/>
      <point x="1439.0" y="1078.0"/>
      <point x="1187.0" y="1317.0"/>
      <point x="754.5" y="1317.0" type="curve" smooth="yes"/>
      <point x="308.0" y="1317.0"/>
      <point x="75.0" y="1092.0"/>
      <point x="75.0" y="697.5" type="curve" smooth="yes"/>
      <point x="75.0" y="580.5" type="line" smooth="yes"/>
      <point x="75.0" y="197.0"/>
      <point x="327.0" y="-39.0"/>
    </contour>
    <contour>
      <point x="91.0" y="-74.0" type="line"/>
      <point x="331.5" y="-74.0" type="line"/>
      <point x="468.5" y="100.5" type="line"/>
      <point x="542.0" y="190.5" type="line"/>
      <point x="1111.0" y="956.0" type="line"/>
      <point x="1185.0" y="1048.0" type="line"/>
      <point x="1423.0" y="1353.0" type="line"/>
      <point x="1185.5" y="1353.0" type="line"/>
      <point x="1054.0" y="1183.0" type="line"/>
      <point x="972.5" y="1077.5" type="line"/>
      <point x="413.0" y="330.0" type="line"/>
      <point x="320.5" y="215.0" type="line"/>
    </contour>
    <contour>
      <point x="757.0" y="272.5" type="curve" smooth="yes"/>
      <point x="568.5" y="272.5"/>
      <point x="469.5" y="380.0"/>
      <point x="469.5" y="567.5" type="curve" smooth="yes"/>
      <point x="469.5" y="705.5" type="line" smooth="yes"/>
      <point x="469.5" y="895.5"/>
      <point x="565.5" y="1005.5"/>
      <point x="757.0" y="1005.5" type="curve" smooth="yes"/>
      <point x="949.5" y="1005.5"/>
      <point x="1044.5" y="892.5"/>
      <point x="1044.5" y="710.5" type="curve" smooth="yes"/>
      <point x="1044.5" y="572.5" type="line" smooth="yes"/>
      <point x="1044.5" y="382.5"/>
      <point x="947.0" y="272.5"/>
    </contour>
  </outline>
</glyph>
<glyph name="Thorn" format="2">
  <advance width="1370.0"/>
  <unicode hex="00DE"/>
  <anchor x="685.5" y="0.0" name="bottom"/>
  <anchor x="685.5" y="1278.0" name="top"/>
  <outline>
    <contour>
      <point x="387.5" y="177.5" type="line"/>
      <point x="776.0" y="177.5" type="line" smooth="yes"/>
      <point x="1145.5" y="177.5"/>
      <point x="1315.5" y="335.5"/>
      <point x="1315.5" y="620.0" type="curve" smooth="yes"/>
      <point x="1315.5" y="663.5" type="line" smooth="yes"/>
      <point x="1315.5" y="950.0"/>
      <point x="1145.5" y="1107.5"/>
      <point x="775.0" y="1107.5" type="curve" smooth="yes"/>
      <point x="387.5" y="1107.5" type="line"/>
      <point x="387.5" y="808.5" type="line"/>
      <point x="749.0" y="808.5" type="line" smooth="yes"/>
      <point x="877.5" y="808.5"/>
      <point x="933.5" y="761.5"/>
      <point x="933.5" y="658.5" type="curve" smooth="yes"/>
      <point x="933.5" y="626.5" type="line" smooth="yes"/>
      <point x="933.5" y="523.5"/>
      <point x="877.5" y="477.0"/>
      <point x="749.0" y="477.0" type="curve" smooth="yes"/>
      <point x="387.5" y="477.0" type="line"/>
    </contour>
    <contour>
      <point x="119.0" y="0.0" type="line"/>
      <point x="497.0" y="0.0" type="line"/>
      <point x="497.0" y="243.5" type="line"/>
      <point x="495.5" y="389.5" type="line"/>
      <point x="495.5" y="890.0" type="line"/>
      <point x="497.0" y="1029.0" type="line"/>
      <point x="497.0" y="1278.0" type="line"/>
      <point x="119.0" y="1278.0" type="line"/>
    </contour>
  </outline>
</glyph>
<glyph name="germandbls" format="2">
  <advance width="1366.0"/>
  <unicode hex="00DF"/>
  <anchor x="659.5" y="0.0" name="bottom"/>
  <anchor x="659.5" y="974.0" name="top"/>
  <outline>
    <contour>
      <point x="105.0" y="944.5" type="curve" smooth="yes"/>
      <point x="105.0" y="0.0" type="line"/>
      <point x="478.0" y="0.0" type="line"/>
      <point x="478.0" y="934.0" type="line" smooth="yes"/>
      <point x="478.0" y="1013.0"/>
      <point x="507.0" y="1064.0"/>
      <point x="618.0" y="1064.0" type="curve" smooth="yes"/>
      <point x="700.0" y="1064.0"/>
      <point x="740.5" y="1035.0"/>
      <point x="740.5" y="986.0" type="curve" smooth="yes"/>
      <point x="740.5" y="891.0"/>
      <point x="546.5" y="852.0"/>
      <point x="546.5" y="661.0" type="curve" smooth="yes"/>
      <point x="546.5" y="657.0" type="line" smooth="yes"/>
      <point x="546.5" y="512.0"/>
      <point x="625.0" y="451.5"/>
      <point x="824.0" y="404.0" type="curve" smooth="yes"/>
      <point x="915.0" y="380.0"/>
      <point x="948.0" y="368.0"/>
      <point x="948.0" y="324.0" type="curve" smooth="yes"/>
      <point x="948.0" y="322.5" type="line" smooth="yes"/>
      <point x="948.0" y="283.0"/>
      <point x="903.0" y="262.5"/>
      <point x="809.0" y="262.5" type="curve" smooth="yes"/>
      <point x="729.0" y="262.5"/>
      <point x="633.0" y="281.5"/>
      <point x="554.5" y="302.0" type="curve"/>
      <point x="589.0" y="14.5" type="line"/>
      <point x="666.0" y="-6.0"/>
      <point x="769.5" y="-18.0"/>
      <point x="859.0" y="-18.0" type="curve" smooth="yes"/>
      <point x="1130.0" y="-18.0"/>
      <point x="1316.5" y="80.0"/>
      <point x="1316.5" y="307.0" type="curve" smooth="yes"/>
      <point x="1316.5" y="313.0" type="line" smooth="yes"/>
      <point x="1316.5" y="521.5"/>
      <point x="1209.0" y="582.0"/>
      <point x="1051.0" y="625.5" type="curve" smooth="yes"/>
      <point x="926.0" y="663.5"/>
      <point x="905.0" y="676.0"/>
      <point x="904.5" y="715.5" type="curve" smooth="yes"/>
      <point x="904.5" y="717.5" type="line" smooth="yes"/>
      <point x="904.5" y="796.5"/>
      <point x="1100.5" y="834.0"/>
      <point x="1100.5" y="1029.0" type="curve"/>
      <point x="1100.5" y="1264.0"/>
      <point x="880.0" y="1351.0"/>
      <point x="612.5" y="1351.0" type="curve" smooth="yes"/>
      <point x="242.0" y="1351.0"/>
      <point x="105.0" y="1217.0"/>
    </contour>
  </outline>
</glyph>
<glyph name="ae" format="2">
  <advance width="1917.5"/>
  <unicode hex="00E6"/>
  <anchor x="959.0" y="0.0" name="bottom"/>
  <anchor x="959.0" y="974.0" name="top"/>
  <outline>
    <contour>
      <point x="1378.5" y="-33.0" type="curve" smooth="yes"/>
      <point x="1556.0" y="-33.0"/>
      <point x="1701.5" y="-4.0"/>
      <point x="1805.5" y="46.0" type="curve"/>
      <point x="1838.0" y="309.0" type="line"/>
      <point x="1711.0" y="268.5"/>
      <point x="1578.5" y="246.5"/>
      <point x="1442.5" y="246.5" type="curve" smooth="yes"/>
      <point x="1159.5" y="246.5"/>
      <point x="1116.5" y="340.5"/>
      <point x="1116.5" y="416.5" type="curve" smooth="yes"/>
      <point x="1116.5" y="480.0" type="line"/>
      <point x="1114.0" y="511.0" type="line"/>
      <point x="1114.0" y="572.5" type="line" smooth="yes"/>
      <point x="1114.0" y="678.5"/>
      <point x="1177.0" y="749.0"/>
      <point x="1312.0" y="749.0" type="curve" smooth="yes"/>
      <point x="1449.5" y="749.0"/>
      <point x="1511.5" y="686.5"/>
      <point x="1511.5" y="575.0" type="curve" smooth="yes"/>
      <point x="1511.5" y="525.5"/>
      <point x="1508.0" y="452.5"/>
      <point x="1501.0" y="384.5" type="curve"/>
      <point x="1841.0" y="384.5" type="line"/>
      <point x="1849.0" y="425.0"/>
      <point x="1854.5" y="482.5"/>
      <point x="1854.5" y="533.0" type="curve" smooth="yes"/>
      <point x="1854.5" y="555.5" type="line" smooth="yes"/>
      <point x="1854.5" y="838.0"/>
      <point x="1676.0" y="1012.0"/>
      <point x="1337.0" y="1012.0" type="curve" smooth="yes"/>
      <point x="1135.0" y="1012.0"/>
      <point x="1006.0" y="937.0"/>
      <point x="941.0" y="831.5" type="curve"/>
      <point x="927.5" y="831.5" type="line"/>
      <point x="871.0" y="924.5"/>
      <point x="757.5" y="1006.0"/>
      <point x="552.0" y="1006.0" type="curve" smooth="yes"/>
      <point x="387.0" y="1006.0"/>
      <point x="246.5" y="968.0"/>
      <point x="141.5" y="920.5" type="curve"/>
      <point x="107.5" y="645.5" type="line"/>
      <point x="236.5" y="689.5"/>
      <point x="373.5" y="728.0"/>
      <point x="524.0" y="728.0" type="curve" smooth="yes"/>
      <point x="688.0" y="728.0"/>
      <point x="754.0" y="684.0"/>
      <point x="754.0" y="592.5" type="curve"/>
      <point x="759.0" y="497.5" type="line"/>
      <point x="759.0" y="434.5"/>
      <point x="760.0" y="368.0"/>
      <point x="768.5" y="299.5" type="curve"/>
      <point x="807.0" y="235.5" type="line"/>
      <point x="871.5" y="73.5"/>
      <point x="1053.0" y="-33.0"/>
    </contour>
    <contour>
      <point x="411.5" y="-28.0" type="curve" smooth="yes"/>
      <point x="655.5" y="-28.0"/>
      <point x="763.5" y="60.5"/>
      <point x="834.0" y="164.0" type="curve"/>
      <point x="903.5" y="164.0" type="line"/>
      <point x="775.5" y="345.0" type="line"/>
      <point x="737.5" y="287.0"/>
      <point x="659.5" y="237.0"/>
      <point x="532.0" y="237.0" type="curve" smooth="yes"/>
      <point x="442.5" y="237.0"/>
      <point x="412.0" y="267.0"/>
      <point x="412.0" y="311.5" type="curve" smooth="yes"/>
      <point x="412.0" y="315.0" type="line" smooth="yes"/>
      <point x="412.0" y="362.5"/>
      <point x="442.5" y="385.5"/>
      <point x="523.5" y="395.0" type="curve" smooth="yes"/>
      <point x="795.0" y="426.0" type="line"/>
      <point x="780.5" y="625.0" type="line"/>
      <point x="480.5" y="596.0" type="line" smooth="yes"/>
      <point x="194.5" y="567.5"/>
      <point x="52.0" y="488.5"/>
      <point x="52.0" y="280.5" type="curve" smooth="yes"/>
      <point x="52.0" y="264.5" type="line" smooth="yes"/>
      <point x="52.0" y="80.0"/>
      <point x="169.5" y="-28.0"/>
    </contour>
    <contour>
      <point x="946.0" y="384.5" type="line"/>
      <point x="1767.5" y="384.5" type="line"/>
      <point x="1767.5" y="594.0" type="line"/>
      <point x="946.0" y="594.0" type="line"/>
    </contour>
  </outline>
</glyph>
<glyph name="eth" format="2">
  <advance width="1270.5"/>
  <unicode hex="00F0"/>
  <outline>
    <contour>
      <point x="633.5" y="-34.5" type="curve" smooth="yes"/>
      <point x="1008.0" y="-34.5"/>
      <point x="1207.5" y="140.0"/>
      <point x="1207.5" y="465.0" type="curve"/>
      <point x="1207.5" y="526.5" type="line"/>
      <point x="1207.5" y="844.5"/>
      <point x="1020.0" y="1053.5"/>
      <point x="702.0" y="1316.5" type="curve"/>
      <point x="245.0" y="1316.5" type="line"/>
      <point x="245.0" y="1316.5" type="line"/>
      <point x="567.0" y="1038.0"/>
      <point x="790.5" y="880.5"/>
      <point x="812.5" y="693.0" type="curve"/>
      <point x="817.5" y="648.0"/>
      <point x="823.5" y="602.0"/>
      <point x="828.5" y="557.0" type="curve"/>
      <point x="828.5" y="511.5"/>
      <point x="828.5" y="466.0"/>
      <point x="828.5" y="431.0" type="curve" smooth="yes"/>
      <point x="828.5" y="316.0"/>
      <point x="758.0" y="256.5"/>
      <point x="633.0" y="256.5" type="curve" smooth="yes"/>
      <point x="510.0" y="256.5"/>
      <point x="439.0" y="316.0"/>
      <point x="439.0" y="431.0" type="curve" smooth="yes"/>
      <point x="439.0" y="460.0" type="line" smooth="yes"/>
      <point x="439.0" y="572.0"/>
      <point x="509.5" y="633.0"/>
      <point x="627.5" y="633.0" type="curve" smooth="yes"/>
      <point x="756.0" y="633.0"/>
      <point x="826.0" y="572.5"/>
      <point x="828.5" y="458.5" type="curve"/>
      <point x="913.5" y="751.0" type="line"/>
      <point x="782.5" y="751.0" type="line"/>
      <point x="727.5" y="844.0"/>
      <point x="636.5" y="901.5"/>
      <point x="481.0" y="901.5" type="curve" smooth="yes"/>
      <point x="227.0" y="901.5"/>
      <point x="63.0" y="743.0"/>
      <point x="63.0" y="464.5" type="curve" smooth="yes"/>
      <point x="63.0" y="439.5" type="line" smooth="yes"/>
      <point x="63.0" y="132.0"/>
      <point x="263.5" y="-34.5"/>
    </contour>
    <contour>
      <point x="215.5" y="956.5" type="line"/>
      <point x="1134.5" y="1117.0" type="line"/>
      <point x="1134.5" y="1275.5" type="line"/>
      <point x="215.5" y="1117.5" type="line"/>
    </contour>
  </outline>
</glyph>
<glyph name="divide" format="2">
  <advance width="1175.0"/>
  <unicode hex="00F7"/>
  <outline>
    <contour>
      <point x="99.5" y="458.0" type="line"/>
      <point x="1075.5" y="458.0" type="line"/>
      <point x="1075.5" y="749.0" type="line"/>
      <point x="99.5" y="749.0" type="line"/>
    </contour>
    <contour>
      <point x="586.5" y="64.0" type="curve" smooth="yes"/>
      <point x="704.5" y="64.0"/>
      <point x="760.0" y="125.0"/>
      <point x="760.0" y="225.0" type="curve" smooth="yes"/>
      <point x="760.0" y="231.5" type="line" smooth="yes"/>
      <point x="760.0" y="331.5"/>
      <point x="704.5" y="394.0"/>
      <point x="586.5" y="394.0" type="curve" smooth="yes"/>
      <point x="467.0" y="394.0"/>
      <point x="413.5" y="331.5"/>
      <point x="413.5" y="231.5" type="curve" smooth="yes"/>
      <point x="413.5" y="225.0" type="line" smooth="yes"/>
      <point x="413.5" y="125.0"/>
      <point x="467.0" y="64.0"/>
    </contour>
    <contour>
      <point x="586.5" y="812.5" type="curve" smooth="yes"/>
      <point x="704.5" y="812.5"/>
      <point x="760.0" y="873.5"/>
      <point x="760.0" y="973.5" type="curve" smooth="yes"/>
      <point x="760.0" y="980.0" type="line" smooth="yes"/>
      <point x="760.0" y="1080.0"/>
      <point x="704.5" y="1142.5"/>
      <point x="586.5" y="1142.5" type="curve" smooth="yes"/>
      <point x="467.0" y="1142.5"/>
      <point x="413.5" y="1080.0"/>
      <point x="413.5" y="980.0" type="curve" smooth="yes"/>
      <point x="413.5" y="973.5" type="line" smooth="yes"/>
      <point x="413.5" y="873.5"/>
      <point x="467.0" y="812.5"/>
    </contour>
  </outline>
</glyph>
<glyph name="oslash" format="2">
  <advance width="1270.5"/>
  <unicode hex="00F8"/>
  <anchor x="636.0" y="0.0" name="bottom"/>
  <anchor x="636.0" y="487.5" name="center"/>
  <anchor x="1147.0" y="10.0" name="ogonek"/>
  <anchor x="636.5" y="974.0" name="top"/>
  <anchor x="1254.5" y="974.0" name="topright"/>
  <outline>
    <contour>
      <point x="634.5" y="-30.5" type="curve" smooth="yes"/>
      <point x="1007.0" y="-30.5"/>
      <point x="1207.5" y="142.5"/>
      <point x="1207.5" y="459.5" type="curve"/>
      <point x="1207.5" y="524.0" type="line"/>
      <point x="1207.5" y="818.5"/>
      <point x="990.0" y="1006.5"/>
      <point x="634.5" y="1006.5" type="curve" smooth="yes"/>
      <point x="264.5" y="1006.5"/>
      <point x="63.0" y="833.0"/>
      <point x="63.0" y="517.5" type="curve"/>
      <point x="63.0" y="453.0" type="line"/>
      <point x="63.0" y="157.0"/>
      <point x="281.0" y="-30.5"/>
    </contour>
    <contour>
      <point x="103.0" y="-74.0" type="line"/>
      <point x="306.0" y="-74.0" type="line"/>
      <point x="434.0" y="87.5" type="line"/>
      <point x="500.5" y="175.5" type="line"/>
      <point x="896.0" y="703.0" type="line"/>
      <point x="969.5" y="795.5" type="line"/>
      <point x="1168.0" y="1048.0" type="line"/>
      <point x="964.5" y="1048.0" type="line"/>
      <point x="852.0" y="906.0" type="line"/>
      <point x="777.5" y="804.5" type="line"/>
      <point x="388.0" y="283.0" type="line"/>
      <point x="300.5" y="176.0" type="line"/>
    </contour>
    <contour>
      <point x="634.5" y="249.5" type="curve" smooth="yes"/>
      <point x="496.5" y="249.5"/>
      <point x="424.5" y="319.5"/>
      <point x="424.5" y="439.0" type="curve" smooth="yes"/>
      <point x="424.5" y="528.0" type="line" smooth="yes"/>
      <point x="424.5" y="657.0"/>
      <point x="500.5" y="728.0"/>
      <point x="634.5" y="728.0" type="curve" smooth="yes"/>
      <point x="774.5" y="728.0"/>
      <point x="846.0" y="656.5"/>
      <point x="846.0" y="538.0" type="curve" smooth="yes"/>
      <point x="846.0" y="449.0" type="line" smooth="yes"/>
      <point x="846.0" y="319.0"/>
      <point x="769.5" y="249.5"/>
    </contour>
  </outline>
</glyph>
<glyph name="thorn" format="2">
  <advance width="1319.0"/>
  <unicode hex="00FE"/>
  <anchor x="665.0" y="0.0" name="bottom"/>
  <anchor x="665.0" y="974.0" name="top"/>
  <outline>
    <contour>
      <point x="829.5" y="-28.0" type="curve" smooth="yes"/>
      <point x="1098.5" y="-28.0"/>
      <point x="1252.0" y="139.0"/>
      <point x="1252.0" y="459.0" type="curve" smooth="yes"/>
      <point x="1252.0" y="521.0" type="line" smooth="yes"/>
      <point x="1252.0" y="840.5"/>
      <point x="1100.0" y="1003.0"/>
      <point x="838.5" y="1003.0" type="curve" smooth="yes"/>
      <point x="613.5" y="1003.0"/>
      <point x="516.5" y="890.5"/>
      <point x="485.0" y="739.5" type="curve"/>
      <point x="396.5" y="739.5" type="line"/>
      <point x="466.5" y="581.0" type="line"/>
      <point x="501.0" y="649.5"/>
      <point x="579.5" y="704.5"/>
      <point x="685.0" y="704.5" type="curve" smooth="yes"/>
      <point x="809.0" y="704.5"/>
      <point x="873.0" y="643.0"/>
      <point x="873.0" y="525.5" type="curve" smooth="yes"/>
      <point x="873.0" y="456.5" type="line" smooth="yes"/>
      <point x="873.0" y="340.5"/>
      <point x="802.0" y="280.0"/>
      <point x="680.5" y="280.0" type="curve" smooth="yes"/>
      <point x="542.5" y="280.0"/>
      <point x="477.5" y="348.5"/>
      <point x="474.0" y="457.5" type="curve"/>
      <point x="379.0" y="229.0" type="line"/>
      <point x="483.0" y="229.0" type="line"/>
      <point x="515.0" y="71.5"/>
      <point x="618.5" y="-28.0"/>
    </contour>
    <contour>
      <point x="105.0" y="-341.0" type="line"/>
      <point x="478.0" y="-341.0" type="line"/>
      <point x="478.0" y="2.0" type="line"/>
      <point x="470.0" y="297.5" type="line"/>
      <point x="474.0" y="333.5" type="line"/>
      <point x="474.0" y="626.5" type="line"/>
      <point x="472.5" y="662.0" type="line"/>
      <point x="478.0" y="995.5" type="line"/>
      <point x="478.0" y="1316.5" type="line"/>
      <point x="105.0" y="1316.5" type="line"/>
    </contour>
  </outline>
</glyph>
<glyph name="idotless" format="2">
  <advance width="585.0"/>
  <unicode hex="0131"/>
  <anchor x="292.5" y="0.0" name="bottom"/>
  <anchor x="515.5" y="5.0" name="ogonek"/>
  <anchor x="292.5" y="974.0" name="top"/>
  <outline>
    <contour>
      <point x="105.0" y="0.0" type="line"/>
      <point x="480.0" y="0.0" type="line"/>
      <point x="480.0" y="974.0" type="line"/>
      <point x="105.0" y="974.0" type="line"/>
    </contour>
  </outline>
</glyph>
<glyph name="OE" format="2">
  <advance width="2209.0"/>
  <unicode hex="0152"/>
  <anchor x="1104.5" y="0.0" name="bottom"/>
  <anchor x="1104.5" y="1278.0" name="top"/>
  <outline>
    <contour>
      <point x="755.0" y="-41.5" type="curve" smooth="yes"/>
      <point x="1205.5" y="-41.5"/>
      <point x="1438.0" y="186.0"/>
      <point x="1438.0" y="579.5" type="curve" smooth="yes"/>
      <point x="1438.0" y="696.5" type="line" smooth="yes"/>
      <point x="1438.0" y="1087.0"/>
      <point x="1205.5" y="1317.5"/>
      <point x="755.0" y="1317.5" type="curve" smooth="yes"/>
      <point x="308.0" y="1317.5"/>
      <point x="75.0" y="1092.0"/>
      <point x="75.0" y="696.5" type="curve" smooth="yes"/>
      <point x="75.0" y="579.5" type="line" smooth="yes"/>
      <point x="75.0" y="181.0"/>
      <point x="308.0" y="-41.5"/>
    </contour>
    <contour>
      <point x="757.0" y="271.5" type="curve" smooth="yes"/>
      <point x="566.0" y="271.5"/>
      <point x="470.5" y="381.5"/>
      <point x="470.5" y="571.5" type="curve" smooth="yes"/>
      <point x="470.5" y="704.5" type="line" smooth="yes"/>
      <point x="470.5" y="894.5"/>
      <point x="566.0" y="1004.5"/>
      <point x="757.0" y="1004.5" type="curve" smooth="yes"/>
      <point x="946.5" y="1004.5"/>
      <point x="1043.5" y="894.5"/>
      <point x="1043.5" y="704.5" type="curve" smooth="yes"/>
      <point x="1043.5" y="571.5" type="line" smooth="yes"/>
      <point x="1043.5" y="381.5"/>
      <point x="946.5" y="271.5"/>
    </contour>
    <contour>
      <point x="999.5" y="0.0" type="line"/>
      <point x="2121.0" y="0.0" type="line"/>
      <point x="2121.0" y="305.5" type="line"/>
      <point x="999.5" y="305.5" type="line"/>
    </contour>
    <contour>
      <point x="1253.0" y="501.5" type="line"/>
      <point x="2089.0" y="501.5" type="line"/>
      <point x="2089.0" y="791.5" type="line"/>
      <point x="1253.0" y="791.5" type="line"/>
    </contour>
    <contour>
      <point x="999.5" y="974.0" type="line"/>
      <point x="2107.5" y="974.0" type="line"/>
      <point x="2107.5" y="1278.0" type="line"/>
      <point x="999.5" y="1278.0" type="line"/>
    </contour>
  </outline>
</glyph>
<glyph name="oe" format="2">
  <advance width="1974.0"/>
  <unicode hex="0153"/>
  <anchor x="987.0" y="0.0" name="bottom"/>
  <anchor x="987.0" y="974.0" name="top"/>
  <outline>
    <contour>
      <point x="579.0" y="-34.5" type="curve" smooth="yes"/>
      <point x="776.5" y="-34.5"/>
      <point x="903.5" y="38.0"/>
      <point x="986.0" y="155.5" type="curve"/>
      <point x="997.5" y="155.5" type="line"/>
      <point x="1089.0" y="29.5"/>
      <point x="1237.0" y="-33.0"/>
      <point x="1466.0" y="-33.0" type="curve" smooth="yes"/>
      <point x="1627.0" y="-33.0"/>
      <point x="1763.5" y="-4.0"/>
      <point x="1862.0" y="46.0" type="curve"/>
      <point x="1894.5" y="309.0" type="line"/>
      <point x="1771.0" y="268.5"/>
      <point x="1641.5" y="246.5"/>
      <point x="1509.0" y="246.5" type="curve" smooth="yes"/>
      <point x="1263.5" y="246.5"/>
      <point x="1178.5" y="320.0"/>
      <point x="1173.0" y="416.5" type="curve" smooth="yes"/>
      <point x="1170.0" y="475.5" type="line"/>
      <point x="1170.5" y="507.5" type="line"/>
      <point x="1170.5" y="572.5" type="line" smooth="yes"/>
      <point x="1170.5" y="673.5"/>
      <point x="1236.5" y="748.0"/>
      <point x="1371.0" y="748.0" type="curve" smooth="yes"/>
      <point x="1507.0" y="748.0"/>
      <point x="1568.0" y="685.5"/>
      <point x="1568.0" y="574.0" type="curve" smooth="yes"/>
      <point x="1568.0" y="528.0"/>
      <point x="1564.5" y="452.5"/>
      <point x="1557.5" y="381.5" type="curve"/>
      <point x="1897.5" y="381.5" type="line"/>
      <point x="1905.5" y="422.5"/>
      <point x="1911.0" y="481.5"/>
      <point x="1911.0" y="533.0" type="curve" smooth="yes"/>
      <point x="1911.0" y="555.5" type="line" smooth="yes"/>
      <point x="1911.0" y="838.0"/>
      <point x="1736.5" y="1012.0"/>
      <point x="1411.0" y="1012.0" type="curve" smooth="yes"/>
      <point x="1207.5" y="1012.0"/>
      <point x="1076.5" y="947.0"/>
      <point x="996.5" y="826.0" type="curve"/>
      <point x="984.5" y="826.0" type="line"/>
      <point x="906.0" y="941.0"/>
      <point x="779.5" y="1012.0"/>
      <point x="575.0" y="1012.0" type="curve" smooth="yes"/>
      <point x="247.5" y="1012.0"/>
      <point x="63.0" y="836.5"/>
      <point x="63.0" y="517.5" type="curve" smooth="yes"/>
      <point x="63.0" y="459.5" type="line" smooth="yes"/>
      <point x="63.0" y="140.5"/>
      <point x="247.0" y="-34.5"/>
    </contour>
    <contour>
      <point x="992.5" y="381.5" type="line"/>
      <point x="1824.0" y="381.5" type="line"/>
      <point x="1824.0" y="592.5" type="line"/>
      <point x="992.5" y="592.5" type="line"/>
    </contour>
    <contour>
      <point x="629.5" y="256.5" type="curve" smooth="yes"/>
      <point x="507.5" y="256.5"/>
      <point x="437.0" y="323.0"/>
      <point x="437.0" y="447.5" type="curve" smooth="yes"/>
      <point x="437.0" y="529.5" type="line" smooth="yes"/>
      <point x="437.0" y="653.0"/>
      <point x="507.5" y="721.0"/>
      <point x="629.5" y="721.0" type="curve" smooth="yes"/>
      <point x="754.5" y="721.0"/>
      <point x="826.5" y="652.5"/>
      <point x="826.5" y="528.5" type="curve" smooth="yes"/>
      <point x="826.5" y="448.5" type="line" smooth="yes"/>
      <point x="826.5" y="323.5"/>
      <point x="754.5" y="256.5"/>
    </contour>
  </outline>
</glyph>
<glyph name="gravecomb" format="2">
  <unicode hex="0300"/>
  <anchor x="531.5" y="974.0" name="_top"/>
  <anchor x="407.5" y="1372.0" name="top"/>
  <outline>
    <contour>
      <point x="506.5" y="1380.5" type="line"/>
      <point x="112.5" y="1380.5" type="line"/>
      <point x="112.5" y="1375.0" type="line"/>
      <point x="387.5" y="1074.0" type="line"/>
      <point x="703.0" y="1074.0" type="line"/>
      <point x="703.0" y="1078.5" type="line"/>
    </contour>
  </outline>
</glyph>
<glyph name="acutecomb" format="2">
  <unicode hex="0301"/>
  <anchor x="256.5" y="974.0" name="_top"/>
  <anchor x="256.5" y="1372.0" name="top"/>
  <outline>
    <contour>
      <point x="281.0" y="1380.5" type="line"/>
      <point x="84.5" y="1078.5" type="line"/>
      <point x="84.5" y="1074.0" type="line"/>
      <point x="400.0" y="1074.0" type="line"/>
      <point x="675.0" y="1375.0" type="line"/>
      <point x="675.0" y="1380.5" type="line"/>
    </contour>
  </outline>
</glyph>
<glyph name="circumflexcomb" format="2">
  <unicode hex="0302"/>
  <anchor x="493.5" y="974.0" name="_top"/>
  <anchor x="493.5" y="1364.0" name="top"/>
  <outline>
    <contour>
      <point x="302.5" y="1380.5" type="line"/>
      <point x="100.0" y="1080.5" type="line"/>
      <point x="100.0" y="1074.0" type="line"/>
      <point x="378.0" y="1074.0" type="line"/>
      <point x="488.5" y="1206.0" type="line"/>
      <point x="498.0" y="1206.0" type="line"/>
      <point x="607.5" y="1074.0" type="line"/>
      <point x="886.5" y="1074.0" type="line"/>
      <point x="886.5" y="1080.5" type="line"/>
      <point x="684.0" y="1380.5" type="line"/>
    </contour>
  </outline>
</glyph>
<glyph name="tildecomb" format="2">
  <unicode hex="0303"/>
  <anchor x="480.5" y="974.0" name="_top"/>
  <anchor x="480.5" y="1372.0" name="top"/>
  <outline>
    <contour>
      <point x="627.0" y="1078.5" type="curve" smooth="yes"/>
      <point x="802.0" y="1078.5"/>
      <point x="861.0" y="1185.0"/>
      <point x="861.0" y="1337.0" type="curve" smooth="yes"/>
      <point x="861.0" y="1376.5" type="line"/>
      <point x="653.0" y="1376.5" type="line"/>
      <point x="653.0" y="1376.0" type="line" smooth="yes"/>
      <point x="652.0" y="1332.5"/>
      <point x="639.0" y="1310.5"/>
      <point x="597.5" y="1310.5" type="curve" smooth="yes"/>
      <point x="530.5" y="1310.5"/>
      <point x="448.0" y="1363.0"/>
      <point x="333.0" y="1363.0" type="curve" smooth="yes"/>
      <point x="157.5" y="1363.0"/>
      <point x="100.0" y="1254.0"/>
      <point x="100.0" y="1103.5" type="curve" smooth="yes"/>
      <point x="100.0" y="1065.0" type="line"/>
      <point x="306.5" y="1065.0" type="line"/>
      <point x="306.5" y="1065.5" type="line" smooth="yes"/>
      <point x="307.5" y="1109.5"/>
      <point x="320.5" y="1131.0"/>
      <point x="363.0" y="1131.0" type="curve" smooth="yes"/>
      <point x="430.5" y="1131.0"/>
      <point x="520.5" y="1078.5"/>
    </contour>
  </outline>
</glyph>
<glyph name="macroncomb" format="2">
  <unicode hex="0304"/>
  <anchor x="453.0" y="974.0" name="_top"/>
  <anchor x="453.5" y="1315.5" name="top"/>
  <outline>
    <contour>
      <point x="90.0" y="1094.5" type="line"/>
      <point x="816.5" y="1094.5" type="line"/>
      <point x="816.5" y="1312.0" type="line"/>
      <point x="90.0" y="1312.0" type="line"/>
    </contour>
  </outline>
</glyph>
<glyph name="dotaccentcomb" format="2">
  <unicode hex="0307"/>
  <anchor x="288.5" y="974.0" name="_top"/>
  <anchor x="288.5" y="1360.5" name="top"/>
  <outline>
    <contour>
      <point x="287.5" y="1060.0" type="curve" smooth="yes"/>
      <point x="416.5" y="1060.0"/>
      <point x="477.0" y="1123.5"/>
      <point x="477.0" y="1223.0" type="curve" smooth="yes"/>
      <point x="477.0" y="1230.0" type="line" smooth="yes"/>
      <point x="477.0" y="1331.0"/>
      <point x="416.5" y="1396.5"/>
      <point x="287.5" y="1396.5" type="curve" smooth="yes"/>
      <point x="160.5" y="1396.5"/>
      <point x="100.0" y="1331.0"/>
      <point x="100.0" y="1230.0" type="curve" smooth="yes"/>
      <point x="100.0" y="1223.0" type="line" smooth="yes"/>
      <point x="100.0" y="1123.5"/>
      <point x="160.5" y="1060.0"/>
    </contour>
  </outline>
</glyph>
<glyph name="dieresiscomb" format="2">
  <unicode hex="0308"/>
  <anchor x="466.0" y="974.0" name="_top"/>
  <anchor x="466.0" y="1357.0" name="top"/>
  <outline>
    <contour>
      <point x="268.0" y="1059.0" type="curve" smooth="yes"/>
      <point x="383.5" y="1059.0"/>
      <point x="438.0" y="1119.5"/>
      <point x="438.0" y="1217.0" type="curve" smooth="yes"/>
      <point x="438.0" y="1224.0" type="line" smooth="yes"/>
      <point x="438.0" y="1322.5"/>
      <point x="383.5" y="1384.5"/>
      <point x="268.0" y="1384.5" type="curve" smooth="yes"/>
      <point x="154.5" y="1384.5"/>
      <point x="100.0" y="1322.5"/>
      <point x="100.0" y="1224.0" type="curve" smooth="yes"/>
      <point x="100.0" y="1217.0" type="line" smooth="yes"/>
      <point x="100.0" y="1119.5"/>
      <point x="154.5" y="1059.0"/>
    </contour>
    <contour>
      <point x="663.5" y="1059.0" type="curve" smooth="yes"/>
      <point x="776.5" y="1059.0"/>
      <point x="832.0" y="1119.5"/>
      <point x="832.0" y="1217.0" type="curve" smooth="yes"/>
      <point x="832.0" y="1224.0" type="line" smooth="yes"/>
      <point x="832.0" y="1322.5"/>
      <point x="776.5" y="1384.5"/>
      <point x="663.5" y="1384.5" type="curve" smooth="yes"/>
      <point x="549.5" y="1384.5"/>
      <point x="495.0" y="1322.5"/>
      <point x="495.0" y="1224.0" type="curve" smooth="yes"/>
      <point x="495.0" y="1217.0" type="line" smooth="yes"/>
      <point x="495.0" y="1119.5"/>
      <point x="548.0" y="1059.0"/>
    </contour>
  </outline>
</glyph>
<glyph name="ringcomb" format="2">
  <unicode hex="030A"/>
  <anchor x="351.5" y="974.0" name="_top"/>
  <anchor x="351.5" y="1408.5" name="top"/>
  <outline>
    <contour>
      <point x="100.0" y="1244.5" type="line" smooth="yes"/>
      <point x="100.0" y="1133.0"/>
      <point x="174.5" y="1054.0"/>
      <point x="351.5" y="1054.0" type="curve" smooth="yes"/>
      <point x="529.0" y="1054.0"/>
      <point x="603.0" y="1133.0"/>
      <point x="603.0" y="1244.5" type="curve" smooth="yes"/>
      <point x="603.0" y="1251.5" type="line" smooth="yes"/>
      <point x="603.0" y="1364.0"/>
      <point x="529.0" y="1442.0"/>
      <point x="351.5" y="1442.0" type="curve" smooth="yes"/>
      <point x="174.5" y="1442.0"/>
      <point x="100.0" y="1364.0"/>
      <point x="100.0" y="1251.5" type="curve" smooth="yes"/>
    </contour>
    <contour>
      <point x="272.5" y="1246.5" type="curve" smooth="yes"/>
      <point x="272.5" y="1250.5" type="line" smooth="yes"/>
      <point x="272.5" y="1288.0"/>
      <point x="299.0" y="1309.0"/>
      <point x="351.5" y="1309.0" type="curve" smooth="yes"/>
      <point x="403.5" y="1309.0"/>
      <point x="430.0" y="1288.0"/>
      <point x="430.0" y="1250.5" type="curve" smooth="yes"/>
      <point x="430.0" y="1246.5" type="line" smooth="yes"/>
      <point x="430.0" y="1208.5"/>
      <point x="403.5" y="1186.5"/>
      <point x="351.5" y="1186.5" type="curve" smooth="yes"/>
      <point x="299.0" y="1186.5"/>
      <point x="272.5" y="1208.5"/>
    </contour>
  </outline>
</glyph>
<glyph name="cedillacomb" format="2">
  <unicode hex="0327"/>
  <anchor x="354.0" y="0.0" name="_bottom"/>
  <anchor x="392.5" y="-424.5" name="bottom"/>
  <outline>
    <contour>
      <point x="479.5" y="37.0" type="line"/>
      <point x="242.5" y="37.0" type="line"/>
      <point x="210.0" y="-168.5" type="line"/>
      <point x="211.0" y="-168.5"/>
      <point x="213.0" y="-168.5"/>
      <point x="214.5" y="-168.5" type="curve" smooth="yes"/>
      <point x="360.5" y="-171.5"/>
      <point x="393.0" y="-181.5"/>
      <point x="393.0" y="-208.5" type="curve" smooth="yes"/>
      <point x="393.0" y="-210.5" type="line" smooth="yes"/>
      <point x="393.0" y="-235.5"/>
      <point x="359.5" y="-240.5"/>
      <point x="284.0" y="-240.5" type="curve" smooth="yes"/>
      <point x="239.5" y="-240.5"/>
      <point x="186.5" y="-235.5"/>
      <point x="139.5" y="-226.0" type="curve"/>
      <point x="173.5" y="-403.5" type="line"/>
      <point x="223.5" y="-415.5"/>
      <point x="290.0" y="-424.5"/>
      <point x="356.0" y="-424.5" type="curve" smooth="yes"/>
      <point x="550.5" y="-424.5"/>
      <point x="646.0" y="-365.5"/>
      <point x="646.0" y="-236.5" type="curve" smooth="yes"/>
      <point x="646.0" y="-231.5" type="line" smooth="yes"/>
      <point x="646.0" y="-132.0"/>
      <point x="580.0" y="-72.0"/>
      <point x="407.5" y="-72.0" type="curve" smooth="yes"/>
      <point x="374.0" y="-72.0"/>
      <point x="340.5" y="-72.5"/>
      <point x="306.5" y="-73.5" type="curve"/>
      <point x="445.5" y="-145.0" type="line"/>
    </contour>
  </outline>
</glyph>
<glyph name="Anusvara.tm" format="2">
  <unicode hex="0B82"/>
  <note>
Anusvara.tm
</note>
  <outline>
    <contour>
      <point x="411.5" y="1920.5" type="curve" smooth="yes"/>
      <point x="124.0" y="1920.5"/>
      <point x="0.0" y="1797.5"/>
      <point x="0.0" y="1590.0" type="curve" smooth="yes"/>
      <point x="0.0" y="1562.0" type="line"/>
      <point x="0.0" y="1354.5"/>
      <point x="124.0" y="1231.5"/>
      <point x="411.5" y="1231.5" type="curve" smooth="yes"/>
      <point x="700.5" y="1231.5"/>
      <point x="823.0" y="1354.0"/>
      <point x="823.0" y="1562.0" type="curve" smooth="yes"/>
      <point x="823.0" y="1590.0" type="line"/>
      <point x="823.0" y="1797.5"/>
      <point x="700.5" y="1920.5"/>
    </contour>
    <contour>
      <point x="411.5" y="1683.0" type="curve" smooth="yes"/>
      <point x="488.5" y="1683.0"/>
      <point x="518.5" y="1648.5"/>
      <point x="518.5" y="1592.0" type="curve" smooth="yes"/>
      <point x="518.5" y="1560.0" type="line"/>
      <point x="518.5" y="1502.0"/>
      <point x="491.5" y="1470.0"/>
      <point x="411.5" y="1470.0" type="curve" smooth="yes"/>
      <point x="332.0" y="1470.0"/>
      <point x="304.5" y="1502.0"/>
      <point x="304.5" y="1560.0" type="curve" smooth="yes"/>
      <point x="304.5" y="1592.0" type="line"/>
      <point x="304.5" y="1648.5"/>
      <point x="335.0" y="1683.0"/>
    </contour>
  </outline>
</glyph>
<glyph name="Aaytam.tm" format="2">
  <advance width="1919.5"/>
  <unicode hex="0B83"/>
  <note>
Aaytam.tm
</note>
  <outline>
    <contour>
      <point x="487.5" y="696.0" type="curve" smooth="yes"/>
      <point x="201.0" y="696.0"/>
      <point x="58.0" y="564.5"/>
      <point x="58.0" y="344.0" type="curve" smooth="yes"/>
      <point x="58.0" y="321.0" type="line"/>
      <point x="58.0" y="100.5"/>
      <point x="201.0" y="-31.5"/>
      <point x="487.5" y="-31.5" type="curve" smooth="yes"/>
      <point x="774.5" y="-31.5"/>
      <point x="916.5" y="99.5"/>
      <point x="916.5" y="318.5" type="curve" smooth="yes"/>
      <point x="916.5" y="346.5" type="line"/>
      <point x="916.5" y="565.0"/>
      <point x="774.5" y="696.0"/>
    </contour>
    <contour>
      <point x="487.5" y="454.0" type="curve" smooth="yes"/>
      <point x="572.0" y="454.0"/>
      <point x="607.5" y="413.5"/>
      <point x="607.5" y="350.0" type="curve" smooth="yes"/>
      <point x="607.5" y="315.0" type="line"/>
      <point x="607.5" y="250.0"/>
      <point x="572.0" y="211.0"/>
      <point x="487.5" y="211.0" type="curve" smooth="yes"/>
      <point x="402.0" y="211.0"/>
      <point x="366.0" y="250.0"/>
      <point x="366.0" y="315.0" type="curve" smooth="yes"/>
      <point x="366.0" y="350.0" type="line"/>
      <point x="366.0" y="413.5"/>
      <point x="402.0" y="454.0"/>
    </contour>
    <contour>
      <point x="1433.0" y="696.0" type="curve" smooth="yes"/>
      <point x="1147.0" y="696.0"/>
      <point x="1003.5" y="564.5"/>
      <point x="1003.5" y="344.0" type="curve" smooth="yes"/>
      <point x="1003.5" y="321.0" type="line"/>
      <point x="1003.5" y="100.5"/>
      <point x="1147.0" y="-31.5"/>
      <point x="1433.0" y="-31.5" type="curve" smooth="yes"/>
      <point x="1720.5" y="-31.5"/>
      <point x="1861.5" y="99.5"/>
      <point x="1861.5" y="318.5" type="curve" smooth="yes"/>
      <point x="1861.5" y="346.5" type="line"/>
      <point x="1861.5" y="565.0"/>
      <point x="1720.5" y="696.0"/>
    </contour>
    <contour>
      <point x="1433.0" y="454.0" type="curve" smooth="yes"/>
      <point x="1517.5" y="454.0"/>
      <point x="1553.0" y="413.5"/>
      <point x="1553.0" y="350.0" type="curve" smooth="yes"/>
      <point x="1553.0" y="315.0" type="line"/>
      <point x="1553.0" y="250.0"/>
      <point x="1517.5" y="211.0"/>
      <point x="1433.0" y="211.0" type="curve" smooth="yes"/>
      <point x="1348.0" y="211.0"/>
      <point x="1312.5" y="250.0"/>
      <point x="1312.5" y="315.0" type="curve" smooth="yes"/>
      <point x="1312.5" y="350.0" type="line"/>
      <point x="1312.5" y="413.5"/>
      <point x="1348.0" y="454.0"/>
    </contour>
    <contour>
      <point x="961.0" y="1429.0" type="curve" smooth="yes"/>
      <point x="674.5" y="1429.0"/>
      <point x="531.5" y="1297.0"/>
      <point x="531.5" y="1077.0" type="curve" smooth="yes"/>
      <point x="531.5" y="1049.0" type="line"/>
      <point x="531.5" y="828.5"/>
      <point x="674.5" y="697.0"/>
      <point x="961.0" y="697.0" type="curve" smooth="yes"/>
      <point x="1248.0" y="697.0"/>
      <point x="1389.5" y="827.5"/>
      <point x="1389.5" y="1046.5" type="curve" smooth="yes"/>
      <point x="1389.5" y="1079.5" type="line"/>
      <point x="1389.5" y="1298.0"/>
      <point x="1248.0" y="1429.0"/>
    </contour>
    <contour>
      <point x="961.0" y="1187.0" type="curve" smooth="yes"/>
      <point x="1045.5" y="1187.0"/>
      <point x="1081.0" y="1146.5"/>
      <point x="1081.0" y="1083.0" type="curve" smooth="yes"/>
      <point x="1081.0" y="1043.0" type="line"/>
      <point x="1081.0" y="978.0"/>
      <point x="1045.5" y="939.0"/>
      <point x="961.0" y="939.0" type="curve" smooth="yes"/>
      <point x="876.0" y="939.0"/>
      <point x="840.5" y="978.0"/>
      <point x="840.5" y="1043.0" type="curve" smooth="yes"/>
      <point x="840.5" y="1083.0" type="line"/>
      <point x="840.5" y="1146.5"/>
      <point x="876.0" y="1187.0"/>
    </contour>
  </outline>
</glyph>
<glyph name="VowelA.tm" format="2">
  <advance width="2534.5"/>
  <unicode hex="0B85"/>
  <note>
vowelA.tm
</note>
  <outline>
    <contour>
      <point x="1199.5" y="1211.0" type="curve" smooth="yes"/>
      <point x="743.5" y="1211.0"/>
      <point x="534.0" y="986.0"/>
      <point x="534.0" y="648.5" type="curve" smooth="yes"/>
      <point x="534.0" y="589.5" type="line" smooth="yes"/>
      <point x="534.0" y="368.0"/>
      <point x="688.0" y="218.5"/>
      <point x="989.0" y="218.5" type="curve" smooth="yes"/>
      <point x="1275.5" y="218.5"/>
      <point x="1396.0" y="351.5"/>
      <point x="1396.0" y="544.0" type="curve" smooth="yes"/>
      <point x="1396.0" y="610.5" type="line" smooth="yes"/>
      <point x="1396.0" y="790.5"/>
      <point x="1299.0" y="895.5"/>
      <point x="1106.5" y="895.5" type="curve" smooth="yes"/>
      <point x="949.0" y="895.5"/>
      <point x="868.5" y="815.0"/>
      <point x="848.5" y="704.0" type="curve"/>
      <point x="828.5" y="704.0" type="line"/>
      <point x="840.5" y="609.0" type="line"/>
      <point x="862.5" y="646.0"/>
      <point x="910.0" y="670.5"/>
      <point x="972.0" y="670.5" type="curve" smooth="yes"/>
      <point x="1045.0" y="670.5"/>
      <point x="1078.5" y="639.5"/>
      <point x="1078.5" y="577.5" type="curve" smooth="yes"/>
      <point x="1078.5" y="557.5" type="line" smooth="yes"/>
      <point x="1078.5" y="496.0"/>
      <point x="1044.0" y="461.5"/>
      <point x="973.5" y="461.5" type="curve" smooth="yes"/>
      <point x="886.5" y="461.5"/>
      <point x="850.5" y="510.5"/>
      <point x="850.5" y="588.0" type="curve"/>
      <point x="850.5" y="704.0" type="line"/>
      <point x="838.5" y="704.0" type="line"/>
      <point x="843.5" y="845.0"/>
      <point x="937.0" y="963.0"/>
      <point x="1198.0" y="963.0" type="curve" smooth="yes"/>
      <point x="1480.0" y="963.0"/>
      <point x="1573.5" y="848.0"/>
      <point x="1573.5" y="630.5" type="curve" smooth="yes"/>
      <point x="1573.5" y="559.0" type="line" smooth="yes"/>
      <point x="1573.5" y="262.0"/>
      <point x="1384.0" y="141.0"/>
      <point x="992.5" y="141.0" type="curve" smooth="yes"/>
      <point x="989.5" y="141.0" type="line" smooth="yes"/>
      <point x="631.0" y="141.0"/>
      <point x="383.5" y="264.0"/>
      <point x="383.5" y="465.5" type="curve" smooth="yes"/>
      <point x="383.5" y="466.5" type="line" smooth="yes"/>
      <point x="383.5" y="467.0"/>
      <point x="383.5" y="469.0"/>
      <point x="383.5" y="470.0" type="curve"/>
      <point x="715.5" y="470.0" type="line"/>
      <point x="703.5" y="707.5" type="line"/>
      <point x="53.5" y="707.5" type="line"/>
      <point x="50.0" y="665.5"/>
      <point x="47.5" y="631.5"/>
      <point x="47.5" y="597.5" type="curve" smooth="yes"/>
      <point x="47.5" y="583.5" type="line" smooth="yes"/>
      <point x="47.5" y="101.0"/>
      <point x="415.0" y="-126.5"/>
      <point x="992.0" y="-126.5" type="curve" smooth="yes"/>
      <point x="997.5" y="-126.5" type="line" smooth="yes"/>
      <point x="1621.5" y="-126.5"/>
      <point x="1913.5" y="95.5"/>
      <point x="1913.5" y="563.0" type="curve" smooth="yes"/>
      <point x="1913.5" y="622.5" type="line" smooth="yes"/>
      <point x="1913.5" y="989.0"/>
      <point x="1701.0" y="1211.0"/>
    </contour>
    <contour>
      <point x="1141.0" y="705.0" type="line"/>
      <point x="1141.0" y="453.5" type="line"/>
      <point x="1636.0" y="453.5" type="line"/>
      <point x="1636.0" y="705.0" type="line"/>
    </contour>
    <contour>
      <point x="1694.0" y="707.5" type="line"/>
      <point x="1694.0" y="451.0" type="line"/>
      <point x="2057.0" y="451.0" type="line"/>
      <point x="2057.0" y="707.5" type="line"/>
    </contour>
    <contour>
      <point x="2041.5" y="1148.5" type="line"/>
      <point x="2041.5" y="-86.0" type="line"/>
      <point x="2396.5" y="-86.0" type="line"/>
      <point x="2396.5" y="1148.5" type="line"/>
    </contour>
  </outline>
</glyph>
<glyph name="VowelAa.tm" format="2">
  <advance width="3071.0"/>
  <unicode hex="0B86"/>
  <note>
vowelAa.tm
</note>
  <outline>
    <contour>
      <point x="2685.5" y="625.0" type="curve" smooth="yes"/>
      <point x="2518.0" y="625.0"/>
      <point x="2426.5" y="529.0"/>
      <point x="2407.0" y="397.0" type="curve"/>
      <point x="2354.5" y="397.0" type="line"/>
      <point x="2354.5" y="227.0" type="line"/>
      <point x="2376.5" y="227.0" type="line"/>
      <point x="2397.5" y="290.0"/>
      <point x="2451.5" y="331.5"/>
      <point x="2524.5" y="331.5" type="curve" smooth="yes"/>
      <point x="2621.5" y="331.5"/>
      <point x="2659.0" y="271.5"/>
      <point x="2659.0" y="142.0" type="curve" smooth="yes"/>
      <point x="2659.0" y="117.0" type="line" smooth="yes"/>
      <point x="2659.0" y="-109.0"/>
      <point x="2581.0" y="-198.5"/>
      <point x="2349.5" y="-198.5" type="curve" smooth="yes"/>
      <point x="2207.5" y="-198.5"/>
      <point x="2071.0" y="-181.0"/>
      <point x="1936.0" y="-152.5" type="curve"/>
      <point x="1987.0" y="-447.0" type="line"/>
      <point x="2119.0" y="-476.0"/>
      <point x="2243.5" y="-493.5"/>
      <point x="2398.0" y="-493.5" type="curve" smooth="yes"/>
      <point x="2843.0" y="-493.5"/>
      <point x="3016.0" y="-303.5"/>
      <point x="3016.0" y="121.0" type="curve" smooth="yes"/>
      <point x="3016.0" y="165.0" type="line" smooth="yes"/>
      <point x="3016.0" y="467.0"/>
      <point x="2918.0" y="625.0"/>
    </contour>
    <component base="VowelA.tm"/>
  </outline>
</glyph>
